<?xml version="1.0" encoding="utf-8"?>
<!-- Generator: Adobe Illustrator 24.1.1, SVG Export Plug-In . SVG Version: 6.00 Build 0)  -->
<svg version="1.1" xmlns="http://www.w3.org/2000/svg" xmlns:xlink="http://www.w3.org/1999/xlink" x="0px" y="0px"
	 viewBox="0 0 375.28 147.89" style="enable-background:new 0 0 375.28 147.89;" xml:space="preserve">
<style type="text/css">
	.st0{fill:url(#SVGID_1_);}
	.st1{fill:url(#SVGID_2_);}
	.st2{fill:url(#SVGID_3_);}
	.st3{fill:url(#SVGID_4_);}
	.st4{fill:none;}
	.st5{fill:#FF0099;stroke:#FF0099;stroke-miterlimit:10;}
	.st6{fill:#FF6600;stroke:#F15A24;stroke-miterlimit:10;}
	.st7{fill:none;stroke:#ED1C24;stroke-miterlimit:10;}
	.st8{fill:none;stroke:#FCEE21;stroke-miterlimit:10;}
	.st9{fill:#FF0099;}
	.st10{fill:#FCEE21;}
	.st11{fill:#ED1C24;}
	.st12{fill:#FF6600;}
	.st13{fill:none;stroke:#000000;stroke-width:0.3;stroke-miterlimit:10;}
</style>
<g id="图层_1">
	<g>
		<linearGradient id="SVGID_1_" gradientUnits="userSpaceOnUse" x1="204.3241" y1="132" x2="204.3241" y2="33">
			<stop  offset="0" style="stop-color:#FFFFFF"/>
			<stop  offset="0.3334" style="stop-color:#A6CEFF"/>
			<stop  offset="0.7954" style="stop-color:#2F8EFF"/>
			<stop  offset="1" style="stop-color:#0074FF"/>
		</linearGradient>
		<polygon class="st0" points="227.27,59.95 204.32,33 181.38,59.95 190.5,59.95 190.5,132 218,132 218,59.95 		"/>
		<linearGradient id="SVGID_2_" gradientUnits="userSpaceOnUse" x1="252.3241" y1="132" x2="252.3241" y2="33">
			<stop  offset="0" style="stop-color:#FFFFFF"/>
			<stop  offset="0.3334" style="stop-color:#A6CEFF"/>
			<stop  offset="0.7954" style="stop-color:#2F8EFF"/>
			<stop  offset="1" style="stop-color:#0074FF"/>
		</linearGradient>
		<polygon class="st1" points="275.27,59.95 252.32,33 229.38,59.95 238.5,59.95 238.5,132 266,132 266,59.95 		"/>
		<linearGradient id="SVGID_3_" gradientUnits="userSpaceOnUse" x1="156.3241" y1="132" x2="156.3241" y2="33">
			<stop  offset="0" style="stop-color:#FFFFFF"/>
			<stop  offset="0.0385" style="stop-color:#F2F2F8"/>
			<stop  offset="0.2313" style="stop-color:#B7B8DA"/>
			<stop  offset="0.4173" style="stop-color:#8688C0"/>
			<stop  offset="0.5917" style="stop-color:#6062AC"/>
			<stop  offset="0.752" style="stop-color:#44479E"/>
			<stop  offset="0.8931" style="stop-color:#343795"/>
			<stop  offset="1" style="stop-color:#2E3192"/>
		</linearGradient>
		<polygon class="st2" points="179.27,59.95 156.32,33 133.38,59.95 142.5,59.95 142.5,132 170,132 170,59.95 		"/>
		<linearGradient id="SVGID_4_" gradientUnits="userSpaceOnUse" x1="156.3241" y1="132" x2="156.3241" y2="33">
			<stop  offset="0" style="stop-color:#FFFFFF"/>
			<stop  offset="0.3334" style="stop-color:#A6CEFF"/>
			<stop  offset="0.7954" style="stop-color:#2F8EFF"/>
			<stop  offset="1" style="stop-color:#0074FF"/>
		</linearGradient>
		<polygon class="st3" points="179.27,59.95 156.32,33 133.38,59.95 142.5,59.95 142.5,132 170,132 170,59.95 		"/>
	</g>
	<g>
		<rect x="4.28" y="29.89" class="st4" width="141.72" height="26.11"/>
		<path d="M9.97,35.44c0,0.55-0.07,1.02-0.21,1.43s-0.34,0.75-0.61,1.02s-0.6,0.47-0.99,0.6s-0.86,0.2-1.4,0.2H5.43
			c-0.07,0-0.15-0.03-0.21-0.08s-0.1-0.14-0.1-0.27v-5.63c0-0.13,0.03-0.22,0.1-0.27s0.14-0.08,0.21-0.08h1.43
			c0.55,0,1.01,0.07,1.39,0.21s0.69,0.35,0.95,0.61s0.45,0.59,0.58,0.96S9.97,34.97,9.97,35.44z M9.09,35.48
			c0-0.34-0.04-0.66-0.13-0.95s-0.22-0.55-0.4-0.76s-0.41-0.38-0.69-0.5s-0.63-0.18-1.07-0.18H5.96v4.92h0.86
			c0.4,0,0.74-0.05,1.02-0.15s0.51-0.26,0.69-0.46s0.32-0.47,0.42-0.78S9.09,35.91,9.09,35.48z"/>
		<path d="M14.93,36.18c0,0.13-0.03,0.22-0.1,0.27s-0.14,0.08-0.22,0.08h-2.89c0,0.24,0.02,0.46,0.07,0.66
			c0.05,0.2,0.13,0.36,0.25,0.5c0.11,0.14,0.26,0.25,0.45,0.32c0.18,0.07,0.41,0.11,0.67,0.11c0.21,0,0.4-0.02,0.56-0.05
			s0.3-0.07,0.42-0.11c0.12-0.04,0.22-0.08,0.29-0.11c0.08-0.03,0.13-0.05,0.17-0.05c0.02,0,0.04,0.01,0.06,0.02
			s0.03,0.03,0.04,0.05s0.02,0.05,0.02,0.1s0.01,0.09,0.01,0.15c0,0.04,0,0.08,0,0.11s-0.01,0.06-0.01,0.08s-0.01,0.05-0.02,0.07
			s-0.03,0.04-0.04,0.06s-0.07,0.05-0.16,0.09s-0.2,0.08-0.34,0.12s-0.3,0.07-0.49,0.1s-0.38,0.05-0.59,0.05
			c-0.36,0-0.68-0.05-0.95-0.15s-0.5-0.25-0.69-0.45s-0.33-0.45-0.42-0.75s-0.14-0.65-0.14-1.04c0-0.38,0.05-0.72,0.15-1.02
			s0.24-0.56,0.42-0.77s0.41-0.37,0.67-0.48s0.55-0.17,0.87-0.17c0.35,0,0.64,0.06,0.88,0.17s0.44,0.26,0.6,0.45
			s0.27,0.41,0.34,0.66s0.11,0.52,0.11,0.81V36.18z M14.12,35.94c0.01-0.42-0.08-0.76-0.28-1c-0.2-0.24-0.49-0.36-0.88-0.36
			c-0.2,0-0.38,0.04-0.53,0.11c-0.15,0.07-0.28,0.17-0.38,0.3s-0.18,0.27-0.24,0.43s-0.09,0.34-0.09,0.52H14.12z"/>
		<path d="M20.19,36.31c0,0.38-0.04,0.73-0.12,1.04s-0.21,0.57-0.37,0.78s-0.36,0.38-0.6,0.49s-0.51,0.17-0.82,0.17
			c-0.13,0-0.25-0.01-0.36-0.04s-0.22-0.07-0.32-0.12s-0.21-0.13-0.31-0.21s-0.21-0.18-0.33-0.3v2.2c0,0.03-0.01,0.05-0.02,0.07
			s-0.03,0.04-0.06,0.05s-0.07,0.02-0.12,0.03s-0.12,0.01-0.2,0.01c-0.08,0-0.14,0-0.2-0.01s-0.09-0.02-0.12-0.03
			s-0.05-0.03-0.06-0.05s-0.02-0.04-0.02-0.07v-6.14c0-0.03,0-0.05,0.01-0.07s0.03-0.03,0.06-0.05s0.07-0.02,0.11-0.03
			s0.1-0.01,0.17-0.01c0.07,0,0.12,0,0.17,0.01s0.08,0.01,0.11,0.03s0.05,0.03,0.06,0.05s0.02,0.04,0.02,0.07v0.59
			c0.13-0.14,0.26-0.26,0.39-0.36s0.25-0.18,0.37-0.25s0.25-0.12,0.39-0.15s0.27-0.05,0.42-0.05c0.32,0,0.59,0.06,0.82,0.19
			s0.41,0.29,0.55,0.51s0.25,0.46,0.31,0.75S20.19,35.99,20.19,36.31z M19.36,36.4c0-0.22-0.02-0.44-0.05-0.65
			c-0.03-0.21-0.09-0.4-0.18-0.56s-0.2-0.29-0.34-0.39s-0.32-0.15-0.53-0.15c-0.1,0-0.21,0.02-0.31,0.05
			c-0.1,0.03-0.2,0.08-0.31,0.15c-0.1,0.07-0.21,0.15-0.33,0.26c-0.11,0.11-0.24,0.24-0.36,0.4v1.75c0.22,0.27,0.43,0.48,0.63,0.62
			s0.41,0.21,0.63,0.21c0.2,0,0.38-0.05,0.52-0.15c0.15-0.1,0.26-0.23,0.35-0.39c0.09-0.16,0.16-0.35,0.2-0.55
			S19.36,36.6,19.36,36.4z"/>
		<path d="M23.65,38.25c0,0.09-0.01,0.17-0.02,0.22s-0.03,0.1-0.06,0.12s-0.06,0.05-0.12,0.07s-0.11,0.04-0.18,0.06
			s-0.14,0.03-0.21,0.04s-0.15,0.01-0.22,0.01c-0.23,0-0.42-0.03-0.59-0.09s-0.3-0.15-0.4-0.27s-0.18-0.28-0.23-0.46
			s-0.07-0.41-0.07-0.66v-2.57h-0.62c-0.05,0-0.09-0.03-0.12-0.08s-0.04-0.14-0.04-0.25c0-0.06,0-0.11,0.01-0.16s0.02-0.08,0.03-0.1
			s0.03-0.05,0.05-0.06s0.04-0.02,0.07-0.02h0.61V33c0-0.02,0.01-0.04,0.02-0.06s0.03-0.04,0.06-0.05s0.07-0.03,0.12-0.03
			s0.12-0.01,0.2-0.01c0.08,0,0.15,0,0.2,0.01s0.09,0.02,0.12,0.03s0.05,0.03,0.06,0.05s0.02,0.04,0.02,0.06v1.04h1.13
			c0.03,0,0.05,0.01,0.07,0.02s0.04,0.03,0.05,0.06s0.03,0.06,0.03,0.1s0.01,0.09,0.01,0.16c0,0.12-0.01,0.2-0.04,0.25
			s-0.07,0.08-0.12,0.08h-1.13v2.45c0,0.3,0.04,0.53,0.13,0.69s0.25,0.23,0.48,0.23c0.07,0,0.14-0.01,0.2-0.02s0.11-0.03,0.16-0.05
			s0.08-0.03,0.12-0.05s0.06-0.02,0.09-0.02c0.02,0,0.03,0,0.05,0.01s0.03,0.02,0.03,0.05s0.02,0.05,0.02,0.09
			S23.65,38.19,23.65,38.25z"/>
		<path d="M28.5,38.57c0,0.03-0.01,0.05-0.02,0.07s-0.03,0.03-0.06,0.05s-0.07,0.02-0.12,0.03s-0.12,0.01-0.2,0.01
			c-0.08,0-0.15,0-0.2-0.01s-0.09-0.02-0.12-0.03s-0.05-0.03-0.06-0.05s-0.02-0.04-0.02-0.07V36c0-0.25-0.02-0.45-0.06-0.61
			s-0.1-0.28-0.17-0.4s-0.17-0.2-0.29-0.25s-0.26-0.09-0.41-0.09c-0.2,0-0.4,0.07-0.61,0.21s-0.41,0.35-0.63,0.63v3.07
			c0,0.03-0.01,0.05-0.02,0.07s-0.03,0.03-0.06,0.05s-0.07,0.02-0.12,0.03s-0.12,0.01-0.2,0.01c-0.08,0-0.14,0-0.2-0.01
			s-0.09-0.02-0.12-0.03s-0.05-0.03-0.06-0.05s-0.02-0.04-0.02-0.07v-6.52c0-0.03,0.01-0.05,0.02-0.07s0.03-0.04,0.06-0.05
			s0.07-0.02,0.12-0.03s0.12-0.01,0.2-0.01c0.08,0,0.15,0,0.2,0.01s0.09,0.02,0.12,0.03s0.05,0.03,0.06,0.05s0.02,0.04,0.02,0.07
			v2.63c0.23-0.24,0.46-0.43,0.7-0.54s0.47-0.18,0.71-0.18c0.29,0,0.54,0.05,0.74,0.15s0.36,0.23,0.49,0.4s0.21,0.36,0.27,0.58
			s0.08,0.49,0.08,0.81V38.57z"/>
		<path d="M29.51,39.09l2.15-6.81h0.48l-2.16,6.81H29.51z"/>
		<path d="M37.35,36.32c0,0.38-0.04,0.72-0.12,1.03s-0.21,0.56-0.37,0.78s-0.36,0.38-0.59,0.49s-0.5,0.17-0.81,0.17
			c-0.14,0-0.27-0.01-0.39-0.04s-0.24-0.07-0.35-0.13s-0.23-0.14-0.34-0.23s-0.23-0.21-0.36-0.34v0.54c0,0.03-0.01,0.05-0.02,0.07
			s-0.03,0.04-0.06,0.05s-0.07,0.02-0.11,0.03s-0.1,0.01-0.17,0.01c-0.06,0-0.12,0-0.17-0.01s-0.08-0.02-0.11-0.03
			s-0.05-0.03-0.06-0.05s-0.01-0.04-0.01-0.07v-6.52c0-0.03,0.01-0.05,0.02-0.07s0.03-0.04,0.06-0.05s0.07-0.02,0.12-0.03
			s0.12-0.01,0.2-0.01c0.08,0,0.15,0,0.2,0.01s0.09,0.02,0.12,0.03s0.05,0.03,0.06,0.05s0.02,0.04,0.02,0.07v2.63
			c0.13-0.13,0.26-0.25,0.38-0.34s0.24-0.17,0.36-0.22s0.23-0.1,0.35-0.12s0.24-0.04,0.37-0.04c0.32,0,0.59,0.06,0.82,0.19
			s0.41,0.3,0.55,0.51s0.25,0.46,0.31,0.75S37.35,36,37.35,36.32z M36.51,36.41c0-0.22-0.02-0.44-0.05-0.65
			c-0.03-0.21-0.09-0.4-0.18-0.56s-0.2-0.29-0.34-0.39c-0.14-0.1-0.32-0.15-0.53-0.15c-0.1,0-0.21,0.01-0.31,0.04
			c-0.1,0.03-0.2,0.08-0.31,0.15c-0.1,0.07-0.21,0.16-0.33,0.26c-0.11,0.11-0.23,0.24-0.36,0.41v1.75c0.22,0.27,0.44,0.48,0.64,0.62
			s0.41,0.21,0.63,0.21c0.2,0,0.38-0.05,0.52-0.15c0.14-0.1,0.26-0.23,0.35-0.39c0.09-0.16,0.16-0.34,0.2-0.54
			S36.51,36.61,36.51,36.41z"/>
		<path d="M41.13,34.46c0,0.07,0,0.13,0,0.18s-0.01,0.09-0.02,0.11s-0.02,0.05-0.04,0.06s-0.04,0.02-0.06,0.02s-0.06-0.01-0.1-0.02
			s-0.08-0.03-0.13-0.04s-0.1-0.03-0.16-0.04s-0.12-0.02-0.19-0.02c-0.08,0-0.16,0.02-0.24,0.05s-0.16,0.09-0.25,0.16
			s-0.18,0.17-0.27,0.3s-0.2,0.27-0.31,0.45v2.89c0,0.03-0.01,0.05-0.02,0.07s-0.03,0.03-0.06,0.05s-0.07,0.02-0.12,0.03
			s-0.12,0.01-0.2,0.01c-0.08,0-0.14,0-0.2-0.01s-0.09-0.02-0.12-0.03s-0.05-0.03-0.06-0.05s-0.02-0.04-0.02-0.07v-4.39
			c0-0.03,0-0.05,0.01-0.07s0.03-0.03,0.06-0.05s0.07-0.02,0.11-0.03s0.11-0.01,0.18-0.01c0.07,0,0.13,0,0.18,0.01
			s0.08,0.01,0.11,0.03s0.04,0.03,0.06,0.05s0.02,0.04,0.02,0.07v0.64c0.12-0.18,0.23-0.32,0.34-0.43s0.21-0.2,0.3-0.26
			s0.19-0.11,0.28-0.13s0.19-0.04,0.28-0.04c0.04,0,0.09,0,0.14,0.01s0.11,0.01,0.17,0.03s0.11,0.03,0.16,0.04s0.08,0.03,0.1,0.05
			s0.03,0.03,0.04,0.05s0.01,0.03,0.02,0.06s0.01,0.06,0.01,0.1S41.13,34.39,41.13,34.46z"/>
		<path d="M45.66,36.18c0,0.13-0.03,0.22-0.1,0.27s-0.14,0.08-0.22,0.08h-2.89c0,0.24,0.02,0.46,0.07,0.66
			c0.05,0.2,0.13,0.36,0.25,0.5c0.11,0.14,0.26,0.25,0.45,0.32c0.18,0.07,0.41,0.11,0.67,0.11c0.21,0,0.4-0.02,0.56-0.05
			s0.3-0.07,0.42-0.11c0.12-0.04,0.22-0.08,0.29-0.11c0.08-0.03,0.13-0.05,0.17-0.05c0.02,0,0.04,0.01,0.06,0.02
			s0.03,0.03,0.04,0.05s0.02,0.05,0.02,0.1s0.01,0.09,0.01,0.15c0,0.04,0,0.08,0,0.11s-0.01,0.06-0.01,0.08s-0.01,0.05-0.02,0.07
			s-0.03,0.04-0.04,0.06s-0.07,0.05-0.16,0.09s-0.2,0.08-0.34,0.12s-0.3,0.07-0.49,0.1s-0.38,0.05-0.59,0.05
			c-0.36,0-0.68-0.05-0.95-0.15s-0.5-0.25-0.69-0.45s-0.33-0.45-0.42-0.75s-0.14-0.65-0.14-1.04c0-0.38,0.05-0.72,0.15-1.02
			s0.24-0.56,0.42-0.77s0.41-0.37,0.67-0.48s0.55-0.17,0.87-0.17c0.35,0,0.64,0.06,0.88,0.17s0.44,0.26,0.6,0.45
			s0.27,0.41,0.34,0.66s0.11,0.52,0.11,0.81V36.18z M44.85,35.94c0.01-0.42-0.08-0.76-0.28-1c-0.2-0.24-0.49-0.36-0.88-0.36
			c-0.2,0-0.38,0.04-0.53,0.11c-0.15,0.07-0.28,0.17-0.38,0.3s-0.18,0.27-0.24,0.43s-0.09,0.34-0.09,0.52H44.85z"/>
		<path d="M50.2,38.58c0,0.04-0.01,0.07-0.04,0.09s-0.06,0.03-0.11,0.04s-0.11,0.01-0.2,0.01c-0.08,0-0.15,0-0.2-0.01
			s-0.09-0.02-0.11-0.04s-0.03-0.05-0.03-0.09v-0.44c-0.19,0.21-0.41,0.36-0.64,0.48s-0.49,0.17-0.75,0.17
			c-0.23,0-0.44-0.03-0.63-0.09s-0.35-0.15-0.48-0.26s-0.23-0.25-0.31-0.42s-0.11-0.35-0.11-0.57c0-0.25,0.05-0.46,0.15-0.64
			s0.25-0.33,0.43-0.45s0.42-0.21,0.69-0.27s0.58-0.09,0.92-0.09h0.61v-0.34c0-0.17-0.02-0.32-0.05-0.45s-0.09-0.24-0.17-0.32
			s-0.18-0.15-0.31-0.2s-0.28-0.07-0.47-0.07c-0.2,0-0.38,0.02-0.53,0.07s-0.3,0.1-0.42,0.16s-0.22,0.11-0.3,0.16
			s-0.14,0.07-0.18,0.07c-0.03,0-0.05-0.01-0.07-0.02s-0.04-0.03-0.05-0.06s-0.03-0.06-0.03-0.1s-0.01-0.09-0.01-0.13
			c0-0.08,0.01-0.15,0.02-0.19s0.04-0.09,0.08-0.13s0.12-0.09,0.23-0.15s0.23-0.11,0.37-0.16s0.29-0.09,0.46-0.12
			s0.33-0.05,0.5-0.05c0.32,0,0.58,0.04,0.81,0.11s0.4,0.18,0.54,0.31s0.24,0.31,0.3,0.52s0.09,0.44,0.09,0.72V38.58z M49.4,36.57
			h-0.69c-0.22,0-0.41,0.02-0.58,0.06s-0.3,0.09-0.41,0.17s-0.19,0.16-0.24,0.26s-0.08,0.22-0.08,0.35c0,0.23,0.07,0.41,0.22,0.54
			s0.35,0.2,0.61,0.2c0.21,0,0.41-0.05,0.59-0.16s0.37-0.27,0.57-0.49V36.57z"/>
		<path d="M55.44,38.57c0,0.03-0.01,0.05-0.02,0.07s-0.03,0.04-0.06,0.05s-0.06,0.02-0.11,0.03s-0.1,0.01-0.17,0.01
			c-0.07,0-0.13,0-0.17-0.01s-0.08-0.02-0.11-0.03s-0.05-0.03-0.06-0.05s-0.02-0.04-0.02-0.07v-0.58c-0.23,0.25-0.47,0.45-0.72,0.59
			s-0.52,0.21-0.82,0.21c-0.32,0-0.6-0.06-0.83-0.19s-0.41-0.29-0.55-0.51s-0.25-0.46-0.31-0.75s-0.1-0.59-0.1-0.91
			c0-0.38,0.04-0.72,0.12-1.02s0.2-0.56,0.36-0.78s0.36-0.38,0.59-0.5s0.51-0.17,0.82-0.17c0.26,0,0.49,0.06,0.71,0.17
			s0.42,0.28,0.63,0.5v-2.55c0-0.02,0.01-0.04,0.02-0.07s0.03-0.04,0.07-0.05s0.07-0.02,0.12-0.03s0.11-0.01,0.19-0.01
			c0.08,0,0.15,0,0.2,0.01s0.09,0.02,0.12,0.03s0.05,0.03,0.07,0.05s0.02,0.04,0.02,0.07V38.57z M54.63,35.48
			C54.41,35.21,54.2,35,54,34.86s-0.42-0.21-0.64-0.21c-0.21,0-0.38,0.05-0.52,0.15s-0.26,0.23-0.35,0.39s-0.15,0.34-0.2,0.54
			s-0.06,0.41-0.06,0.62c0,0.22,0.02,0.44,0.05,0.65s0.09,0.4,0.18,0.56s0.2,0.3,0.34,0.4s0.32,0.15,0.53,0.15
			c0.11,0,0.21-0.01,0.31-0.04s0.2-0.08,0.31-0.15s0.21-0.16,0.33-0.27s0.23-0.24,0.36-0.4V35.48z"/>
		<path d="M59.22,38.25c0,0.09-0.01,0.17-0.02,0.22s-0.03,0.1-0.06,0.12s-0.06,0.05-0.12,0.07s-0.11,0.04-0.18,0.06
			s-0.14,0.03-0.21,0.04s-0.15,0.01-0.22,0.01c-0.23,0-0.42-0.03-0.59-0.09s-0.3-0.15-0.4-0.27s-0.18-0.28-0.23-0.46
			s-0.07-0.41-0.07-0.66v-2.57h-0.62c-0.05,0-0.09-0.03-0.12-0.08s-0.04-0.14-0.04-0.25c0-0.06,0-0.11,0.01-0.16s0.02-0.08,0.03-0.1
			s0.03-0.05,0.05-0.06s0.04-0.02,0.07-0.02h0.61V33c0-0.02,0.01-0.04,0.02-0.06s0.03-0.04,0.06-0.05s0.07-0.03,0.12-0.03
			s0.12-0.01,0.2-0.01c0.08,0,0.15,0,0.2,0.01s0.09,0.02,0.12,0.03s0.05,0.03,0.06,0.05s0.02,0.04,0.02,0.06v1.04h1.13
			c0.03,0,0.05,0.01,0.07,0.02s0.04,0.03,0.05,0.06s0.03,0.06,0.03,0.1s0.01,0.09,0.01,0.16c0,0.12-0.01,0.2-0.04,0.25
			s-0.07,0.08-0.12,0.08h-1.13v2.45c0,0.3,0.04,0.53,0.13,0.69s0.25,0.23,0.48,0.23c0.07,0,0.14-0.01,0.2-0.02s0.11-0.03,0.16-0.05
			s0.08-0.03,0.12-0.05s0.06-0.02,0.09-0.02c0.02,0,0.03,0,0.05,0.01s0.03,0.02,0.03,0.05s0.02,0.05,0.02,0.09
			S59.22,38.19,59.22,38.25z"/>
		<path d="M64.07,38.57c0,0.03-0.01,0.05-0.02,0.07s-0.03,0.03-0.06,0.05s-0.07,0.02-0.12,0.03s-0.12,0.01-0.2,0.01
			c-0.08,0-0.15,0-0.2-0.01s-0.09-0.02-0.12-0.03s-0.05-0.03-0.06-0.05s-0.02-0.04-0.02-0.07V36c0-0.25-0.02-0.45-0.06-0.61
			s-0.1-0.28-0.17-0.4s-0.17-0.2-0.29-0.25s-0.26-0.09-0.41-0.09c-0.2,0-0.4,0.07-0.61,0.21s-0.41,0.35-0.63,0.63v3.07
			c0,0.03-0.01,0.05-0.02,0.07s-0.03,0.03-0.06,0.05s-0.07,0.02-0.12,0.03s-0.12,0.01-0.2,0.01c-0.08,0-0.14,0-0.2-0.01
			s-0.09-0.02-0.12-0.03s-0.05-0.03-0.06-0.05s-0.02-0.04-0.02-0.07v-6.52c0-0.03,0.01-0.05,0.02-0.07s0.03-0.04,0.06-0.05
			s0.07-0.02,0.12-0.03s0.12-0.01,0.2-0.01c0.08,0,0.15,0,0.2,0.01s0.09,0.02,0.12,0.03s0.05,0.03,0.06,0.05s0.02,0.04,0.02,0.07
			v2.63c0.23-0.24,0.46-0.43,0.7-0.54s0.47-0.18,0.71-0.18c0.29,0,0.54,0.05,0.74,0.15s0.36,0.23,0.49,0.4s0.21,0.36,0.27,0.58
			s0.08,0.49,0.08,0.81V38.57z"/>
		<path d="M65.61,39.87c-0.01,0.04-0.03,0.08-0.05,0.1s-0.05,0.04-0.08,0.06s-0.07,0.02-0.12,0.03s-0.1,0.01-0.17,0.01
			c-0.08,0-0.15-0.01-0.2-0.02s-0.1-0.03-0.12-0.05s-0.05-0.05-0.05-0.08s0-0.07,0.02-0.11l2.95-8.1c0.01-0.04,0.03-0.08,0.05-0.1
			s0.05-0.04,0.08-0.06s0.07-0.02,0.12-0.03s0.11-0.01,0.18-0.01c0.08,0,0.15,0.01,0.2,0.02s0.09,0.03,0.12,0.05
			s0.05,0.05,0.05,0.08s0,0.07-0.01,0.11L65.61,39.87z"/>
		<path d="M70.3,32.69c0,0.19-0.04,0.32-0.11,0.39s-0.2,0.1-0.4,0.1c-0.19,0-0.32-0.03-0.39-0.1s-0.1-0.19-0.1-0.38
			c0-0.19,0.04-0.32,0.11-0.39s0.2-0.1,0.4-0.1c0.19,0,0.32,0.03,0.39,0.1S70.3,32.51,70.3,32.69z M70.2,38.57
			c0,0.03-0.01,0.05-0.02,0.07s-0.03,0.03-0.06,0.05s-0.07,0.02-0.12,0.03s-0.12,0.01-0.2,0.01c-0.08,0-0.14,0-0.2-0.01
			s-0.09-0.02-0.12-0.03s-0.05-0.03-0.06-0.05s-0.02-0.04-0.02-0.07v-4.39c0-0.02,0.01-0.04,0.02-0.06s0.03-0.04,0.06-0.05
			s0.07-0.02,0.12-0.03s0.12-0.01,0.2-0.01c0.08,0,0.15,0,0.2,0.01s0.09,0.02,0.12,0.03s0.05,0.03,0.06,0.05s0.02,0.04,0.02,0.06
			V38.57z"/>
		<path d="M75.48,38.57c0,0.03-0.01,0.05-0.02,0.07s-0.03,0.03-0.06,0.05s-0.07,0.02-0.12,0.03s-0.12,0.01-0.2,0.01
			c-0.08,0-0.15,0-0.2-0.01s-0.09-0.02-0.12-0.03s-0.05-0.03-0.06-0.05s-0.02-0.04-0.02-0.07V36c0-0.25-0.02-0.45-0.06-0.61
			s-0.1-0.28-0.17-0.4s-0.17-0.2-0.29-0.25s-0.26-0.09-0.41-0.09c-0.2,0-0.4,0.07-0.61,0.21s-0.41,0.35-0.63,0.63v3.07
			c0,0.03-0.01,0.05-0.02,0.07s-0.03,0.03-0.06,0.05s-0.07,0.02-0.12,0.03s-0.12,0.01-0.2,0.01c-0.08,0-0.14,0-0.2-0.01
			s-0.09-0.02-0.12-0.03s-0.05-0.03-0.06-0.05s-0.02-0.04-0.02-0.07v-4.39c0-0.03,0-0.05,0.01-0.07s0.03-0.03,0.06-0.05
			s0.07-0.02,0.11-0.03s0.11-0.01,0.18-0.01c0.07,0,0.13,0,0.18,0.01s0.08,0.01,0.11,0.03s0.04,0.03,0.06,0.05s0.02,0.04,0.02,0.07
			v0.58c0.25-0.28,0.49-0.48,0.74-0.61s0.49-0.19,0.74-0.19c0.29,0,0.54,0.05,0.74,0.15s0.36,0.23,0.49,0.4s0.21,0.36,0.27,0.58
			s0.08,0.49,0.08,0.8V38.57z"/>
		<path d="M79.14,38.25c0,0.09-0.01,0.17-0.02,0.22s-0.03,0.1-0.06,0.12s-0.06,0.05-0.12,0.07s-0.11,0.04-0.18,0.06
			s-0.14,0.03-0.21,0.04s-0.15,0.01-0.22,0.01c-0.23,0-0.42-0.03-0.59-0.09s-0.3-0.15-0.4-0.27s-0.18-0.28-0.23-0.46
			s-0.07-0.41-0.07-0.66v-2.57h-0.62c-0.05,0-0.09-0.03-0.12-0.08s-0.04-0.14-0.04-0.25c0-0.06,0-0.11,0.01-0.16s0.02-0.08,0.03-0.1
			s0.03-0.05,0.05-0.06s0.04-0.02,0.07-0.02h0.61V33c0-0.02,0.01-0.04,0.02-0.06s0.03-0.04,0.06-0.05s0.07-0.03,0.12-0.03
			s0.12-0.01,0.2-0.01c0.08,0,0.15,0,0.2,0.01s0.09,0.02,0.12,0.03s0.05,0.03,0.06,0.05s0.02,0.04,0.02,0.06v1.04h1.13
			c0.03,0,0.05,0.01,0.07,0.02s0.04,0.03,0.05,0.06s0.03,0.06,0.03,0.1s0.01,0.09,0.01,0.16c0,0.12-0.01,0.2-0.04,0.25
			s-0.07,0.08-0.12,0.08h-1.13v2.45c0,0.3,0.04,0.53,0.13,0.69s0.25,0.23,0.48,0.23c0.07,0,0.14-0.01,0.2-0.02s0.11-0.03,0.16-0.05
			s0.08-0.03,0.12-0.05s0.06-0.02,0.09-0.02c0.02,0,0.03,0,0.05,0.01s0.03,0.02,0.03,0.05s0.02,0.05,0.02,0.09
			S79.14,38.19,79.14,38.25z"/>
		<path d="M83.85,36.18c0,0.13-0.03,0.22-0.1,0.27s-0.14,0.08-0.22,0.08h-2.89c0,0.24,0.02,0.46,0.07,0.66
			c0.05,0.2,0.13,0.36,0.25,0.5c0.11,0.14,0.26,0.25,0.45,0.32c0.18,0.07,0.41,0.11,0.67,0.11c0.21,0,0.4-0.02,0.56-0.05
			s0.3-0.07,0.42-0.11c0.12-0.04,0.22-0.08,0.29-0.11c0.08-0.03,0.13-0.05,0.17-0.05c0.02,0,0.04,0.01,0.06,0.02
			s0.03,0.03,0.04,0.05s0.02,0.05,0.02,0.1s0.01,0.09,0.01,0.15c0,0.04,0,0.08,0,0.11s-0.01,0.06-0.01,0.08s-0.01,0.05-0.02,0.07
			s-0.03,0.04-0.04,0.06s-0.07,0.05-0.16,0.09s-0.2,0.08-0.34,0.12s-0.3,0.07-0.49,0.1s-0.38,0.05-0.59,0.05
			c-0.36,0-0.68-0.05-0.95-0.15s-0.5-0.25-0.69-0.45s-0.33-0.45-0.42-0.75s-0.14-0.65-0.14-1.04c0-0.38,0.05-0.72,0.15-1.02
			s0.24-0.56,0.42-0.77s0.41-0.37,0.67-0.48s0.55-0.17,0.87-0.17c0.35,0,0.64,0.06,0.88,0.17s0.44,0.26,0.6,0.45
			s0.27,0.41,0.34,0.66s0.11,0.52,0.11,0.81V36.18z M83.04,35.94c0.01-0.42-0.08-0.76-0.28-1c-0.2-0.24-0.49-0.36-0.88-0.36
			c-0.2,0-0.38,0.04-0.53,0.11c-0.15,0.07-0.28,0.17-0.38,0.3s-0.18,0.27-0.24,0.43s-0.09,0.34-0.09,0.52H83.04z"/>
		<path d="M88.86,38.57c0,0.03-0.01,0.05-0.02,0.07s-0.03,0.03-0.06,0.05s-0.07,0.02-0.12,0.03s-0.12,0.01-0.2,0.01
			c-0.08,0-0.15,0-0.2-0.01s-0.09-0.02-0.12-0.03s-0.05-0.03-0.06-0.05s-0.02-0.04-0.02-0.07V36c0-0.25-0.02-0.45-0.06-0.61
			s-0.1-0.28-0.17-0.4s-0.17-0.2-0.29-0.25s-0.26-0.09-0.41-0.09c-0.2,0-0.4,0.07-0.61,0.21s-0.41,0.35-0.63,0.63v3.07
			c0,0.03-0.01,0.05-0.02,0.07s-0.03,0.03-0.06,0.05s-0.07,0.02-0.12,0.03s-0.12,0.01-0.2,0.01c-0.08,0-0.14,0-0.2-0.01
			s-0.09-0.02-0.12-0.03s-0.05-0.03-0.06-0.05s-0.02-0.04-0.02-0.07v-4.39c0-0.03,0-0.05,0.01-0.07s0.03-0.03,0.06-0.05
			s0.07-0.02,0.11-0.03s0.11-0.01,0.18-0.01c0.07,0,0.13,0,0.18,0.01s0.08,0.01,0.11,0.03s0.04,0.03,0.06,0.05s0.02,0.04,0.02,0.07
			v0.58c0.25-0.28,0.49-0.48,0.74-0.61s0.49-0.19,0.74-0.19c0.29,0,0.54,0.05,0.74,0.15s0.36,0.23,0.49,0.4s0.21,0.36,0.27,0.58
			s0.08,0.49,0.08,0.8V38.57z"/>
		<path d="M93.08,37.38c0,0.22-0.04,0.42-0.12,0.6s-0.2,0.32-0.35,0.44s-0.34,0.21-0.55,0.27s-0.44,0.09-0.7,0.09
			c-0.16,0-0.31-0.01-0.45-0.04s-0.27-0.06-0.38-0.09s-0.21-0.08-0.29-0.12s-0.14-0.08-0.17-0.11s-0.06-0.08-0.08-0.14
			s-0.02-0.14-0.02-0.24c0-0.06,0-0.11,0.01-0.16s0.01-0.08,0.02-0.1s0.02-0.04,0.04-0.06s0.04-0.02,0.06-0.02
			c0.04,0,0.09,0.02,0.16,0.07s0.16,0.09,0.26,0.14s0.22,0.1,0.36,0.14s0.3,0.07,0.48,0.07c0.14,0,0.26-0.01,0.37-0.04
			s0.21-0.07,0.29-0.13s0.14-0.13,0.19-0.22s0.07-0.19,0.07-0.31c0-0.12-0.03-0.23-0.1-0.31s-0.15-0.16-0.25-0.22
			s-0.22-0.12-0.35-0.17s-0.26-0.1-0.4-0.16s-0.27-0.12-0.41-0.19s-0.25-0.16-0.35-0.26s-0.19-0.22-0.25-0.36s-0.1-0.31-0.1-0.5
			c0-0.17,0.03-0.34,0.1-0.5s0.17-0.3,0.3-0.42s0.3-0.21,0.5-0.29s0.43-0.11,0.7-0.11c0.12,0,0.23,0.01,0.35,0.03
			s0.22,0.04,0.32,0.07s0.17,0.06,0.24,0.1s0.12,0.06,0.15,0.09s0.06,0.05,0.07,0.07s0.02,0.04,0.02,0.07s0.01,0.05,0.01,0.09
			s0.01,0.08,0.01,0.13c0,0.06,0,0.1-0.01,0.14s-0.01,0.07-0.02,0.1s-0.03,0.04-0.04,0.06s-0.03,0.02-0.05,0.02
			c-0.03,0-0.07-0.02-0.13-0.05s-0.13-0.07-0.21-0.11s-0.19-0.08-0.31-0.11s-0.25-0.05-0.41-0.05c-0.14,0-0.26,0.02-0.36,0.05
			s-0.19,0.07-0.26,0.13s-0.12,0.12-0.15,0.2s-0.05,0.16-0.05,0.25c0,0.13,0.03,0.23,0.1,0.32s0.15,0.16,0.25,0.23
			s0.22,0.12,0.36,0.18s0.27,0.11,0.41,0.16s0.27,0.12,0.41,0.19s0.25,0.15,0.36,0.25s0.19,0.21,0.25,0.35S93.08,37.19,93.08,37.38z
			"/>
		<path d="M95.14,32.69c0,0.19-0.04,0.32-0.11,0.39s-0.2,0.1-0.4,0.1c-0.19,0-0.32-0.03-0.39-0.1s-0.1-0.19-0.1-0.38
			c0-0.19,0.04-0.32,0.11-0.39s0.2-0.1,0.4-0.1c0.19,0,0.32,0.03,0.39,0.1S95.14,32.51,95.14,32.69z M95.04,38.57
			c0,0.03-0.01,0.05-0.02,0.07s-0.03,0.03-0.06,0.05s-0.07,0.02-0.12,0.03s-0.12,0.01-0.2,0.01c-0.08,0-0.14,0-0.2-0.01
			s-0.09-0.02-0.12-0.03s-0.05-0.03-0.06-0.05s-0.02-0.04-0.02-0.07v-4.39c0-0.02,0.01-0.04,0.02-0.06s0.03-0.04,0.06-0.05
			s0.07-0.02,0.12-0.03s0.12-0.01,0.2-0.01c0.08,0,0.15,0,0.2,0.01s0.09,0.02,0.12,0.03s0.05,0.03,0.06,0.05s0.02,0.04,0.02,0.06
			V38.57z"/>
		<path d="M98.82,38.25c0,0.09-0.01,0.17-0.02,0.22s-0.03,0.1-0.06,0.12s-0.06,0.05-0.12,0.07s-0.11,0.04-0.18,0.06
			s-0.14,0.03-0.21,0.04s-0.15,0.01-0.22,0.01c-0.23,0-0.42-0.03-0.59-0.09s-0.3-0.15-0.4-0.27s-0.18-0.28-0.23-0.46
			s-0.07-0.41-0.07-0.66v-2.57h-0.62c-0.05,0-0.09-0.03-0.12-0.08s-0.04-0.14-0.04-0.25c0-0.06,0-0.11,0.01-0.16s0.02-0.08,0.03-0.1
			s0.03-0.05,0.05-0.06s0.04-0.02,0.07-0.02h0.61V33c0-0.02,0.01-0.04,0.02-0.06s0.03-0.04,0.06-0.05s0.07-0.03,0.12-0.03
			s0.12-0.01,0.2-0.01c0.08,0,0.15,0,0.2,0.01s0.09,0.02,0.12,0.03s0.05,0.03,0.06,0.05s0.02,0.04,0.02,0.06v1.04h1.13
			c0.03,0,0.05,0.01,0.07,0.02s0.04,0.03,0.05,0.06s0.03,0.06,0.03,0.1s0.01,0.09,0.01,0.16c0,0.12-0.01,0.2-0.04,0.25
			s-0.07,0.08-0.12,0.08h-1.13v2.45c0,0.3,0.04,0.53,0.13,0.69s0.25,0.23,0.48,0.23c0.07,0,0.14-0.01,0.2-0.02s0.11-0.03,0.16-0.05
			s0.08-0.03,0.12-0.05s0.06-0.02,0.09-0.02c0.02,0,0.03,0,0.05,0.01s0.03,0.02,0.03,0.05s0.02,0.05,0.02,0.09
			S98.82,38.19,98.82,38.25z"/>
		<path d="M101.88,38.69l-0.59,1.62c-0.02,0.05-0.07,0.09-0.15,0.12s-0.2,0.04-0.36,0.04c-0.08,0-0.15,0-0.21-0.01
			s-0.09-0.02-0.12-0.04s-0.04-0.05-0.05-0.08s0-0.07,0.02-0.12l0.61-1.53c-0.03-0.01-0.06-0.03-0.08-0.06s-0.04-0.06-0.05-0.09
			l-1.57-4.2c-0.03-0.07-0.04-0.12-0.04-0.16s0.01-0.07,0.04-0.09s0.07-0.04,0.13-0.05s0.14-0.01,0.23-0.01s0.17,0,0.23,0.01
			s0.1,0.01,0.13,0.03s0.06,0.03,0.07,0.06s0.03,0.06,0.05,0.1l1.25,3.53h0.01l1.21-3.54c0.02-0.06,0.04-0.1,0.07-0.12
			s0.07-0.03,0.12-0.04s0.14-0.01,0.24-0.01c0.09,0,0.17,0,0.22,0.01s0.1,0.02,0.13,0.05s0.04,0.05,0.04,0.09s-0.01,0.09-0.03,0.15
			L101.88,38.69z"/>
	</g>
</g>
<g id="图层_2">
	<g>
		<rect x="267.06" y="4.15" class="st4" width="108.94" height="11.85"/>
		<path d="M273.19,12.8c0.03,0.08,0.04,0.14,0.05,0.19c0,0.05-0.01,0.08-0.04,0.11s-0.08,0.04-0.14,0.05
			c-0.07,0.01-0.15,0.01-0.27,0.01s-0.2,0-0.27-0.01c-0.07-0.01-0.12-0.01-0.15-0.03c-0.03-0.01-0.06-0.03-0.08-0.05
			c-0.02-0.02-0.03-0.05-0.05-0.08l-0.6-1.69h-2.89l-0.57,1.67c-0.01,0.03-0.02,0.06-0.04,0.08c-0.02,0.02-0.04,0.04-0.08,0.06
			c-0.03,0.02-0.08,0.03-0.15,0.04c-0.06,0.01-0.14,0.01-0.24,0.01c-0.1,0-0.19,0-0.25-0.01c-0.07-0.01-0.11-0.03-0.14-0.05
			c-0.03-0.02-0.04-0.06-0.04-0.11c0-0.05,0.02-0.11,0.05-0.19l2.33-6.46c0.01-0.04,0.03-0.07,0.06-0.1
			c0.02-0.02,0.06-0.04,0.1-0.06c0.04-0.01,0.1-0.02,0.17-0.03c0.07,0,0.16-0.01,0.27-0.01c0.11,0,0.21,0,0.28,0.01
			c0.08,0.01,0.14,0.02,0.18,0.03s0.08,0.03,0.11,0.06c0.02,0.03,0.04,0.06,0.06,0.1L273.19,12.8z M270.2,7.1L270.2,7.1l-1.2,3.46
			h2.42L270.2,7.1z"/>
		<path d="M301.32,11.13c0,0.22-0.03,0.42-0.08,0.6c-0.06,0.18-0.13,0.35-0.23,0.5s-0.22,0.28-0.36,0.39
			c-0.14,0.11-0.3,0.2-0.48,0.28c-0.18,0.08-0.37,0.13-0.57,0.17c-0.2,0.04-0.43,0.06-0.7,0.06h-1.82c-0.08,0-0.16-0.03-0.23-0.08
			c-0.07-0.06-0.11-0.15-0.11-0.29v-6.2c0-0.14,0.04-0.24,0.11-0.29c0.07-0.06,0.15-0.08,0.23-0.08h1.58c0.42,0,0.76,0.04,1.02,0.12
			s0.49,0.19,0.66,0.34c0.18,0.15,0.31,0.33,0.4,0.55s0.13,0.47,0.13,0.74c0,0.16-0.02,0.32-0.06,0.47s-0.1,0.29-0.17,0.42
			c-0.08,0.13-0.17,0.24-0.29,0.34c-0.12,0.1-0.25,0.18-0.4,0.25c0.19,0.04,0.37,0.1,0.53,0.2c0.16,0.09,0.31,0.22,0.43,0.36
			c0.12,0.15,0.22,0.32,0.29,0.52S301.32,10.9,301.32,11.13z M299.92,8.02c0-0.17-0.02-0.32-0.07-0.46s-0.12-0.25-0.22-0.35
			c-0.1-0.1-0.23-0.17-0.39-0.22s-0.37-0.08-0.64-0.08h-0.95v2.25h1.05c0.24,0,0.43-0.03,0.58-0.09c0.15-0.06,0.27-0.15,0.36-0.25
			c0.1-0.11,0.17-0.23,0.21-0.37C299.9,8.32,299.92,8.17,299.92,8.02z M300.34,11.19c0-0.21-0.03-0.39-0.1-0.55
			c-0.07-0.16-0.16-0.29-0.29-0.4s-0.29-0.19-0.48-0.24c-0.19-0.06-0.43-0.08-0.72-0.08h-1.1v2.45h1.34c0.21,0,0.39-0.02,0.55-0.08
			s0.3-0.12,0.42-0.22c0.12-0.1,0.21-0.22,0.28-0.37S300.34,11.38,300.34,11.19z"/>
		<path d="M329.74,12.14c0,0.06,0,0.11-0.01,0.15s-0.01,0.08-0.02,0.11c-0.01,0.03-0.02,0.06-0.03,0.09s-0.04,0.06-0.08,0.09
			s-0.11,0.09-0.23,0.16c-0.11,0.07-0.26,0.15-0.43,0.21c-0.17,0.07-0.37,0.13-0.58,0.18c-0.22,0.05-0.46,0.07-0.72,0.07
			c-0.45,0-0.86-0.08-1.22-0.23c-0.36-0.15-0.67-0.37-0.93-0.67c-0.26-0.29-0.45-0.66-0.59-1.09c-0.14-0.43-0.21-0.93-0.21-1.49
			c0-0.58,0.07-1.09,0.22-1.54c0.15-0.45,0.36-0.83,0.63-1.15c0.27-0.31,0.59-0.55,0.96-0.72c0.37-0.16,0.79-0.25,1.24-0.25
			c0.2,0,0.4,0.02,0.59,0.06c0.19,0.04,0.37,0.08,0.53,0.14s0.3,0.12,0.43,0.2s0.21,0.14,0.26,0.19c0.05,0.05,0.08,0.08,0.09,0.11
			s0.03,0.05,0.03,0.09c0.01,0.03,0.02,0.07,0.02,0.12c0.01,0.05,0.01,0.1,0.01,0.17c0,0.07,0,0.13-0.01,0.18s-0.02,0.09-0.03,0.13
			c-0.01,0.03-0.03,0.06-0.05,0.08c-0.02,0.02-0.04,0.02-0.07,0.02c-0.05,0-0.12-0.03-0.21-0.1c-0.09-0.07-0.21-0.15-0.35-0.23
			c-0.14-0.08-0.31-0.16-0.52-0.23c-0.2-0.07-0.45-0.1-0.73-0.1c-0.31,0-0.59,0.06-0.85,0.19c-0.25,0.12-0.47,0.31-0.65,0.54
			c-0.18,0.24-0.32,0.53-0.42,0.88c-0.1,0.35-0.15,0.74-0.15,1.18c0,0.44,0.05,0.83,0.14,1.17c0.1,0.34,0.23,0.62,0.41,0.85
			c0.18,0.23,0.4,0.4,0.66,0.52c0.26,0.12,0.55,0.17,0.88,0.17c0.28,0,0.52-0.03,0.73-0.1s0.38-0.14,0.53-0.23
			c0.15-0.08,0.27-0.16,0.36-0.23s0.17-0.1,0.22-0.1c0.03,0,0.05,0.01,0.06,0.02s0.03,0.03,0.04,0.06c0.01,0.03,0.02,0.07,0.02,0.13
			S329.74,12.06,329.74,12.14z"/>
		<path d="M361.18,9.55c0,0.6-0.08,1.13-0.23,1.58c-0.15,0.45-0.38,0.82-0.67,1.12c-0.3,0.3-0.66,0.52-1.09,0.66
			s-0.94,0.22-1.54,0.22h-1.47c-0.08,0-0.16-0.03-0.23-0.08c-0.07-0.06-0.11-0.15-0.11-0.29v-6.2c0-0.14,0.04-0.24,0.11-0.29
			c0.07-0.06,0.15-0.08,0.23-0.08h1.57c0.6,0,1.11,0.08,1.53,0.23c0.42,0.16,0.76,0.38,1.04,0.67c0.28,0.29,0.49,0.65,0.64,1.06
			C361.1,8.56,361.18,9.02,361.18,9.55z M360.2,9.58c0-0.38-0.05-0.73-0.14-1.05c-0.09-0.32-0.24-0.6-0.44-0.84
			c-0.2-0.24-0.45-0.42-0.75-0.55s-0.7-0.2-1.18-0.2h-0.94v5.41h0.95c0.44,0,0.82-0.06,1.12-0.17s0.56-0.28,0.76-0.51
			s0.36-0.52,0.46-0.86C360.15,10.47,360.2,10.06,360.2,9.58z"/>
	</g>
	<polyline class="st5" points="156,114 204,114 252,114 	"/>
	<line class="st6" x1="156.5" y1="63.5" x2="252.5" y2="63.5"/>
	<polyline class="st7" points="252.5,88.5 204.5,88.5 156.5,78.5 	"/>
	<line class="st8" x1="156.5" y1="99.5" x2="204.5" y2="114.5"/>
	<line class="st8" x1="252.5" y1="88.5" x2="204.5" y2="114.5"/>
	<rect x="264" y="7" class="st9" width="2" height="5"/>
	<rect x="293" y="7" class="st10" width="2" height="5"/>
	<rect x="321" y="7" class="st11" width="2" height="5"/>
	<rect x="351" y="7" class="st12" width="2" height="5"/>
</g>
<g id="图层_3">
	<g>
		<path d="M133.96,119.85v2.31c0,0.5,0.05,0.81,0.16,0.93c0.15,0.17,0.37,0.26,0.67,0.26h0.3v0.22h-3.4v-0.22h0.3
			c0.34,0,0.58-0.11,0.72-0.33c0.08-0.12,0.12-0.41,0.12-0.86v-5.13c0-0.5-0.05-0.81-0.16-0.93c-0.15-0.17-0.38-0.26-0.68-0.26h-0.3
			v-0.22h2.91c0.71,0,1.27,0.07,1.68,0.22s0.76,0.39,1.04,0.74s0.42,0.76,0.42,1.24c0,0.65-0.21,1.18-0.64,1.58
			s-1.03,0.61-1.81,0.61c-0.19,0-0.4-0.01-0.62-0.04S134.21,119.91,133.96,119.85z M133.96,119.52c0.21,0.04,0.39,0.07,0.55,0.09
			s0.3,0.03,0.41,0.03c0.41,0,0.76-0.16,1.05-0.47s0.44-0.72,0.44-1.22c0-0.34-0.07-0.66-0.21-0.96s-0.34-0.52-0.6-0.66
			s-0.55-0.22-0.88-0.22c-0.2,0-0.46,0.04-0.77,0.11V119.52z"/>
		<path d="M139.45,120.23c0,0.8,0.19,1.42,0.58,1.88s0.85,0.68,1.38,0.68c0.35,0,0.66-0.1,0.92-0.29s0.48-0.52,0.65-0.99l0.18,0.12
			c-0.08,0.54-0.32,1.02-0.71,1.46s-0.89,0.66-1.48,0.66c-0.64,0-1.2-0.25-1.66-0.75s-0.69-1.18-0.69-2.02
			c0-0.92,0.24-1.63,0.71-2.15s1.06-0.77,1.77-0.77c0.6,0,1.1,0.2,1.48,0.59s0.58,0.93,0.58,1.59H139.45z M139.45,119.89h2.48
			c-0.02-0.34-0.06-0.59-0.12-0.73c-0.1-0.22-0.24-0.39-0.44-0.52s-0.4-0.19-0.61-0.19c-0.32,0-0.61,0.13-0.87,0.38
			S139.49,119.44,139.45,119.89z"/>
		<path d="M145.45,118.05v1.21c0.45-0.8,0.91-1.21,1.38-1.21c0.21,0,0.39,0.07,0.53,0.2s0.21,0.28,0.21,0.45
			c0,0.15-0.05,0.28-0.15,0.39s-0.22,0.16-0.36,0.16c-0.14,0-0.29-0.07-0.46-0.2s-0.3-0.2-0.38-0.2c-0.07,0-0.15,0.04-0.23,0.12
			c-0.18,0.16-0.36,0.42-0.54,0.79v2.57c0,0.3,0.04,0.52,0.11,0.67c0.05,0.11,0.14,0.19,0.27,0.26s0.31,0.11,0.56,0.11v0.21h-2.75
			v-0.21c0.27,0,0.48-0.04,0.61-0.13c0.1-0.06,0.17-0.16,0.21-0.3c0.02-0.07,0.03-0.26,0.03-0.57v-2.08c0-0.63-0.01-1-0.04-1.12
			s-0.07-0.21-0.14-0.26s-0.15-0.08-0.25-0.08c-0.12,0-0.26,0.03-0.41,0.09l-0.06-0.21l1.62-0.66H145.45z"/>
		<path d="M152.43,121.54c-0.14,0.71-0.43,1.25-0.85,1.63s-0.89,0.57-1.4,0.57c-0.61,0-1.14-0.26-1.59-0.77s-0.68-1.2-0.68-2.07
			c0-0.84,0.25-1.53,0.75-2.06s1.1-0.79,1.81-0.79c0.53,0,0.96,0.14,1.3,0.42s0.51,0.57,0.51,0.87c0,0.15-0.05,0.27-0.14,0.36
			s-0.23,0.14-0.4,0.14c-0.23,0-0.4-0.07-0.52-0.22c-0.07-0.08-0.11-0.24-0.13-0.47s-0.1-0.41-0.24-0.53
			c-0.14-0.12-0.33-0.18-0.57-0.18c-0.39,0-0.71,0.14-0.94,0.43c-0.32,0.38-0.47,0.89-0.47,1.52c0,0.64,0.16,1.21,0.47,1.7
			s0.74,0.74,1.27,0.74c0.38,0,0.73-0.13,1.03-0.39c0.21-0.18,0.42-0.51,0.63-0.98L152.43,121.54z"/>
		<path d="M154.1,120.23c0,0.8,0.19,1.42,0.58,1.88s0.85,0.68,1.38,0.68c0.35,0,0.66-0.1,0.92-0.29s0.48-0.52,0.65-0.99l0.18,0.12
			c-0.08,0.54-0.32,1.02-0.71,1.46s-0.89,0.66-1.48,0.66c-0.64,0-1.2-0.25-1.66-0.75s-0.69-1.18-0.69-2.02
			c0-0.92,0.24-1.63,0.71-2.15s1.06-0.77,1.77-0.77c0.6,0,1.1,0.2,1.48,0.59s0.58,0.93,0.58,1.59H154.1z M154.1,119.89h2.48
			c-0.02-0.34-0.06-0.59-0.12-0.73c-0.1-0.22-0.24-0.39-0.44-0.52s-0.4-0.19-0.61-0.19c-0.32,0-0.61,0.13-0.87,0.38
			S154.14,119.44,154.1,119.89z"/>
		<path d="M158.14,118.74l1.65-0.67h0.22v1.25c0.28-0.47,0.56-0.8,0.83-0.99s0.57-0.28,0.88-0.28c0.54,0,0.99,0.21,1.35,0.63
			c0.44,0.52,0.66,1.19,0.66,2.02c0,0.93-0.27,1.69-0.8,2.3c-0.44,0.5-0.99,0.74-1.65,0.74c-0.29,0-0.54-0.04-0.75-0.12
			c-0.16-0.06-0.33-0.18-0.53-0.35v1.63c0,0.37,0.02,0.6,0.07,0.7s0.12,0.18,0.23,0.24s0.31,0.09,0.61,0.09v0.22h-2.81v-0.22h0.15
			c0.21,0,0.4-0.04,0.55-0.12c0.07-0.04,0.13-0.11,0.17-0.21s0.06-0.34,0.06-0.73v-5.07c0-0.35-0.02-0.57-0.05-0.66
			s-0.08-0.16-0.15-0.21s-0.16-0.07-0.28-0.07c-0.09,0-0.21,0.03-0.36,0.08L158.14,118.74z M160.01,119.67v2
			c0,0.43,0.02,0.72,0.05,0.86c0.05,0.23,0.19,0.43,0.4,0.6s0.48,0.26,0.81,0.26c0.39,0,0.71-0.15,0.95-0.46
			c0.32-0.4,0.47-0.96,0.47-1.68c0-0.82-0.18-1.45-0.54-1.89c-0.25-0.3-0.55-0.46-0.89-0.46c-0.19,0-0.37,0.05-0.56,0.14
			C160.57,119.11,160.34,119.32,160.01,119.67z"/>
		<path d="M166.08,116.44v1.76h1.25v0.41h-1.25v3.48c0,0.35,0.05,0.58,0.15,0.7s0.23,0.18,0.38,0.18c0.13,0,0.25-0.04,0.38-0.12
			s0.21-0.2,0.28-0.35h0.23c-0.14,0.38-0.33,0.67-0.58,0.86s-0.51,0.29-0.77,0.29c-0.18,0-0.36-0.05-0.53-0.15s-0.3-0.24-0.38-0.43
			s-0.12-0.47-0.12-0.86v-3.61h-0.85v-0.19c0.21-0.09,0.43-0.23,0.66-0.44s0.42-0.45,0.6-0.73c0.09-0.15,0.21-0.42,0.38-0.81H166.08
			z"/>
		<path d="M169.71,118.05v4.31c0,0.34,0.02,0.56,0.07,0.67s0.12,0.19,0.22,0.25s0.27,0.08,0.52,0.08v0.21h-2.61v-0.21
			c0.26,0,0.44-0.03,0.53-0.08s0.16-0.13,0.21-0.25s0.08-0.34,0.08-0.67v-2.07c0-0.58-0.02-0.96-0.05-1.13
			c-0.03-0.13-0.07-0.21-0.13-0.26s-0.14-0.07-0.24-0.07c-0.11,0-0.24,0.03-0.4,0.09l-0.08-0.21l1.62-0.66H169.71z M169.22,115.24
			c0.16,0,0.3,0.06,0.42,0.17s0.17,0.25,0.17,0.42s-0.06,0.3-0.17,0.42s-0.25,0.18-0.42,0.18s-0.3-0.06-0.42-0.18
			s-0.18-0.26-0.18-0.42s0.06-0.3,0.17-0.42S169.05,115.24,169.22,115.24z"/>
		<path d="M173.82,118.05c0.81,0,1.46,0.31,1.96,0.93c0.42,0.53,0.63,1.13,0.63,1.82c0,0.48-0.12,0.97-0.35,1.46
			s-0.55,0.86-0.95,1.11s-0.85,0.38-1.35,0.38c-0.81,0-1.45-0.32-1.93-0.97c-0.4-0.54-0.6-1.15-0.6-1.83c0-0.49,0.12-0.98,0.37-1.47
			s0.57-0.85,0.96-1.08S173.37,118.05,173.82,118.05z M173.63,118.43c-0.21,0-0.42,0.06-0.62,0.18s-0.38,0.34-0.51,0.65
			s-0.19,0.71-0.19,1.19c0,0.78,0.16,1.46,0.47,2.02s0.72,0.85,1.23,0.85c0.38,0,0.69-0.16,0.94-0.47s0.37-0.85,0.37-1.61
			c0-0.95-0.21-1.7-0.62-2.25C174.42,118.62,174.06,118.43,173.63,118.43z"/>
		<path d="M178.76,119.19c0.63-0.76,1.23-1.14,1.8-1.14c0.29,0,0.54,0.07,0.76,0.22s0.38,0.39,0.5,0.72
			c0.09,0.23,0.13,0.59,0.13,1.08v2.29c0,0.34,0.03,0.57,0.08,0.69c0.04,0.1,0.11,0.17,0.21,0.23s0.27,0.08,0.53,0.08v0.21h-2.65
			v-0.21h0.11c0.25,0,0.42-0.04,0.52-0.11s0.17-0.19,0.21-0.34c0.02-0.06,0.02-0.24,0.02-0.55v-2.2c0-0.49-0.06-0.84-0.19-1.06
			s-0.34-0.33-0.64-0.33c-0.46,0-0.93,0.25-1.39,0.76v2.83c0,0.36,0.02,0.59,0.06,0.67c0.05,0.11,0.13,0.2,0.23,0.25
			s0.29,0.08,0.58,0.08v0.21h-2.65v-0.21h0.12c0.27,0,0.46-0.07,0.55-0.21s0.14-0.4,0.14-0.79v-1.99c0-0.64-0.01-1.04-0.04-1.18
			s-0.07-0.24-0.13-0.29s-0.14-0.08-0.24-0.08c-0.11,0-0.24,0.03-0.39,0.09l-0.09-0.21l1.62-0.66h0.25V119.19z"/>
		<path d="M192.66,118.05v1.83h-0.19c-0.15-0.57-0.34-0.96-0.57-1.17s-0.53-0.31-0.89-0.31c-0.27,0-0.49,0.07-0.66,0.22
			s-0.25,0.3-0.25,0.48c0,0.22,0.06,0.41,0.19,0.56c0.12,0.16,0.37,0.33,0.74,0.51l0.86,0.42c0.79,0.39,1.19,0.9,1.19,1.53
			c0,0.49-0.18,0.88-0.55,1.18s-0.78,0.45-1.24,0.45c-0.33,0-0.7-0.06-1.13-0.18c-0.13-0.04-0.23-0.06-0.32-0.06
			c-0.09,0-0.16,0.05-0.21,0.15h-0.19v-1.92h0.19c0.11,0.55,0.32,0.96,0.63,1.24s0.65,0.42,1.04,0.42c0.27,0,0.49-0.08,0.66-0.24
			s0.25-0.35,0.25-0.57c0-0.27-0.09-0.5-0.28-0.68s-0.57-0.42-1.13-0.7s-0.94-0.54-1.11-0.76c-0.18-0.22-0.26-0.5-0.26-0.84
			c0-0.44,0.15-0.81,0.45-1.11s0.69-0.45,1.17-0.45c0.21,0,0.47,0.04,0.77,0.13c0.2,0.06,0.33,0.09,0.4,0.09
			c0.06,0,0.11-0.01,0.15-0.04s0.08-0.09,0.12-0.18H192.66z"/>
		<path d="M196.49,118.05c0.81,0,1.46,0.31,1.96,0.93c0.42,0.53,0.63,1.13,0.63,1.82c0,0.48-0.12,0.97-0.35,1.46
			s-0.55,0.86-0.95,1.11s-0.85,0.38-1.35,0.38c-0.81,0-1.45-0.32-1.93-0.97c-0.4-0.54-0.6-1.15-0.6-1.83c0-0.49,0.12-0.98,0.37-1.47
			s0.57-0.85,0.96-1.08S196.04,118.05,196.49,118.05z M196.3,118.43c-0.21,0-0.42,0.06-0.62,0.18s-0.38,0.34-0.51,0.65
			s-0.19,0.71-0.19,1.19c0,0.78,0.16,1.46,0.47,2.02s0.72,0.85,1.23,0.85c0.38,0,0.69-0.16,0.94-0.47s0.37-0.85,0.37-1.61
			c0-0.95-0.21-1.7-0.62-2.25C197.09,118.62,196.73,118.43,196.3,118.43z"/>
		<path d="M201.71,115.24v7.12c0,0.34,0.02,0.56,0.07,0.67s0.12,0.19,0.23,0.25s0.29,0.08,0.57,0.08v0.21h-2.63v-0.21
			c0.25,0,0.41-0.03,0.5-0.08s0.16-0.13,0.21-0.25s0.08-0.34,0.08-0.67v-4.88c0-0.61-0.01-0.98-0.04-1.12s-0.07-0.23-0.13-0.28
			s-0.14-0.08-0.23-0.08c-0.1,0-0.23,0.03-0.39,0.09l-0.1-0.21l1.6-0.66H201.71z"/>
		<path d="M205.05,118.05v4.31c0,0.34,0.02,0.56,0.07,0.67s0.12,0.19,0.22,0.25s0.27,0.08,0.52,0.08v0.21h-2.61v-0.21
			c0.26,0,0.44-0.03,0.53-0.08s0.16-0.13,0.21-0.25s0.08-0.34,0.08-0.67v-2.07c0-0.58-0.02-0.96-0.05-1.13
			c-0.03-0.13-0.07-0.21-0.13-0.26s-0.14-0.07-0.24-0.07c-0.11,0-0.24,0.03-0.4,0.09l-0.08-0.21l1.62-0.66H205.05z M204.56,115.24
			c0.16,0,0.3,0.06,0.42,0.17s0.17,0.25,0.17,0.42s-0.06,0.3-0.17,0.42s-0.25,0.18-0.42,0.18s-0.3-0.06-0.42-0.18
			s-0.18-0.26-0.18-0.42s0.06-0.3,0.17-0.42S204.39,115.24,204.56,115.24z"/>
		<path d="M208.09,116.44v1.76h1.25v0.41h-1.25v3.48c0,0.35,0.05,0.58,0.15,0.7s0.23,0.18,0.38,0.18c0.13,0,0.25-0.04,0.38-0.12
			s0.21-0.2,0.28-0.35h0.23c-0.14,0.38-0.33,0.67-0.58,0.86s-0.51,0.29-0.77,0.29c-0.18,0-0.36-0.05-0.53-0.15s-0.3-0.24-0.38-0.43
			s-0.12-0.47-0.12-0.86v-3.61h-0.85v-0.19c0.21-0.09,0.43-0.23,0.66-0.44s0.42-0.45,0.6-0.73c0.09-0.15,0.21-0.42,0.38-0.81H208.09
			z"/>
		<path d="M212.9,122.8c-0.55,0.43-0.9,0.67-1.04,0.74c-0.21,0.1-0.44,0.15-0.67,0.15c-0.37,0-0.68-0.13-0.92-0.38
			s-0.36-0.59-0.36-1c0-0.26,0.06-0.49,0.18-0.68c0.16-0.27,0.44-0.52,0.83-0.75s1.06-0.52,1.98-0.86v-0.21
			c0-0.54-0.08-0.9-0.25-1.1s-0.42-0.3-0.74-0.3c-0.25,0-0.44,0.07-0.59,0.2c-0.15,0.13-0.22,0.29-0.22,0.46l0.01,0.34
			c0,0.18-0.05,0.32-0.14,0.42s-0.21,0.15-0.36,0.15c-0.14,0-0.26-0.05-0.35-0.15s-0.14-0.24-0.14-0.42c0-0.34,0.17-0.64,0.52-0.93
			s0.83-0.42,1.45-0.42c0.48,0,0.87,0.08,1.17,0.24c0.23,0.12,0.4,0.31,0.51,0.57c0.07,0.17,0.11,0.51,0.11,1.03v1.82
			c0,0.51,0.01,0.83,0.03,0.94s0.05,0.19,0.1,0.23s0.1,0.06,0.16,0.06c0.06,0,0.12-0.01,0.16-0.04c0.08-0.05,0.24-0.19,0.47-0.43
			v0.33c-0.44,0.59-0.86,0.88-1.25,0.88c-0.19,0-0.34-0.07-0.46-0.2S212.91,123.12,212.9,122.8z M212.9,122.42v-2.04
			c-0.59,0.23-0.97,0.4-1.14,0.5c-0.31,0.17-0.53,0.35-0.66,0.54s-0.2,0.39-0.2,0.62c0,0.28,0.08,0.51,0.25,0.7s0.36,0.28,0.58,0.28
			C212.03,123.01,212.42,122.81,212.9,122.42z"/>
		<path d="M216.76,118.05v1.21c0.45-0.8,0.91-1.21,1.38-1.21c0.21,0,0.39,0.07,0.53,0.2s0.21,0.28,0.21,0.45
			c0,0.15-0.05,0.28-0.15,0.39s-0.22,0.16-0.36,0.16c-0.14,0-0.29-0.07-0.46-0.2s-0.3-0.2-0.38-0.2c-0.07,0-0.15,0.04-0.23,0.12
			c-0.18,0.16-0.36,0.42-0.54,0.79v2.57c0,0.3,0.04,0.52,0.11,0.67c0.05,0.11,0.14,0.19,0.27,0.26s0.31,0.11,0.56,0.11v0.21h-2.75
			v-0.21c0.27,0,0.48-0.04,0.61-0.13c0.1-0.06,0.17-0.16,0.21-0.3c0.02-0.07,0.03-0.26,0.03-0.57v-2.08c0-0.63-0.01-1-0.04-1.12
			s-0.07-0.21-0.14-0.26s-0.15-0.08-0.25-0.08c-0.12,0-0.26,0.03-0.41,0.09l-0.06-0.21l1.62-0.66H216.76z"/>
		<path d="M218.88,118.21h2.5v0.22h-0.12c-0.18,0-0.31,0.04-0.4,0.11s-0.13,0.17-0.13,0.28c0,0.15,0.06,0.36,0.19,0.63l1.31,2.71
			l1.2-2.96c0.07-0.16,0.1-0.32,0.1-0.47c0-0.07-0.01-0.12-0.04-0.16c-0.03-0.04-0.08-0.08-0.15-0.1s-0.18-0.04-0.35-0.04v-0.22
			h1.75v0.22c-0.14,0.02-0.26,0.05-0.33,0.09s-0.16,0.13-0.26,0.26c-0.04,0.05-0.1,0.21-0.2,0.45l-2.19,5.36
			c-0.21,0.52-0.49,0.91-0.83,1.18s-0.67,0.4-0.99,0.4c-0.23,0-0.42-0.07-0.57-0.2s-0.22-0.29-0.22-0.46c0-0.16,0.05-0.3,0.16-0.4
			s0.25-0.15,0.44-0.15c0.13,0,0.3,0.04,0.53,0.13c0.16,0.06,0.25,0.09,0.29,0.09c0.12,0,0.25-0.06,0.38-0.18s0.28-0.36,0.42-0.7
			l0.38-0.93l-1.93-4.05c-0.06-0.12-0.15-0.27-0.28-0.45c-0.1-0.14-0.18-0.23-0.24-0.28c-0.09-0.06-0.23-0.12-0.43-0.16V118.21z"/>
		<path d="M234.23,122.8c-0.55,0.43-0.9,0.67-1.04,0.74c-0.21,0.1-0.44,0.15-0.67,0.15c-0.37,0-0.68-0.13-0.92-0.38
			s-0.36-0.59-0.36-1c0-0.26,0.06-0.49,0.18-0.68c0.16-0.27,0.44-0.52,0.83-0.75s1.06-0.52,1.98-0.86v-0.21
			c0-0.54-0.08-0.9-0.25-1.1s-0.42-0.3-0.74-0.3c-0.25,0-0.44,0.07-0.59,0.2c-0.15,0.13-0.22,0.29-0.22,0.46l0.01,0.34
			c0,0.18-0.05,0.32-0.14,0.42s-0.21,0.15-0.36,0.15c-0.14,0-0.26-0.05-0.35-0.15s-0.14-0.24-0.14-0.42c0-0.34,0.17-0.64,0.52-0.93
			s0.83-0.42,1.45-0.42c0.48,0,0.87,0.08,1.17,0.24c0.23,0.12,0.4,0.31,0.51,0.57c0.07,0.17,0.11,0.51,0.11,1.03v1.82
			c0,0.51,0.01,0.83,0.03,0.94s0.05,0.19,0.1,0.23s0.1,0.06,0.16,0.06c0.06,0,0.12-0.01,0.16-0.04c0.08-0.05,0.24-0.19,0.47-0.43
			v0.33c-0.44,0.59-0.86,0.88-1.25,0.88c-0.19,0-0.34-0.07-0.46-0.2S234.23,123.12,234.23,122.8z M234.23,122.42v-2.04
			c-0.59,0.23-0.97,0.4-1.14,0.5c-0.31,0.17-0.53,0.35-0.66,0.54s-0.2,0.39-0.2,0.62c0,0.28,0.08,0.51,0.25,0.7s0.36,0.28,0.58,0.28
			C233.35,123.01,233.74,122.81,234.23,122.42z"/>
		<path d="M241.07,121.54c-0.14,0.71-0.43,1.25-0.85,1.63s-0.89,0.57-1.4,0.57c-0.61,0-1.14-0.26-1.59-0.77s-0.68-1.2-0.68-2.07
			c0-0.84,0.25-1.53,0.75-2.06s1.1-0.79,1.81-0.79c0.53,0,0.96,0.14,1.3,0.42s0.51,0.57,0.51,0.87c0,0.15-0.05,0.27-0.14,0.36
			s-0.23,0.14-0.4,0.14c-0.23,0-0.4-0.07-0.52-0.22c-0.07-0.08-0.11-0.24-0.13-0.47s-0.1-0.41-0.24-0.53
			c-0.14-0.12-0.33-0.18-0.57-0.18c-0.39,0-0.71,0.14-0.94,0.43c-0.32,0.38-0.47,0.89-0.47,1.52c0,0.64,0.16,1.21,0.47,1.7
			s0.74,0.74,1.27,0.74c0.38,0,0.73-0.13,1.03-0.39c0.21-0.18,0.42-0.51,0.63-0.98L241.07,121.54z"/>
		<path d="M246.4,121.54c-0.14,0.71-0.43,1.25-0.85,1.63s-0.89,0.57-1.4,0.57c-0.61,0-1.14-0.26-1.59-0.77s-0.68-1.2-0.68-2.07
			c0-0.84,0.25-1.53,0.75-2.06s1.1-0.79,1.81-0.79c0.53,0,0.96,0.14,1.3,0.42s0.51,0.57,0.51,0.87c0,0.15-0.05,0.27-0.14,0.36
			s-0.23,0.14-0.4,0.14c-0.23,0-0.4-0.07-0.52-0.22c-0.07-0.08-0.11-0.24-0.13-0.47s-0.1-0.41-0.24-0.53
			c-0.14-0.12-0.33-0.18-0.57-0.18c-0.39,0-0.71,0.14-0.94,0.43c-0.32,0.38-0.47,0.89-0.47,1.52c0,0.64,0.16,1.21,0.47,1.7
			s0.74,0.74,1.27,0.74c0.38,0,0.73-0.13,1.03-0.39c0.21-0.18,0.42-0.51,0.63-0.98L246.4,121.54z"/>
		<path d="M248.07,120.23c0,0.8,0.19,1.42,0.58,1.88s0.85,0.68,1.38,0.68c0.35,0,0.66-0.1,0.92-0.29s0.48-0.52,0.65-0.99l0.18,0.12
			c-0.08,0.54-0.32,1.02-0.71,1.46s-0.89,0.66-1.48,0.66c-0.64,0-1.2-0.25-1.66-0.75s-0.69-1.18-0.69-2.02
			c0-0.92,0.24-1.63,0.71-2.15s1.06-0.77,1.77-0.77c0.6,0,1.1,0.2,1.48,0.59s0.58,0.93,0.58,1.59H248.07z M248.07,119.89h2.48
			c-0.02-0.34-0.06-0.59-0.12-0.73c-0.1-0.22-0.24-0.39-0.44-0.52s-0.4-0.19-0.61-0.19c-0.32,0-0.61,0.13-0.87,0.38
			S248.11,119.44,248.07,119.89z"/>
		<path d="M252.1,118.74l1.65-0.67h0.22v1.25c0.28-0.47,0.56-0.8,0.83-0.99s0.57-0.28,0.88-0.28c0.54,0,0.99,0.21,1.35,0.63
			c0.44,0.52,0.66,1.19,0.66,2.02c0,0.93-0.27,1.69-0.8,2.3c-0.44,0.5-0.99,0.74-1.65,0.74c-0.29,0-0.54-0.04-0.75-0.12
			c-0.16-0.06-0.33-0.18-0.53-0.35v1.63c0,0.37,0.02,0.6,0.07,0.7s0.12,0.18,0.23,0.24s0.31,0.09,0.61,0.09v0.22h-2.81v-0.22h0.15
			c0.21,0,0.4-0.04,0.55-0.12c0.07-0.04,0.13-0.11,0.17-0.21s0.06-0.34,0.06-0.73v-5.07c0-0.35-0.02-0.57-0.05-0.66
			s-0.08-0.16-0.15-0.21s-0.16-0.07-0.28-0.07c-0.09,0-0.21,0.03-0.36,0.08L252.1,118.74z M253.98,119.67v2
			c0,0.43,0.02,0.72,0.05,0.86c0.05,0.23,0.19,0.43,0.4,0.6s0.48,0.26,0.81,0.26c0.39,0,0.71-0.15,0.95-0.46
			c0.32-0.4,0.47-0.96,0.47-1.68c0-0.82-0.18-1.45-0.54-1.89c-0.25-0.3-0.55-0.46-0.89-0.46c-0.19,0-0.37,0.05-0.56,0.14
			C254.54,119.11,254.3,119.32,253.98,119.67z"/>
		<path d="M260.05,116.44v1.76h1.25v0.41h-1.25v3.48c0,0.35,0.05,0.58,0.15,0.7s0.23,0.18,0.38,0.18c0.13,0,0.25-0.04,0.38-0.12
			s0.21-0.2,0.28-0.35h0.23c-0.14,0.38-0.33,0.67-0.58,0.86s-0.51,0.29-0.77,0.29c-0.18,0-0.36-0.05-0.53-0.15s-0.3-0.24-0.38-0.43
			s-0.12-0.47-0.12-0.86v-3.61h-0.85v-0.19c0.21-0.09,0.43-0.23,0.66-0.44s0.42-0.45,0.6-0.73c0.09-0.15,0.21-0.42,0.38-0.81H260.05
			z"/>
		<path d="M264.87,122.8c-0.55,0.43-0.9,0.67-1.04,0.74c-0.21,0.1-0.44,0.15-0.67,0.15c-0.37,0-0.68-0.13-0.92-0.38
			s-0.36-0.59-0.36-1c0-0.26,0.06-0.49,0.18-0.68c0.16-0.27,0.44-0.52,0.83-0.75s1.06-0.52,1.98-0.86v-0.21
			c0-0.54-0.08-0.9-0.25-1.1s-0.42-0.3-0.74-0.3c-0.25,0-0.44,0.07-0.59,0.2c-0.15,0.13-0.22,0.29-0.22,0.46l0.01,0.34
			c0,0.18-0.05,0.32-0.14,0.42s-0.21,0.15-0.36,0.15c-0.14,0-0.26-0.05-0.35-0.15s-0.14-0.24-0.14-0.42c0-0.34,0.17-0.64,0.52-0.93
			s0.83-0.42,1.45-0.42c0.48,0,0.87,0.08,1.17,0.24c0.23,0.12,0.4,0.31,0.51,0.57c0.07,0.17,0.11,0.51,0.11,1.03v1.82
			c0,0.51,0.01,0.83,0.03,0.94s0.05,0.19,0.1,0.23s0.1,0.06,0.16,0.06c0.06,0,0.12-0.01,0.16-0.04c0.08-0.05,0.24-0.19,0.47-0.43
			v0.33c-0.44,0.59-0.86,0.88-1.25,0.88c-0.19,0-0.34-0.07-0.46-0.2S264.87,123.12,264.87,122.8z M264.87,122.42v-2.04
			c-0.59,0.23-0.97,0.4-1.14,0.5c-0.31,0.17-0.53,0.35-0.66,0.54s-0.2,0.39-0.2,0.62c0,0.28,0.08,0.51,0.25,0.7s0.36,0.28,0.58,0.28
			C263.99,123.01,264.38,122.81,264.87,122.42z"/>
		<path d="M268.71,119.19c0.63-0.76,1.23-1.14,1.8-1.14c0.29,0,0.54,0.07,0.76,0.22s0.38,0.39,0.5,0.72
			c0.09,0.23,0.13,0.59,0.13,1.08v2.29c0,0.34,0.03,0.57,0.08,0.69c0.04,0.1,0.11,0.17,0.21,0.23s0.27,0.08,0.53,0.08v0.21h-2.65
			v-0.21h0.11c0.25,0,0.42-0.04,0.52-0.11s0.17-0.19,0.21-0.34c0.02-0.06,0.02-0.24,0.02-0.55v-2.2c0-0.49-0.06-0.84-0.19-1.06
			s-0.34-0.33-0.64-0.33c-0.46,0-0.93,0.25-1.39,0.76v2.83c0,0.36,0.02,0.59,0.06,0.67c0.05,0.11,0.13,0.2,0.23,0.25
			s0.29,0.08,0.58,0.08v0.21h-2.65v-0.21h0.12c0.27,0,0.46-0.07,0.55-0.21s0.14-0.4,0.14-0.79v-1.99c0-0.64-0.01-1.04-0.04-1.18
			s-0.07-0.24-0.13-0.29s-0.14-0.08-0.24-0.08c-0.11,0-0.24,0.03-0.39,0.09l-0.09-0.21l1.62-0.66h0.25V119.19z"/>
		<path d="M277.71,121.54c-0.14,0.71-0.43,1.25-0.85,1.63s-0.89,0.57-1.4,0.57c-0.61,0-1.14-0.26-1.59-0.77s-0.68-1.2-0.68-2.07
			c0-0.84,0.25-1.53,0.75-2.06s1.1-0.79,1.81-0.79c0.53,0,0.96,0.14,1.3,0.42s0.51,0.57,0.51,0.87c0,0.15-0.05,0.27-0.14,0.36
			s-0.23,0.14-0.4,0.14c-0.23,0-0.4-0.07-0.52-0.22c-0.07-0.08-0.11-0.24-0.13-0.47s-0.1-0.41-0.24-0.53
			c-0.14-0.12-0.33-0.18-0.57-0.18c-0.39,0-0.71,0.14-0.94,0.43c-0.32,0.38-0.47,0.89-0.47,1.52c0,0.64,0.16,1.21,0.47,1.7
			s0.74,0.74,1.27,0.74c0.38,0,0.73-0.13,1.03-0.39c0.21-0.18,0.42-0.51,0.63-0.98L277.71,121.54z"/>
		<path d="M279.38,120.23c0,0.8,0.19,1.42,0.58,1.88s0.85,0.68,1.38,0.68c0.35,0,0.66-0.1,0.92-0.29s0.48-0.52,0.65-0.99l0.18,0.12
			c-0.08,0.54-0.32,1.02-0.71,1.46s-0.89,0.66-1.48,0.66c-0.64,0-1.2-0.25-1.66-0.75s-0.69-1.18-0.69-2.02
			c0-0.92,0.24-1.63,0.71-2.15s1.06-0.77,1.77-0.77c0.6,0,1.1,0.2,1.48,0.59s0.58,0.93,0.58,1.59H279.38z M279.38,119.89h2.48
			c-0.02-0.34-0.06-0.59-0.12-0.73c-0.1-0.22-0.24-0.39-0.44-0.52s-0.4-0.19-0.61-0.19c-0.32,0-0.61,0.13-0.87,0.38
			S279.42,119.44,279.38,119.89z"/>
	</g>
	<g>
		<path d="M121.64,44.8l1.65-0.67h0.22v1.25c0.28-0.47,0.56-0.8,0.83-0.99s0.57-0.28,0.88-0.28c0.54,0,0.99,0.21,1.35,0.63
			c0.44,0.52,0.66,1.19,0.66,2.02c0,0.93-0.27,1.69-0.8,2.3c-0.44,0.5-0.99,0.74-1.65,0.74c-0.29,0-0.54-0.04-0.75-0.12
			c-0.16-0.06-0.33-0.18-0.53-0.35v1.63c0,0.37,0.02,0.6,0.07,0.7s0.12,0.18,0.23,0.24s0.31,0.09,0.61,0.09v0.22h-2.81v-0.22h0.15
			c0.21,0,0.4-0.04,0.55-0.12c0.07-0.04,0.13-0.11,0.17-0.21s0.06-0.34,0.06-0.73v-5.07c0-0.35-0.02-0.57-0.05-0.66
			s-0.08-0.16-0.15-0.21s-0.16-0.07-0.28-0.07c-0.09,0-0.21,0.03-0.36,0.08L121.64,44.8z M123.51,45.73v2
			c0,0.43,0.02,0.72,0.05,0.86c0.05,0.23,0.19,0.43,0.4,0.6s0.48,0.26,0.81,0.26c0.39,0,0.71-0.15,0.95-0.46
			c0.32-0.4,0.47-0.96,0.47-1.68c0-0.82-0.18-1.45-0.54-1.89c-0.25-0.3-0.55-0.46-0.89-0.46c-0.19,0-0.37,0.05-0.56,0.14
			C124.07,45.17,123.83,45.38,123.51,45.73z"/>
		<path d="M129.6,41.3v3.93c0.43-0.48,0.78-0.78,1.03-0.92s0.51-0.2,0.76-0.2c0.3,0,0.57,0.08,0.79,0.25s0.38,0.43,0.49,0.79
			c0.07,0.25,0.11,0.71,0.11,1.37v1.9c0,0.34,0.03,0.57,0.08,0.7c0.04,0.09,0.11,0.17,0.2,0.22s0.27,0.08,0.52,0.08v0.21h-2.64
			v-0.21h0.12c0.25,0,0.42-0.04,0.52-0.11s0.17-0.19,0.21-0.34c0.01-0.06,0.02-0.25,0.02-0.55v-1.9c0-0.59-0.03-0.97-0.09-1.15
			s-0.16-0.32-0.29-0.41s-0.29-0.14-0.48-0.14c-0.19,0-0.39,0.05-0.6,0.15s-0.46,0.31-0.74,0.62v2.84c0,0.37,0.02,0.6,0.06,0.69
			s0.12,0.17,0.23,0.23s0.3,0.09,0.58,0.09v0.21h-2.66v-0.21c0.24,0,0.43-0.04,0.56-0.11c0.08-0.04,0.14-0.11,0.19-0.22
			s0.07-0.33,0.07-0.67v-4.86c0-0.61-0.01-0.99-0.04-1.13s-0.07-0.24-0.13-0.29s-0.14-0.08-0.24-0.08c-0.08,0-0.21,0.03-0.4,0.09
			l-0.08-0.21l1.61-0.66H129.6z"/>
		<path d="M135.87,44.11v4.31c0,0.34,0.02,0.56,0.07,0.67s0.12,0.19,0.22,0.25s0.27,0.08,0.52,0.08v0.21h-2.61v-0.21
			c0.26,0,0.44-0.03,0.53-0.08s0.16-0.13,0.21-0.25s0.08-0.34,0.08-0.67v-2.07c0-0.58-0.02-0.96-0.05-1.13
			c-0.03-0.13-0.07-0.21-0.13-0.26s-0.14-0.07-0.24-0.07c-0.11,0-0.24,0.03-0.4,0.09L134,44.77l1.62-0.66H135.87z M135.39,41.3
			c0.16,0,0.3,0.06,0.42,0.17s0.17,0.25,0.17,0.42s-0.06,0.3-0.17,0.42s-0.25,0.18-0.42,0.18s-0.3-0.06-0.42-0.18
			s-0.18-0.26-0.18-0.42s0.06-0.3,0.17-0.42S135.22,41.3,135.39,41.3z"/>
		<path d="M139.2,41.3v7.12c0,0.34,0.02,0.56,0.07,0.67s0.12,0.19,0.23,0.25s0.29,0.08,0.57,0.08v0.21h-2.63v-0.21
			c0.25,0,0.41-0.03,0.5-0.08s0.16-0.13,0.21-0.25s0.08-0.34,0.08-0.67v-4.88c0-0.61-0.01-0.98-0.04-1.12s-0.07-0.23-0.13-0.28
			s-0.14-0.08-0.23-0.08c-0.1,0-0.23,0.03-0.39,0.09l-0.1-0.21l1.6-0.66H139.2z"/>
		<path d="M143.32,44.11c0.81,0,1.46,0.31,1.96,0.93c0.42,0.53,0.63,1.13,0.63,1.82c0,0.48-0.12,0.97-0.35,1.46
			s-0.55,0.86-0.95,1.11s-0.85,0.38-1.35,0.38c-0.81,0-1.45-0.32-1.93-0.97c-0.4-0.54-0.6-1.15-0.6-1.83c0-0.49,0.12-0.98,0.37-1.47
			s0.57-0.85,0.96-1.08S142.87,44.11,143.32,44.11z M143.13,44.49c-0.21,0-0.42,0.06-0.62,0.18s-0.38,0.34-0.51,0.65
			s-0.19,0.71-0.19,1.19c0,0.78,0.16,1.46,0.47,2.02s0.72,0.85,1.23,0.85c0.38,0,0.69-0.16,0.94-0.47s0.37-0.85,0.37-1.61
			c0-0.95-0.21-1.7-0.62-2.25C143.92,44.68,143.56,44.49,143.13,44.49z"/>
		<path d="M150.16,44.11v1.83h-0.19c-0.15-0.57-0.34-0.96-0.57-1.17s-0.53-0.31-0.89-0.31c-0.27,0-0.49,0.07-0.66,0.22
			s-0.25,0.3-0.25,0.48c0,0.22,0.06,0.41,0.19,0.56c0.12,0.16,0.37,0.33,0.74,0.51l0.86,0.42c0.79,0.39,1.19,0.9,1.19,1.53
			c0,0.49-0.18,0.88-0.55,1.18s-0.78,0.45-1.24,0.45c-0.33,0-0.7-0.06-1.13-0.18c-0.13-0.04-0.23-0.06-0.32-0.06
			c-0.09,0-0.16,0.05-0.21,0.15h-0.19V47.8h0.19c0.11,0.55,0.32,0.96,0.63,1.24s0.65,0.42,1.04,0.42c0.27,0,0.49-0.08,0.66-0.24
			s0.25-0.35,0.25-0.57c0-0.27-0.09-0.5-0.28-0.68s-0.57-0.42-1.13-0.7s-0.94-0.54-1.11-0.76c-0.18-0.22-0.26-0.5-0.26-0.84
			c0-0.44,0.15-0.81,0.45-1.11s0.69-0.45,1.17-0.45c0.21,0,0.47,0.04,0.77,0.13c0.2,0.06,0.33,0.09,0.4,0.09
			c0.06,0,0.11-0.01,0.15-0.04s0.08-0.09,0.12-0.18H150.16z"/>
		<path d="M153.99,44.11c0.81,0,1.46,0.31,1.96,0.93c0.42,0.53,0.63,1.13,0.63,1.82c0,0.48-0.12,0.97-0.35,1.46
			s-0.55,0.86-0.95,1.11s-0.85,0.38-1.35,0.38c-0.81,0-1.45-0.32-1.93-0.97c-0.4-0.54-0.6-1.15-0.6-1.83c0-0.49,0.12-0.98,0.37-1.47
			s0.57-0.85,0.96-1.08S153.54,44.11,153.99,44.11z M153.8,44.49c-0.21,0-0.42,0.06-0.62,0.18s-0.38,0.34-0.51,0.65
			s-0.19,0.71-0.19,1.19c0,0.78,0.16,1.46,0.47,2.02s0.72,0.85,1.23,0.85c0.38,0,0.69-0.16,0.94-0.47s0.37-0.85,0.37-1.61
			c0-0.95-0.21-1.7-0.62-2.25C154.59,44.68,154.23,44.49,153.8,44.49z"/>
		<path d="M156.97,44.8l1.65-0.67h0.22v1.25c0.28-0.47,0.56-0.8,0.83-0.99s0.57-0.28,0.88-0.28c0.54,0,0.99,0.21,1.35,0.63
			c0.44,0.52,0.66,1.19,0.66,2.02c0,0.93-0.27,1.69-0.8,2.3c-0.44,0.5-0.99,0.74-1.65,0.74c-0.29,0-0.54-0.04-0.75-0.12
			c-0.16-0.06-0.33-0.18-0.53-0.35v1.63c0,0.37,0.02,0.6,0.07,0.7s0.12,0.18,0.23,0.24s0.31,0.09,0.61,0.09v0.22h-2.81v-0.22h0.15
			c0.21,0,0.4-0.04,0.55-0.12c0.07-0.04,0.13-0.11,0.17-0.21s0.06-0.34,0.06-0.73v-5.07c0-0.35-0.02-0.57-0.05-0.66
			s-0.08-0.16-0.15-0.21s-0.16-0.07-0.28-0.07c-0.09,0-0.21,0.03-0.36,0.08L156.97,44.8z M158.85,45.73v2
			c0,0.43,0.02,0.72,0.05,0.86c0.05,0.23,0.19,0.43,0.4,0.6s0.48,0.26,0.81,0.26c0.39,0,0.71-0.15,0.95-0.46
			c0.32-0.4,0.47-0.96,0.47-1.68c0-0.82-0.18-1.45-0.54-1.89c-0.25-0.3-0.55-0.46-0.89-0.46c-0.19,0-0.37,0.05-0.56,0.14
			C159.41,45.17,159.17,45.38,158.85,45.73z"/>
		<path d="M164.94,41.3v3.93c0.43-0.48,0.78-0.78,1.03-0.92s0.51-0.2,0.76-0.2c0.3,0,0.57,0.08,0.79,0.25s0.38,0.43,0.49,0.79
			c0.07,0.25,0.11,0.71,0.11,1.37v1.9c0,0.34,0.03,0.57,0.08,0.7c0.04,0.09,0.11,0.17,0.2,0.22s0.27,0.08,0.52,0.08v0.21h-2.64
			v-0.21h0.12c0.25,0,0.42-0.04,0.52-0.11s0.17-0.19,0.21-0.34c0.01-0.06,0.02-0.25,0.02-0.55v-1.9c0-0.59-0.03-0.97-0.09-1.15
			s-0.16-0.32-0.29-0.41s-0.29-0.14-0.48-0.14c-0.19,0-0.39,0.05-0.6,0.15s-0.46,0.31-0.74,0.62v2.84c0,0.37,0.02,0.6,0.06,0.69
			s0.12,0.17,0.23,0.23s0.3,0.09,0.58,0.09v0.21h-2.66v-0.21c0.24,0,0.43-0.04,0.56-0.11c0.08-0.04,0.14-0.11,0.19-0.22
			s0.07-0.33,0.07-0.67v-4.86c0-0.61-0.01-0.99-0.04-1.13s-0.07-0.24-0.13-0.29s-0.14-0.08-0.24-0.08c-0.08,0-0.21,0.03-0.4,0.09
			l-0.08-0.21l1.61-0.66H164.94z"/>
		<path d="M169.06,44.27h2.5v0.22h-0.12c-0.18,0-0.31,0.04-0.4,0.11s-0.13,0.17-0.13,0.28c0,0.15,0.06,0.36,0.19,0.63l1.31,2.71
			l1.2-2.96c0.07-0.16,0.1-0.32,0.1-0.47c0-0.07-0.01-0.12-0.04-0.16c-0.03-0.04-0.08-0.08-0.15-0.1s-0.18-0.04-0.35-0.04v-0.22
			h1.75v0.22c-0.14,0.02-0.26,0.05-0.33,0.09s-0.16,0.13-0.26,0.26c-0.04,0.05-0.1,0.21-0.2,0.45l-2.19,5.36
			c-0.21,0.52-0.49,0.91-0.83,1.18s-0.67,0.4-0.99,0.4c-0.23,0-0.42-0.07-0.57-0.2s-0.22-0.29-0.22-0.46c0-0.16,0.05-0.3,0.16-0.4
			s0.25-0.15,0.44-0.15c0.13,0,0.3,0.04,0.53,0.13c0.16,0.06,0.25,0.09,0.29,0.09c0.12,0,0.25-0.06,0.38-0.18s0.28-0.36,0.42-0.7
			l0.38-0.93l-1.93-4.05c-0.06-0.12-0.15-0.27-0.28-0.45c-0.1-0.14-0.18-0.23-0.24-0.28c-0.09-0.06-0.23-0.12-0.43-0.16V44.27z"/>
		<path d="M185.92,47.6c-0.14,0.71-0.43,1.25-0.85,1.63s-0.89,0.57-1.4,0.57c-0.61,0-1.14-0.26-1.59-0.77s-0.68-1.2-0.68-2.07
			c0-0.84,0.25-1.53,0.75-2.06s1.1-0.79,1.81-0.79c0.53,0,0.96,0.14,1.3,0.42s0.51,0.57,0.51,0.87c0,0.15-0.05,0.27-0.14,0.36
			s-0.23,0.14-0.4,0.14c-0.23,0-0.4-0.07-0.52-0.22c-0.07-0.08-0.11-0.24-0.13-0.47s-0.1-0.41-0.24-0.53
			c-0.14-0.12-0.33-0.18-0.57-0.18c-0.39,0-0.71,0.14-0.94,0.43c-0.32,0.38-0.47,0.89-0.47,1.52c0,0.64,0.16,1.21,0.47,1.7
			s0.74,0.74,1.27,0.74c0.38,0,0.73-0.13,1.03-0.39c0.21-0.18,0.42-0.51,0.63-0.98L185.92,47.6z"/>
		<path d="M189.31,44.11c0.81,0,1.46,0.31,1.96,0.93c0.42,0.53,0.63,1.13,0.63,1.82c0,0.48-0.12,0.97-0.35,1.46
			s-0.55,0.86-0.95,1.11s-0.85,0.38-1.35,0.38c-0.81,0-1.45-0.32-1.93-0.97c-0.4-0.54-0.6-1.15-0.6-1.83c0-0.49,0.12-0.98,0.37-1.47
			s0.57-0.85,0.96-1.08S188.87,44.11,189.31,44.11z M189.13,44.49c-0.21,0-0.42,0.06-0.62,0.18s-0.38,0.34-0.51,0.65
			s-0.19,0.71-0.19,1.19c0,0.78,0.16,1.46,0.47,2.02s0.72,0.85,1.23,0.85c0.38,0,0.69-0.16,0.94-0.47s0.37-0.85,0.37-1.61
			c0-0.95-0.21-1.7-0.62-2.25C189.91,44.68,189.56,44.49,189.13,44.49z"/>
		<path d="M194.53,41.3v7.12c0,0.34,0.02,0.56,0.07,0.67s0.12,0.19,0.23,0.25s0.29,0.08,0.57,0.08v0.21h-2.63v-0.21
			c0.25,0,0.41-0.03,0.5-0.08s0.16-0.13,0.21-0.25s0.08-0.34,0.08-0.67v-4.88c0-0.61-0.01-0.98-0.04-1.12s-0.07-0.23-0.13-0.28
			s-0.14-0.08-0.23-0.08c-0.1,0-0.23,0.03-0.39,0.09l-0.1-0.21l1.6-0.66H194.53z"/>
		<path d="M197.87,41.3v7.12c0,0.34,0.02,0.56,0.07,0.67s0.12,0.19,0.23,0.25s0.29,0.08,0.57,0.08v0.21h-2.63v-0.21
			c0.25,0,0.41-0.03,0.5-0.08s0.16-0.13,0.21-0.25s0.08-0.34,0.08-0.67v-4.88c0-0.61-0.01-0.98-0.04-1.12s-0.07-0.23-0.13-0.28
			s-0.14-0.08-0.23-0.08c-0.1,0-0.23,0.03-0.39,0.09l-0.1-0.21l1.6-0.66H197.87z"/>
		<path d="M200.26,46.29c0,0.8,0.19,1.42,0.58,1.88s0.85,0.68,1.38,0.68c0.35,0,0.66-0.1,0.92-0.29s0.48-0.52,0.65-0.99l0.18,0.12
			c-0.08,0.54-0.32,1.02-0.71,1.46s-0.89,0.66-1.48,0.66c-0.64,0-1.2-0.25-1.66-0.75s-0.69-1.18-0.69-2.02
			c0-0.92,0.24-1.63,0.71-2.15s1.06-0.77,1.77-0.77c0.6,0,1.1,0.2,1.48,0.59s0.58,0.93,0.58,1.59H200.26z M200.26,45.95h2.48
			c-0.02-0.34-0.06-0.59-0.12-0.73c-0.1-0.22-0.24-0.39-0.44-0.52s-0.4-0.19-0.61-0.19c-0.32,0-0.61,0.13-0.87,0.38
			S200.3,45.5,200.26,45.95z"/>
		<path d="M209.24,47.6c-0.14,0.71-0.43,1.25-0.85,1.63s-0.89,0.57-1.4,0.57c-0.61,0-1.14-0.26-1.59-0.77s-0.68-1.2-0.68-2.07
			c0-0.84,0.25-1.53,0.75-2.06s1.1-0.79,1.81-0.79c0.53,0,0.96,0.14,1.3,0.42s0.51,0.57,0.51,0.87c0,0.15-0.05,0.27-0.14,0.36
			s-0.23,0.14-0.4,0.14c-0.23,0-0.4-0.07-0.52-0.22c-0.07-0.08-0.11-0.24-0.13-0.47s-0.1-0.41-0.24-0.53
			c-0.14-0.12-0.33-0.18-0.57-0.18c-0.39,0-0.71,0.14-0.94,0.43c-0.32,0.38-0.47,0.89-0.47,1.52c0,0.64,0.16,1.21,0.47,1.7
			s0.74,0.74,1.27,0.74c0.38,0,0.73-0.13,1.03-0.39c0.21-0.18,0.42-0.51,0.63-0.98L209.24,47.6z"/>
		<path d="M211.57,42.5v1.76h1.25v0.41h-1.25v3.48c0,0.35,0.05,0.58,0.15,0.7s0.23,0.18,0.38,0.18c0.13,0,0.25-0.04,0.38-0.12
			s0.21-0.2,0.28-0.35h0.23c-0.14,0.38-0.33,0.67-0.58,0.86s-0.51,0.29-0.77,0.29c-0.18,0-0.36-0.05-0.53-0.15s-0.3-0.24-0.38-0.43
			s-0.12-0.47-0.12-0.86v-3.61h-0.85v-0.19c0.21-0.09,0.43-0.23,0.66-0.44s0.42-0.45,0.6-0.73c0.09-0.15,0.21-0.42,0.38-0.81H211.57
			z"/>
		<path d="M215.19,44.11v4.31c0,0.34,0.02,0.56,0.07,0.67s0.12,0.19,0.22,0.25s0.27,0.08,0.52,0.08v0.21h-2.61v-0.21
			c0.26,0,0.44-0.03,0.53-0.08s0.16-0.13,0.21-0.25s0.08-0.34,0.08-0.67v-2.07c0-0.58-0.02-0.96-0.05-1.13
			c-0.03-0.13-0.07-0.21-0.13-0.26s-0.14-0.07-0.24-0.07c-0.11,0-0.24,0.03-0.4,0.09l-0.08-0.21l1.62-0.66H215.19z M214.71,41.3
			c0.16,0,0.3,0.06,0.42,0.17s0.17,0.25,0.17,0.42s-0.06,0.3-0.17,0.42s-0.25,0.18-0.42,0.18s-0.3-0.06-0.42-0.18
			s-0.18-0.26-0.18-0.42s0.06-0.3,0.17-0.42S214.54,41.3,214.71,41.3z"/>
		<path d="M216.4,44.27h2.53v0.22h-0.16c-0.15,0-0.27,0.04-0.35,0.11s-0.12,0.17-0.12,0.3c0,0.14,0.04,0.3,0.12,0.49l1.25,2.96
			l1.25-3.08c0.09-0.22,0.13-0.38,0.13-0.5c0-0.05-0.02-0.1-0.05-0.13c-0.04-0.06-0.1-0.1-0.16-0.12s-0.2-0.03-0.4-0.03v-0.22h1.75
			v0.22c-0.2,0.02-0.34,0.06-0.42,0.12c-0.14,0.12-0.26,0.31-0.37,0.59l-1.9,4.61h-0.24l-1.92-4.53c-0.09-0.21-0.17-0.36-0.25-0.45
			s-0.18-0.17-0.3-0.23c-0.07-0.04-0.2-0.07-0.39-0.1V44.27z"/>
		<path d="M223.58,46.29c0,0.8,0.19,1.42,0.58,1.88s0.85,0.68,1.38,0.68c0.35,0,0.66-0.1,0.92-0.29s0.48-0.52,0.65-0.99l0.18,0.12
			c-0.08,0.54-0.32,1.02-0.71,1.46s-0.89,0.66-1.48,0.66c-0.64,0-1.2-0.25-1.66-0.75s-0.69-1.18-0.69-2.02
			c0-0.92,0.24-1.63,0.71-2.15s1.06-0.77,1.77-0.77c0.6,0,1.1,0.2,1.48,0.59s0.58,0.93,0.58,1.59H223.58z M223.58,45.95h2.48
			c-0.02-0.34-0.06-0.59-0.12-0.73c-0.1-0.22-0.24-0.39-0.44-0.52s-0.4-0.19-0.61-0.19c-0.32,0-0.61,0.13-0.87,0.38
			S223.62,45.5,223.58,45.95z"/>
		<path d="M238.56,47.6c-0.14,0.71-0.43,1.25-0.85,1.63s-0.89,0.57-1.4,0.57c-0.61,0-1.14-0.26-1.59-0.77s-0.68-1.2-0.68-2.07
			c0-0.84,0.25-1.53,0.75-2.06s1.1-0.79,1.81-0.79c0.53,0,0.96,0.14,1.3,0.42s0.51,0.57,0.51,0.87c0,0.15-0.05,0.27-0.14,0.36
			s-0.23,0.14-0.4,0.14c-0.23,0-0.4-0.07-0.52-0.22c-0.07-0.08-0.11-0.24-0.13-0.47s-0.1-0.41-0.24-0.53
			c-0.14-0.12-0.33-0.18-0.57-0.18c-0.39,0-0.71,0.14-0.94,0.43c-0.32,0.38-0.47,0.89-0.47,1.52c0,0.64,0.16,1.21,0.47,1.7
			s0.74,0.74,1.27,0.74c0.38,0,0.73-0.13,1.03-0.39c0.21-0.18,0.42-0.51,0.63-0.98L238.56,47.6z"/>
		<path d="M240.9,44.11v1.21c0.45-0.8,0.91-1.21,1.38-1.21c0.21,0,0.39,0.07,0.53,0.2s0.21,0.28,0.21,0.45
			c0,0.15-0.05,0.28-0.15,0.39s-0.22,0.16-0.36,0.16c-0.14,0-0.29-0.07-0.46-0.2s-0.3-0.2-0.38-0.2c-0.07,0-0.15,0.04-0.23,0.12
			c-0.18,0.16-0.36,0.42-0.54,0.79v2.57c0,0.3,0.04,0.52,0.11,0.67c0.05,0.11,0.14,0.19,0.27,0.26s0.31,0.11,0.56,0.11v0.21h-2.75
			v-0.21c0.27,0,0.48-0.04,0.61-0.13c0.1-0.06,0.17-0.16,0.21-0.3c0.02-0.07,0.03-0.26,0.03-0.57v-2.08c0-0.63-0.01-1-0.04-1.12
			s-0.07-0.21-0.14-0.26s-0.15-0.08-0.25-0.08c-0.12,0-0.26,0.03-0.41,0.09l-0.06-0.21l1.62-0.66H240.9z"/>
		<path d="M245.17,44.11v4.31c0,0.34,0.02,0.56,0.07,0.67s0.12,0.19,0.22,0.25s0.27,0.08,0.52,0.08v0.21h-2.61v-0.21
			c0.26,0,0.44-0.03,0.53-0.08s0.16-0.13,0.21-0.25s0.08-0.34,0.08-0.67v-2.07c0-0.58-0.02-0.96-0.05-1.13
			c-0.03-0.13-0.07-0.21-0.13-0.26s-0.14-0.07-0.24-0.07c-0.11,0-0.24,0.03-0.4,0.09l-0.08-0.21l1.62-0.66H245.17z M244.69,41.3
			c0.16,0,0.3,0.06,0.42,0.17s0.17,0.25,0.17,0.42s-0.06,0.3-0.17,0.42s-0.25,0.18-0.42,0.18s-0.3-0.06-0.42-0.18
			s-0.18-0.26-0.18-0.42s0.06-0.3,0.17-0.42S244.52,41.3,244.69,41.3z"/>
		<path d="M248.22,42.5v1.76h1.25v0.41h-1.25v3.48c0,0.35,0.05,0.58,0.15,0.7s0.23,0.18,0.38,0.18c0.13,0,0.25-0.04,0.38-0.12
			s0.21-0.2,0.28-0.35h0.23c-0.14,0.38-0.33,0.67-0.58,0.86s-0.51,0.29-0.77,0.29c-0.18,0-0.36-0.05-0.53-0.15s-0.3-0.24-0.38-0.43
			s-0.12-0.47-0.12-0.86v-3.61h-0.85v-0.19c0.21-0.09,0.43-0.23,0.66-0.44s0.42-0.45,0.6-0.73c0.09-0.15,0.21-0.42,0.38-0.81H248.22
			z"/>
		<path d="M251.84,44.11v4.31c0,0.34,0.02,0.56,0.07,0.67s0.12,0.19,0.22,0.25s0.27,0.08,0.52,0.08v0.21h-2.61v-0.21
			c0.26,0,0.44-0.03,0.53-0.08s0.16-0.13,0.21-0.25s0.08-0.34,0.08-0.67v-2.07c0-0.58-0.02-0.96-0.05-1.13
			c-0.03-0.13-0.07-0.21-0.13-0.26s-0.14-0.07-0.24-0.07c-0.11,0-0.24,0.03-0.4,0.09l-0.08-0.21l1.62-0.66H251.84z M251.36,41.3
			c0.16,0,0.3,0.06,0.42,0.17s0.17,0.25,0.17,0.42s-0.06,0.3-0.17,0.42s-0.25,0.18-0.42,0.18s-0.3-0.06-0.42-0.18
			s-0.18-0.26-0.18-0.42s0.06-0.3,0.17-0.42S251.19,41.3,251.36,41.3z"/>
		<path d="M258.08,44.11v6.9c0,0.34,0.02,0.56,0.07,0.66s0.12,0.17,0.22,0.23s0.29,0.08,0.58,0.08v0.22h-2.71v-0.22h0.11
			c0.22,0,0.38-0.03,0.5-0.09c0.08-0.04,0.14-0.12,0.19-0.23s0.07-0.33,0.07-0.65V48.7c-0.36,0.42-0.67,0.71-0.93,0.86
			s-0.54,0.23-0.83,0.23c-0.52,0-0.98-0.24-1.39-0.71s-0.61-1.11-0.61-1.9c0-0.91,0.27-1.65,0.81-2.22s1.19-0.86,1.95-0.86
			c0.22,0,0.43,0.03,0.62,0.09s0.36,0.16,0.5,0.28c0.23-0.11,0.44-0.23,0.65-0.38H258.08z M257.11,48.33v-2.52
			c0-0.29-0.04-0.52-0.11-0.69s-0.21-0.31-0.41-0.43s-0.42-0.18-0.66-0.18c-0.44,0-0.81,0.19-1.13,0.56s-0.47,0.93-0.47,1.69
			c0,0.72,0.16,1.27,0.48,1.65s0.7,0.56,1.15,0.56c0.23,0,0.44-0.05,0.62-0.15S256.93,48.56,257.11,48.33z"/>
		<path d="M264.03,44.27v3.25c0,0.62,0.01,1,0.04,1.14s0.08,0.24,0.14,0.29s0.14,0.08,0.23,0.08c0.12,0,0.26-0.03,0.41-0.1
			l0.08,0.21l-1.61,0.66h-0.26v-1.14c-0.46,0.5-0.81,0.81-1.05,0.94s-0.5,0.19-0.77,0.19c-0.3,0-0.56-0.09-0.78-0.26
			s-0.37-0.4-0.46-0.67s-0.13-0.66-0.13-1.16v-2.4c0-0.25-0.03-0.43-0.08-0.53s-0.14-0.17-0.24-0.23s-0.3-0.08-0.58-0.07v-0.22h1.88
			v3.59c0,0.5,0.09,0.83,0.26,0.98s0.38,0.23,0.63,0.23c0.17,0,0.36-0.05,0.57-0.16s0.47-0.31,0.76-0.6v-3.04
			c0-0.3-0.06-0.51-0.17-0.62s-0.34-0.17-0.69-0.17v-0.22H264.03z"/>
		<path d="M266.23,46.29c0,0.8,0.19,1.42,0.58,1.88s0.85,0.68,1.38,0.68c0.35,0,0.66-0.1,0.92-0.29s0.48-0.52,0.65-0.99l0.18,0.12
			c-0.08,0.54-0.32,1.02-0.71,1.46s-0.89,0.66-1.48,0.66c-0.64,0-1.2-0.25-1.66-0.75s-0.69-1.18-0.69-2.02
			c0-0.92,0.24-1.63,0.71-2.15s1.06-0.77,1.77-0.77c0.6,0,1.1,0.2,1.48,0.59s0.58,0.93,0.58,1.59H266.23z M266.23,45.95h2.48
			c-0.02-0.34-0.06-0.59-0.12-0.73c-0.1-0.22-0.24-0.39-0.44-0.52s-0.4-0.19-0.61-0.19c-0.32,0-0.61,0.13-0.87,0.38
			S266.27,45.5,266.23,45.95z"/>
	</g>
	<g>
		<path d="M6.44,5.09v0.28C6.04,5.58,5.75,5.8,5.58,6.03S5.32,6.51,5.32,6.77c0,0.16,0.02,0.27,0.07,0.33
			c0.04,0.06,0.09,0.1,0.15,0.1s0.14-0.02,0.24-0.05S5.97,7.1,6.05,7.1c0.19,0,0.35,0.07,0.49,0.21s0.21,0.31,0.21,0.51
			c0,0.22-0.08,0.41-0.25,0.56S6.12,8.61,5.87,8.61c-0.31,0-0.58-0.13-0.83-0.4S4.67,7.63,4.67,7.24c0-0.46,0.15-0.88,0.45-1.27
			S5.87,5.28,6.44,5.09z M9.7,5.11v0.26c-0.46,0.26-0.76,0.5-0.91,0.71S8.57,6.54,8.57,6.82c0,0.13,0.02,0.22,0.08,0.29
			s0.1,0.1,0.16,0.1c0.05,0,0.13-0.02,0.23-0.05s0.2-0.05,0.3-0.05c0.19,0,0.35,0.07,0.49,0.2s0.21,0.3,0.21,0.5
			c0,0.22-0.09,0.42-0.26,0.58S9.38,8.62,9.12,8.62c-0.3,0-0.57-0.13-0.81-0.39S7.95,7.65,7.95,7.26c0-0.48,0.15-0.92,0.46-1.31
			S9.14,5.28,9.7,5.11z"/>
		<path d="M19.02,5.09l0.24,2.93h-0.24c-0.24-0.73-0.55-1.28-0.94-1.65c-0.55-0.53-1.26-0.8-2.13-0.8c-1.18,0-2.08,0.47-2.69,1.4
			c-0.52,0.79-0.77,1.73-0.77,2.82c0,0.88,0.17,1.69,0.51,2.42s0.79,1.26,1.34,1.6s1.12,0.51,1.71,0.51c0.34,0,0.67-0.04,0.99-0.13
			s0.63-0.21,0.92-0.38v-2.68c0-0.46-0.04-0.77-0.11-0.91s-0.18-0.25-0.33-0.33s-0.41-0.11-0.78-0.11V9.52h3.59v0.26h-0.17
			c-0.36,0-0.6,0.12-0.73,0.36c-0.09,0.17-0.14,0.5-0.14,1v2.84c-0.52,0.28-1.04,0.49-1.55,0.62s-1.08,0.2-1.7,0.2
			c-1.79,0-3.15-0.57-4.08-1.72c-0.7-0.86-1.05-1.85-1.05-2.98c0-0.82,0.2-1.6,0.59-2.34c0.46-0.89,1.1-1.57,1.91-2.05
			c0.68-0.4,1.48-0.59,2.41-0.59c0.34,0,0.64,0.03,0.92,0.08s0.67,0.18,1.17,0.36c0.26,0.1,0.43,0.14,0.51,0.14s0.16-0.04,0.22-0.12
			s0.1-0.24,0.11-0.47H19.02z"/>
		<path d="M22.81,8.13v1.41c0.52-0.94,1.06-1.41,1.61-1.41c0.25,0,0.46,0.08,0.62,0.23s0.25,0.33,0.25,0.53
			c0,0.18-0.06,0.33-0.18,0.45s-0.26,0.18-0.42,0.18c-0.16,0-0.34-0.08-0.54-0.24s-0.35-0.24-0.44-0.24c-0.08,0-0.17,0.05-0.27,0.14
			c-0.21,0.19-0.42,0.49-0.64,0.92v3c0,0.35,0.04,0.61,0.13,0.79c0.06,0.12,0.16,0.23,0.31,0.31s0.37,0.12,0.65,0.12v0.25h-3.21
			v-0.25c0.32,0,0.56-0.05,0.71-0.15c0.11-0.07,0.19-0.19,0.24-0.35c0.02-0.08,0.03-0.3,0.03-0.66v-2.43c0-0.73-0.01-1.16-0.04-1.3
			s-0.08-0.24-0.16-0.3s-0.18-0.1-0.3-0.1c-0.14,0-0.3,0.03-0.48,0.1l-0.07-0.25l1.89-0.77H22.81z"/>
		<path d="M29.18,13.67c-0.64,0.5-1.05,0.78-1.21,0.86c-0.25,0.11-0.51,0.17-0.79,0.17c-0.43,0-0.79-0.15-1.07-0.44
			s-0.42-0.69-0.42-1.17c0-0.31,0.07-0.57,0.21-0.79c0.19-0.31,0.51-0.6,0.97-0.88s1.23-0.61,2.31-1v-0.25c0-0.62-0.1-1.05-0.3-1.29
			s-0.49-0.35-0.86-0.35c-0.29,0-0.52,0.08-0.68,0.23c-0.17,0.15-0.26,0.33-0.26,0.53l0.01,0.4c0,0.21-0.05,0.37-0.16,0.49
			s-0.25,0.17-0.42,0.17c-0.17,0-0.31-0.06-0.41-0.18s-0.16-0.28-0.16-0.49c0-0.39,0.2-0.75,0.6-1.08s0.96-0.49,1.69-0.49
			c0.56,0,1.01,0.09,1.37,0.28c0.27,0.14,0.47,0.36,0.59,0.66c0.08,0.2,0.12,0.6,0.12,1.2v2.13c0,0.6,0.01,0.96,0.03,1.1
			s0.06,0.22,0.11,0.27s0.11,0.07,0.18,0.07c0.07,0,0.14-0.02,0.19-0.05c0.1-0.06,0.28-0.23,0.55-0.5v0.38
			c-0.51,0.68-1,1.03-1.46,1.03c-0.22,0-0.4-0.08-0.53-0.23S29.19,14.05,29.18,13.67z M29.18,13.23v-2.39
			c-0.69,0.27-1.13,0.47-1.33,0.58c-0.36,0.2-0.62,0.41-0.77,0.63s-0.23,0.46-0.23,0.72c0,0.33,0.1,0.6,0.29,0.82
			s0.42,0.32,0.68,0.32C28.16,13.91,28.62,13.68,29.18,13.23z"/>
		<path d="M36.27,13.87c-0.31,0.32-0.6,0.55-0.9,0.69s-0.61,0.21-0.94,0.21c-0.68,0-1.28-0.29-1.79-0.86s-0.77-1.31-0.77-2.2
			s0.28-1.72,0.85-2.46s1.29-1.12,2.18-1.12c0.55,0,1.01,0.18,1.37,0.53V7.49c0-0.72-0.02-1.16-0.05-1.32s-0.09-0.28-0.16-0.33
			s-0.16-0.09-0.27-0.09c-0.12,0-0.28,0.04-0.47,0.11l-0.09-0.24l1.87-0.77h0.31v7.24c0,0.73,0.02,1.18,0.05,1.34
			s0.09,0.27,0.16,0.34s0.16,0.1,0.26,0.1c0.12,0,0.29-0.04,0.49-0.12l0.08,0.24l-1.86,0.77h-0.31V13.87z M36.27,13.39v-3.23
			c-0.03-0.31-0.11-0.59-0.25-0.85s-0.32-0.45-0.54-0.58s-0.45-0.19-0.66-0.19c-0.4,0-0.76,0.18-1.07,0.54
			c-0.41,0.47-0.62,1.17-0.62,2.08c0,0.92,0.2,1.63,0.6,2.12s0.85,0.73,1.34,0.73C35.48,14.01,35.89,13.81,36.27,13.39z"/>
		<path d="M39.9,10.67c0,0.93,0.22,1.66,0.68,2.19s0.99,0.79,1.61,0.79c0.41,0,0.77-0.11,1.07-0.34s0.56-0.61,0.76-1.16l0.21,0.14
			c-0.1,0.62-0.37,1.19-0.83,1.71s-1.04,0.77-1.73,0.77c-0.75,0-1.4-0.29-1.93-0.88s-0.8-1.37-0.8-2.36c0-1.07,0.27-1.91,0.82-2.51
			s1.24-0.9,2.07-0.9c0.7,0,1.28,0.23,1.73,0.69s0.68,1.08,0.68,1.86H39.9z M39.9,10.27h2.9c-0.02-0.4-0.07-0.68-0.14-0.85
			c-0.11-0.26-0.28-0.46-0.51-0.6s-0.46-0.22-0.71-0.22c-0.38,0-0.72,0.15-1.02,0.44S39.95,9.75,39.9,10.27z"/>
		<path d="M49.49,13.87c-0.31,0.32-0.6,0.55-0.9,0.69s-0.61,0.21-0.94,0.21c-0.68,0-1.28-0.29-1.79-0.86s-0.77-1.31-0.77-2.2
			s0.28-1.72,0.85-2.46s1.29-1.12,2.18-1.12c0.55,0,1.01,0.18,1.37,0.53V7.49c0-0.72-0.02-1.16-0.05-1.32s-0.09-0.28-0.16-0.33
			S49.11,5.75,49,5.75c-0.12,0-0.28,0.04-0.47,0.11l-0.09-0.24l1.87-0.77h0.31v7.24c0,0.73,0.02,1.18,0.05,1.34s0.09,0.27,0.16,0.34
			s0.16,0.1,0.26,0.1c0.12,0,0.29-0.04,0.49-0.12l0.08,0.24l-1.86,0.77h-0.31V13.87z M49.49,13.39v-3.23
			c-0.03-0.31-0.11-0.59-0.25-0.85s-0.32-0.45-0.54-0.58s-0.45-0.19-0.66-0.19c-0.4,0-0.76,0.18-1.07,0.54
			c-0.41,0.47-0.62,1.17-0.62,2.08c0,0.92,0.2,1.63,0.6,2.12s0.85,0.73,1.34,0.73C48.7,14.01,49.1,13.81,49.49,13.39z"/>
		<path d="M59.45,14.32v0.25h-3.97v-0.25h0.33c0.38,0,0.66-0.11,0.83-0.33c0.11-0.15,0.16-0.5,0.16-1.05V6.95
			c0-0.47-0.03-0.78-0.09-0.93c-0.05-0.11-0.14-0.21-0.28-0.29c-0.2-0.11-0.41-0.16-0.63-0.16h-0.33V5.31h3.97v0.25h-0.33
			c-0.38,0-0.65,0.11-0.83,0.33c-0.11,0.15-0.17,0.5-0.17,1.05v5.99c0,0.47,0.03,0.78,0.09,0.93c0.05,0.11,0.14,0.21,0.29,0.29
			c0.2,0.11,0.4,0.16,0.62,0.16H59.45z"/>
		<path d="M62.05,9.45c0.73-0.88,1.43-1.33,2.1-1.33c0.34,0,0.64,0.09,0.88,0.26s0.44,0.45,0.59,0.84c0.1,0.27,0.15,0.69,0.15,1.26
			v2.67c0,0.4,0.03,0.67,0.1,0.81c0.05,0.11,0.13,0.2,0.24,0.27s0.32,0.1,0.62,0.1v0.25h-3.1v-0.25h0.13c0.29,0,0.5-0.04,0.61-0.13
			s0.2-0.22,0.24-0.39c0.02-0.07,0.03-0.28,0.03-0.64V10.6c0-0.57-0.07-0.98-0.22-1.24s-0.4-0.39-0.75-0.39
			c-0.54,0-1.08,0.3-1.62,0.89v3.3c0,0.42,0.02,0.69,0.08,0.79c0.06,0.13,0.15,0.23,0.26,0.29s0.34,0.09,0.68,0.09v0.25h-3.1v-0.25
			h0.14c0.32,0,0.53-0.08,0.65-0.24s0.17-0.47,0.17-0.93v-2.32c0-0.75-0.02-1.21-0.05-1.37s-0.09-0.28-0.16-0.33
			s-0.17-0.09-0.28-0.09c-0.13,0-0.28,0.03-0.46,0.1l-0.1-0.25l1.89-0.77h0.29V9.45z"/>
		<path d="M69.04,6.26v2.06h1.46v0.48h-1.46v4.06c0,0.41,0.06,0.68,0.17,0.82s0.27,0.21,0.45,0.21c0.15,0,0.3-0.05,0.44-0.14
			s0.25-0.23,0.33-0.41h0.27c-0.16,0.45-0.39,0.78-0.68,1.01s-0.59,0.34-0.9,0.34c-0.21,0-0.41-0.06-0.62-0.17s-0.35-0.28-0.44-0.5
			s-0.14-0.55-0.14-1V8.79h-0.99V8.57c0.25-0.1,0.51-0.27,0.77-0.51s0.5-0.52,0.7-0.85c0.1-0.17,0.25-0.49,0.44-0.95H69.04z"/>
		<path d="M72.17,10.67c0,0.93,0.22,1.66,0.68,2.19s0.99,0.79,1.61,0.79c0.41,0,0.77-0.11,1.07-0.34s0.56-0.61,0.76-1.16l0.21,0.14
			c-0.1,0.62-0.37,1.19-0.83,1.71s-1.04,0.77-1.73,0.77c-0.75,0-1.4-0.29-1.93-0.88s-0.8-1.37-0.8-2.36c0-1.07,0.27-1.91,0.82-2.51
			s1.24-0.9,2.07-0.9c0.7,0,1.28,0.23,1.73,0.69s0.68,1.08,0.68,1.86H72.17z M72.17,10.27h2.9c-0.02-0.4-0.07-0.68-0.14-0.85
			c-0.11-0.26-0.28-0.46-0.51-0.6s-0.46-0.22-0.71-0.22c-0.38,0-0.72,0.15-1.02,0.44S72.22,9.75,72.17,10.27z"/>
		<path d="M79.16,8.13v1.41c0.52-0.94,1.06-1.41,1.61-1.41c0.25,0,0.46,0.08,0.62,0.23s0.25,0.33,0.25,0.53
			c0,0.18-0.06,0.33-0.18,0.45s-0.26,0.18-0.42,0.18c-0.16,0-0.34-0.08-0.54-0.24s-0.35-0.24-0.44-0.24c-0.08,0-0.17,0.05-0.27,0.14
			c-0.21,0.19-0.42,0.49-0.64,0.92v3c0,0.35,0.04,0.61,0.13,0.79c0.06,0.12,0.16,0.23,0.31,0.31s0.37,0.12,0.65,0.12v0.25h-3.21
			v-0.25c0.32,0,0.56-0.05,0.71-0.15c0.11-0.07,0.19-0.19,0.24-0.35c0.02-0.08,0.03-0.3,0.03-0.66v-2.43c0-0.73-0.01-1.16-0.04-1.3
			s-0.08-0.24-0.16-0.3s-0.18-0.1-0.3-0.1c-0.14,0-0.3,0.03-0.48,0.1l-0.07-0.25l1.89-0.77H79.16z"/>
		<path d="M85.54,13.67c-0.64,0.5-1.05,0.78-1.21,0.86c-0.25,0.11-0.51,0.17-0.79,0.17c-0.43,0-0.79-0.15-1.07-0.44
			s-0.42-0.69-0.42-1.17c0-0.31,0.07-0.57,0.21-0.79c0.19-0.31,0.51-0.6,0.97-0.88s1.23-0.61,2.31-1v-0.25c0-0.62-0.1-1.05-0.3-1.29
			s-0.49-0.35-0.86-0.35c-0.29,0-0.52,0.08-0.68,0.23c-0.17,0.15-0.26,0.33-0.26,0.53l0.01,0.4c0,0.21-0.05,0.37-0.16,0.49
			s-0.25,0.17-0.42,0.17c-0.17,0-0.31-0.06-0.41-0.18s-0.16-0.28-0.16-0.49c0-0.39,0.2-0.75,0.6-1.08s0.96-0.49,1.69-0.49
			c0.56,0,1.01,0.09,1.37,0.28c0.27,0.14,0.47,0.36,0.59,0.66c0.08,0.2,0.12,0.6,0.12,1.2v2.13c0,0.6,0.01,0.96,0.03,1.1
			s0.06,0.22,0.11,0.27s0.11,0.07,0.18,0.07c0.07,0,0.14-0.02,0.19-0.05c0.1-0.06,0.28-0.23,0.55-0.5v0.38
			c-0.51,0.68-1,1.03-1.46,1.03c-0.22,0-0.4-0.08-0.53-0.23S85.54,14.05,85.54,13.67z M85.54,13.23v-2.39
			c-0.69,0.27-1.13,0.47-1.33,0.58c-0.36,0.2-0.62,0.41-0.77,0.63s-0.23,0.46-0.23,0.72c0,0.33,0.1,0.6,0.29,0.82
			s0.42,0.32,0.68,0.32C84.52,13.91,84.98,13.68,85.54,13.23z"/>
		<path d="M93.52,12.2c-0.17,0.82-0.5,1.46-0.99,1.9s-1.04,0.67-1.63,0.67c-0.71,0-1.33-0.3-1.86-0.9s-0.79-1.4-0.79-2.42
			c0-0.98,0.29-1.78,0.88-2.4s1.29-0.92,2.11-0.92c0.62,0,1.12,0.16,1.52,0.49s0.59,0.66,0.59,1.02c0,0.17-0.06,0.31-0.17,0.42
			s-0.27,0.16-0.47,0.16c-0.27,0-0.47-0.09-0.61-0.26c-0.08-0.1-0.13-0.28-0.15-0.55s-0.12-0.47-0.28-0.62
			c-0.16-0.14-0.38-0.21-0.66-0.21c-0.46,0-0.82,0.17-1.1,0.51c-0.37,0.45-0.55,1.04-0.55,1.77c0,0.75,0.18,1.41,0.55,1.98
			s0.86,0.86,1.49,0.86c0.45,0,0.85-0.15,1.2-0.46c0.25-0.21,0.49-0.59,0.73-1.14L93.52,12.2z"/>
		<path d="M96.24,6.26v2.06h1.46v0.48h-1.46v4.06c0,0.41,0.06,0.68,0.17,0.82s0.27,0.21,0.45,0.21c0.15,0,0.3-0.05,0.44-0.14
			s0.25-0.23,0.33-0.41h0.27c-0.16,0.45-0.39,0.78-0.68,1.01s-0.59,0.34-0.9,0.34c-0.21,0-0.41-0.06-0.62-0.17s-0.35-0.28-0.44-0.5
			s-0.14-0.55-0.14-1V8.79h-0.99V8.57c0.25-0.1,0.51-0.27,0.77-0.51s0.5-0.52,0.7-0.85c0.1-0.17,0.25-0.49,0.44-0.95H96.24z"/>
		<path d="M100.47,8.13v5.03c0,0.39,0.03,0.65,0.09,0.78s0.14,0.23,0.25,0.29s0.32,0.1,0.61,0.1v0.25h-3.04v-0.25
			c0.31,0,0.51-0.03,0.62-0.09s0.19-0.16,0.25-0.29s0.09-0.4,0.09-0.79v-2.41c0-0.68-0.02-1.12-0.06-1.32
			c-0.03-0.15-0.08-0.25-0.15-0.3s-0.16-0.09-0.28-0.09c-0.13,0-0.28,0.03-0.46,0.1l-0.1-0.25l1.89-0.77H100.47z M99.9,4.85
			c0.19,0,0.35,0.07,0.49,0.2s0.2,0.3,0.2,0.49s-0.07,0.36-0.2,0.49s-0.3,0.21-0.49,0.21s-0.36-0.07-0.49-0.21s-0.21-0.3-0.21-0.49
			s0.07-0.35,0.2-0.49S99.71,4.85,99.9,4.85z"/>
		<path d="M105.26,8.13c0.95,0,1.71,0.36,2.28,1.08c0.49,0.62,0.73,1.32,0.73,2.12c0,0.56-0.13,1.13-0.4,1.7s-0.64,1.01-1.11,1.3
			s-1,0.44-1.58,0.44c-0.94,0-1.69-0.38-2.25-1.13c-0.47-0.63-0.7-1.34-0.7-2.13c0-0.57,0.14-1.15,0.43-1.71s0.66-0.99,1.12-1.26
			S104.74,8.13,105.26,8.13z M105.05,8.57c-0.24,0-0.48,0.07-0.73,0.22s-0.44,0.4-0.59,0.76s-0.23,0.82-0.23,1.39
			c0,0.91,0.18,1.7,0.54,2.36s0.84,0.99,1.43,0.99c0.44,0,0.81-0.18,1.09-0.55s0.43-0.99,0.43-1.88c0-1.11-0.24-1.99-0.72-2.63
			C105.96,8.79,105.55,8.57,105.05,8.57z"/>
		<path d="M111.02,9.45c0.73-0.88,1.43-1.33,2.1-1.33c0.34,0,0.64,0.09,0.88,0.26s0.44,0.45,0.59,0.84c0.1,0.27,0.15,0.69,0.15,1.26
			v2.67c0,0.4,0.03,0.67,0.1,0.81c0.05,0.11,0.13,0.2,0.24,0.27s0.32,0.1,0.62,0.1v0.25h-3.1v-0.25h0.13c0.29,0,0.5-0.04,0.61-0.13
			s0.2-0.22,0.24-0.39c0.02-0.07,0.03-0.28,0.03-0.64V10.6c0-0.57-0.07-0.98-0.22-1.24s-0.4-0.39-0.75-0.39
			c-0.54,0-1.08,0.3-1.62,0.89v3.3c0,0.42,0.02,0.69,0.08,0.79c0.06,0.13,0.15,0.23,0.26,0.29s0.34,0.09,0.68,0.09v0.25h-3.1v-0.25
			h0.14c0.32,0,0.53-0.08,0.65-0.24s0.17-0.47,0.17-0.93v-2.32c0-0.75-0.02-1.21-0.05-1.37s-0.09-0.28-0.16-0.33
			s-0.17-0.09-0.28-0.09c-0.13,0-0.28,0.03-0.46,0.1l-0.1-0.25l1.89-0.77h0.29V9.45z"/>
		<path d="M116.55,8.62V8.33c0.46-0.26,0.76-0.5,0.91-0.71s0.22-0.46,0.22-0.73c0-0.13-0.02-0.22-0.07-0.29
			c-0.05-0.06-0.1-0.1-0.16-0.1c-0.05,0-0.12,0.02-0.22,0.05s-0.2,0.05-0.3,0.05c-0.19,0-0.36-0.07-0.49-0.21s-0.21-0.3-0.21-0.5
			c0-0.22,0.09-0.41,0.26-0.57s0.39-0.25,0.64-0.25c0.3,0,0.57,0.13,0.82,0.39s0.37,0.59,0.37,0.98c0,0.48-0.15,0.92-0.46,1.31
			S117.1,8.46,116.55,8.62z M119.81,8.62V8.33c0.4-0.21,0.68-0.42,0.86-0.65s0.26-0.48,0.26-0.75c0-0.16-0.02-0.27-0.07-0.33
			c-0.05-0.06-0.1-0.09-0.15-0.09c-0.06,0-0.14,0.02-0.24,0.05c-0.1,0.04-0.2,0.05-0.27,0.05c-0.19,0-0.35-0.07-0.49-0.21
			S119.5,6.1,119.5,5.9c0-0.22,0.08-0.41,0.25-0.57s0.38-0.24,0.62-0.24c0.31,0,0.59,0.13,0.83,0.4s0.37,0.59,0.37,0.98
			c0,0.46-0.15,0.88-0.45,1.27S120.38,8.43,119.81,8.62z"/>
		<path d="M127.77,9.46c0.46-0.46,0.72-0.72,0.81-0.79c0.21-0.17,0.43-0.31,0.66-0.4s0.47-0.14,0.7-0.14c0.39,0,0.73,0.11,1.01,0.34
			s0.47,0.56,0.57,0.99c0.47-0.55,0.87-0.91,1.19-1.08s0.66-0.26,1-0.26c0.33,0,0.63,0.09,0.89,0.26s0.46,0.45,0.61,0.84
			c0.1,0.26,0.15,0.68,0.15,1.24v2.69c0,0.39,0.03,0.66,0.09,0.81c0.05,0.1,0.13,0.19,0.25,0.26s0.32,0.11,0.6,0.11v0.25h-3.09
			v-0.25h0.13c0.27,0,0.48-0.05,0.63-0.16c0.1-0.07,0.18-0.19,0.23-0.35c0.02-0.08,0.03-0.3,0.03-0.66v-2.69
			c0-0.51-0.06-0.87-0.18-1.08c-0.18-0.29-0.46-0.44-0.85-0.44c-0.24,0-0.48,0.06-0.73,0.18s-0.54,0.35-0.89,0.67l-0.01,0.08
			l0.01,0.29v2.99c0,0.43,0.02,0.69,0.07,0.8s0.14,0.19,0.27,0.26s0.36,0.11,0.68,0.11v0.25h-3.17v-0.25c0.35,0,0.58-0.04,0.71-0.12
			s0.22-0.21,0.27-0.37c0.02-0.08,0.03-0.3,0.03-0.68v-2.69c0-0.51-0.08-0.88-0.23-1.1c-0.2-0.29-0.48-0.44-0.84-0.44
			c-0.25,0-0.49,0.07-0.73,0.2c-0.38,0.2-0.67,0.43-0.88,0.68v3.36c0,0.41,0.03,0.68,0.09,0.8s0.14,0.22,0.25,0.28
			s0.34,0.09,0.68,0.09v0.25h-3.1v-0.25c0.29,0,0.49-0.03,0.6-0.09s0.2-0.16,0.26-0.29s0.09-0.4,0.09-0.78v-2.39
			c0-0.69-0.02-1.13-0.06-1.33c-0.03-0.15-0.08-0.25-0.15-0.31s-0.16-0.09-0.28-0.09c-0.13,0-0.28,0.03-0.46,0.1l-0.1-0.25
			l1.89-0.77h0.29V9.46z"/>
		<path d="M139.87,8.13c0.95,0,1.71,0.36,2.28,1.08c0.49,0.62,0.73,1.32,0.73,2.12c0,0.56-0.13,1.13-0.4,1.7s-0.64,1.01-1.11,1.3
			s-1,0.44-1.58,0.44c-0.94,0-1.69-0.38-2.25-1.13c-0.47-0.63-0.7-1.34-0.7-2.13c0-0.57,0.14-1.15,0.43-1.71s0.66-0.99,1.12-1.26
			S139.35,8.13,139.87,8.13z M139.65,8.57c-0.24,0-0.48,0.07-0.73,0.22s-0.44,0.4-0.59,0.76s-0.23,0.82-0.23,1.39
			c0,0.91,0.18,1.7,0.54,2.36s0.84,0.99,1.43,0.99c0.44,0,0.81-0.18,1.09-0.55s0.43-0.99,0.43-1.88c0-1.11-0.24-1.99-0.72-2.63
			C140.57,8.79,140.15,8.57,139.65,8.57z"/>
		<path d="M148.23,13.87c-0.31,0.32-0.6,0.55-0.9,0.69s-0.61,0.21-0.94,0.21c-0.68,0-1.28-0.29-1.79-0.86s-0.77-1.31-0.77-2.2
			s0.28-1.72,0.85-2.46s1.29-1.12,2.18-1.12c0.55,0,1.01,0.18,1.37,0.53V7.49c0-0.72-0.02-1.16-0.05-1.32s-0.09-0.28-0.16-0.33
			s-0.16-0.09-0.27-0.09c-0.12,0-0.28,0.04-0.47,0.11l-0.09-0.24l1.87-0.77h0.31v7.24c0,0.73,0.02,1.18,0.05,1.34
			s0.09,0.27,0.16,0.34s0.16,0.1,0.26,0.1c0.12,0,0.29-0.04,0.49-0.12l0.08,0.24l-1.86,0.77h-0.31V13.87z M148.23,13.39v-3.23
			c-0.03-0.31-0.11-0.59-0.25-0.85s-0.32-0.45-0.54-0.58s-0.45-0.19-0.66-0.19c-0.4,0-0.76,0.18-1.07,0.54
			c-0.41,0.47-0.62,1.17-0.62,2.08c0,0.92,0.2,1.63,0.6,2.12s0.85,0.73,1.34,0.73C147.44,14.01,147.84,13.81,148.23,13.39z"/>
		<path d="M151.86,10.67c0,0.93,0.22,1.66,0.68,2.19s0.99,0.79,1.61,0.79c0.41,0,0.77-0.11,1.07-0.34s0.56-0.61,0.76-1.16l0.21,0.14
			c-0.1,0.62-0.37,1.19-0.83,1.71s-1.04,0.77-1.73,0.77c-0.75,0-1.4-0.29-1.93-0.88s-0.8-1.37-0.8-2.36c0-1.07,0.27-1.91,0.82-2.51
			s1.24-0.9,2.07-0.9c0.7,0,1.28,0.23,1.73,0.69s0.68,1.08,0.68,1.86H151.86z M151.86,10.27h2.9c-0.02-0.4-0.07-0.68-0.14-0.85
			c-0.11-0.26-0.28-0.46-0.51-0.6s-0.46-0.22-0.71-0.22c-0.38,0-0.72,0.15-1.02,0.44S151.91,9.75,151.86,10.27z"/>
		<path d="M159.17,4.85v8.31c0,0.39,0.03,0.65,0.09,0.78s0.14,0.22,0.26,0.29s0.34,0.1,0.66,0.1v0.25h-3.07v-0.25
			c0.29,0,0.48-0.03,0.59-0.09s0.19-0.16,0.25-0.29s0.09-0.4,0.09-0.79V7.47c0-0.71-0.02-1.14-0.05-1.3s-0.08-0.27-0.15-0.33
			s-0.16-0.09-0.27-0.09c-0.12,0-0.27,0.04-0.45,0.11L157,5.62l1.87-0.77H159.17z"/>
	</g>
	<g>
		<g>
			<path d="M317.95,132.1c0,0.55-0.07,1.02-0.21,1.43s-0.34,0.75-0.61,1.02s-0.6,0.47-0.99,0.6s-0.86,0.2-1.4,0.2h-1.34
				c-0.07,0-0.15-0.03-0.21-0.08s-0.1-0.14-0.1-0.27v-5.63c0-0.13,0.03-0.22,0.1-0.27s0.14-0.08,0.21-0.08h1.43
				c0.55,0,1.01,0.07,1.39,0.21s0.69,0.35,0.95,0.61s0.45,0.59,0.58,0.96S317.95,131.62,317.95,132.1z M317.07,132.13
				c0-0.34-0.04-0.66-0.13-0.95s-0.22-0.55-0.4-0.76s-0.41-0.38-0.69-0.5s-0.63-0.18-1.07-0.18h-0.85v4.92h0.86
				c0.4,0,0.74-0.05,1.02-0.15s0.51-0.26,0.69-0.46s0.32-0.47,0.42-0.78S317.07,132.56,317.07,132.13z"/>
			<path d="M320.05,129.35c0,0.19-0.04,0.32-0.11,0.39s-0.2,0.1-0.4,0.1c-0.19,0-0.32-0.03-0.39-0.1s-0.1-0.19-0.1-0.38
				c0-0.19,0.04-0.32,0.11-0.39s0.2-0.1,0.4-0.1c0.19,0,0.32,0.03,0.39,0.1S320.05,129.16,320.05,129.35z M319.96,135.23
				c0,0.03-0.01,0.05-0.02,0.07s-0.03,0.03-0.06,0.05s-0.07,0.02-0.12,0.03s-0.12,0.01-0.2,0.01c-0.08,0-0.14,0-0.2-0.01
				s-0.09-0.02-0.12-0.03s-0.05-0.03-0.06-0.05s-0.02-0.04-0.02-0.07v-4.39c0-0.02,0.01-0.04,0.02-0.06s0.03-0.04,0.06-0.05
				s0.07-0.02,0.12-0.03s0.12-0.01,0.2-0.01c0.08,0,0.15,0,0.2,0.01s0.09,0.02,0.12,0.03s0.05,0.03,0.06,0.05s0.02,0.04,0.02,0.06
				V135.23z"/>
			<path d="M327.97,135.23c0,0.03-0.01,0.05-0.02,0.07s-0.03,0.03-0.06,0.05s-0.07,0.02-0.12,0.03s-0.12,0.01-0.2,0.01
				c-0.08,0-0.15,0-0.2-0.01s-0.09-0.02-0.12-0.03s-0.05-0.03-0.07-0.05s-0.02-0.04-0.02-0.07v-2.67c0-0.19-0.02-0.35-0.05-0.51
				s-0.08-0.28-0.16-0.4s-0.16-0.2-0.27-0.25s-0.24-0.09-0.39-0.09c-0.19,0-0.37,0.07-0.56,0.21s-0.39,0.35-0.62,0.63v3.07
				c0,0.03-0.01,0.05-0.02,0.07s-0.04,0.03-0.07,0.05s-0.07,0.02-0.12,0.03s-0.12,0.01-0.2,0.01c-0.07,0-0.14,0-0.19-0.01
				s-0.1-0.02-0.13-0.03s-0.05-0.03-0.06-0.05s-0.02-0.04-0.02-0.07v-2.67c0-0.19-0.02-0.35-0.05-0.51s-0.09-0.28-0.16-0.4
				s-0.16-0.2-0.27-0.25s-0.24-0.09-0.39-0.09c-0.19,0-0.37,0.07-0.56,0.21s-0.39,0.35-0.62,0.63v3.07c0,0.03-0.01,0.05-0.02,0.07
				s-0.03,0.03-0.06,0.05s-0.07,0.02-0.12,0.03s-0.12,0.01-0.2,0.01c-0.08,0-0.14,0-0.2-0.01s-0.09-0.02-0.12-0.03
				s-0.05-0.03-0.06-0.05s-0.02-0.04-0.02-0.07v-4.39c0-0.03,0-0.05,0.01-0.07s0.03-0.03,0.06-0.05s0.07-0.02,0.11-0.03
				s0.11-0.01,0.18-0.01c0.07,0,0.13,0,0.18,0.01s0.08,0.01,0.11,0.03s0.04,0.03,0.06,0.05s0.02,0.04,0.02,0.07v0.58
				c0.25-0.28,0.49-0.48,0.72-0.61s0.47-0.19,0.71-0.19c0.18,0,0.35,0.02,0.49,0.06s0.27,0.1,0.38,0.18s0.21,0.17,0.28,0.27
				s0.14,0.22,0.2,0.35c0.15-0.16,0.29-0.29,0.42-0.41s0.26-0.2,0.38-0.27s0.24-0.12,0.36-0.15s0.23-0.05,0.35-0.05
				c0.28,0,0.52,0.05,0.71,0.15s0.35,0.23,0.47,0.4s0.2,0.36,0.25,0.58s0.08,0.46,0.08,0.71V135.23z"/>
			<path d="M333.19,132.84c0,0.13-0.03,0.22-0.1,0.27s-0.14,0.08-0.22,0.08h-2.89c0,0.24,0.02,0.46,0.07,0.66
				c0.05,0.2,0.13,0.36,0.25,0.5c0.11,0.14,0.26,0.25,0.45,0.32c0.18,0.07,0.41,0.11,0.67,0.11c0.21,0,0.4-0.02,0.56-0.05
				s0.3-0.07,0.42-0.11c0.12-0.04,0.22-0.08,0.29-0.11c0.08-0.03,0.13-0.05,0.17-0.05c0.02,0,0.04,0.01,0.06,0.02
				s0.03,0.03,0.04,0.05s0.02,0.05,0.02,0.1s0.01,0.09,0.01,0.15c0,0.04,0,0.08,0,0.11s-0.01,0.06-0.01,0.08s-0.01,0.05-0.02,0.07
				s-0.03,0.04-0.04,0.06s-0.07,0.05-0.16,0.09s-0.2,0.08-0.34,0.12s-0.3,0.07-0.49,0.1s-0.38,0.05-0.59,0.05
				c-0.36,0-0.68-0.05-0.95-0.15s-0.5-0.25-0.69-0.45s-0.33-0.45-0.42-0.75s-0.14-0.65-0.14-1.04c0-0.38,0.05-0.72,0.15-1.02
				s0.24-0.56,0.42-0.77s0.41-0.37,0.67-0.48s0.55-0.17,0.87-0.17c0.35,0,0.64,0.06,0.88,0.17s0.44,0.26,0.6,0.45
				s0.27,0.41,0.34,0.66s0.11,0.52,0.11,0.81V132.84z M332.38,132.6c0.01-0.42-0.08-0.76-0.28-1c-0.2-0.24-0.49-0.36-0.88-0.36
				c-0.2,0-0.38,0.04-0.53,0.11c-0.15,0.07-0.28,0.17-0.38,0.3s-0.18,0.27-0.24,0.43s-0.09,0.34-0.09,0.52H332.38z"/>
			<path d="M338.2,135.23c0,0.03-0.01,0.05-0.02,0.07s-0.03,0.03-0.06,0.05s-0.07,0.02-0.12,0.03s-0.12,0.01-0.2,0.01
				c-0.08,0-0.15,0-0.2-0.01s-0.09-0.02-0.12-0.03s-0.05-0.03-0.06-0.05s-0.02-0.04-0.02-0.07v-2.57c0-0.25-0.02-0.45-0.06-0.61
				s-0.1-0.28-0.17-0.4s-0.17-0.2-0.29-0.25s-0.26-0.09-0.41-0.09c-0.2,0-0.4,0.07-0.61,0.21s-0.41,0.35-0.63,0.63v3.07
				c0,0.03-0.01,0.05-0.02,0.07s-0.03,0.03-0.06,0.05s-0.07,0.02-0.12,0.03s-0.12,0.01-0.2,0.01c-0.08,0-0.14,0-0.2-0.01
				s-0.09-0.02-0.12-0.03s-0.05-0.03-0.06-0.05s-0.02-0.04-0.02-0.07v-4.39c0-0.03,0-0.05,0.01-0.07s0.03-0.03,0.06-0.05
				s0.07-0.02,0.11-0.03s0.11-0.01,0.18-0.01c0.07,0,0.13,0,0.18,0.01s0.08,0.01,0.11,0.03s0.04,0.03,0.06,0.05s0.02,0.04,0.02,0.07
				v0.58c0.25-0.28,0.49-0.48,0.74-0.61s0.49-0.19,0.74-0.19c0.29,0,0.54,0.05,0.74,0.15s0.36,0.23,0.49,0.4s0.21,0.36,0.27,0.58
				s0.08,0.49,0.08,0.8V135.23z"/>
			<path d="M342.43,134.03c0,0.22-0.04,0.42-0.12,0.6s-0.2,0.32-0.35,0.44s-0.34,0.21-0.55,0.27s-0.44,0.09-0.7,0.09
				c-0.16,0-0.31-0.01-0.45-0.04s-0.27-0.06-0.38-0.09s-0.21-0.08-0.29-0.12s-0.14-0.08-0.17-0.11s-0.06-0.08-0.08-0.14
				s-0.02-0.14-0.02-0.24c0-0.06,0-0.11,0.01-0.16s0.01-0.08,0.02-0.1s0.02-0.04,0.04-0.06s0.04-0.02,0.06-0.02
				c0.04,0,0.09,0.02,0.16,0.07s0.16,0.09,0.26,0.14s0.22,0.1,0.36,0.14s0.3,0.07,0.48,0.07c0.14,0,0.26-0.01,0.37-0.04
				s0.21-0.07,0.29-0.13s0.14-0.13,0.19-0.22s0.07-0.19,0.07-0.31c0-0.12-0.03-0.23-0.1-0.31s-0.15-0.16-0.25-0.22
				s-0.22-0.12-0.35-0.17s-0.26-0.1-0.4-0.16s-0.27-0.12-0.41-0.19s-0.25-0.16-0.35-0.26s-0.19-0.22-0.25-0.36s-0.1-0.31-0.1-0.5
				c0-0.17,0.03-0.34,0.1-0.5s0.17-0.3,0.3-0.42s0.3-0.21,0.5-0.29s0.43-0.11,0.7-0.11c0.12,0,0.23,0.01,0.35,0.03
				s0.22,0.04,0.32,0.07s0.17,0.06,0.24,0.1s0.12,0.06,0.15,0.09s0.06,0.05,0.07,0.07s0.02,0.04,0.02,0.07s0.01,0.05,0.01,0.09
				s0.01,0.08,0.01,0.13c0,0.06,0,0.1-0.01,0.14s-0.01,0.07-0.02,0.1s-0.03,0.04-0.04,0.06s-0.03,0.02-0.05,0.02
				c-0.03,0-0.07-0.02-0.13-0.05s-0.13-0.07-0.21-0.11s-0.19-0.08-0.31-0.11s-0.25-0.05-0.41-0.05c-0.14,0-0.26,0.02-0.36,0.05
				s-0.19,0.07-0.26,0.13s-0.12,0.12-0.15,0.2s-0.05,0.16-0.05,0.25c0,0.13,0.03,0.23,0.1,0.32s0.15,0.16,0.25,0.23
				s0.22,0.12,0.36,0.18s0.27,0.11,0.41,0.16s0.27,0.12,0.41,0.19s0.25,0.15,0.36,0.25s0.19,0.21,0.25,0.35
				S342.43,133.84,342.43,134.03z"/>
			<path d="M344.48,129.35c0,0.19-0.04,0.32-0.11,0.39s-0.2,0.1-0.4,0.1c-0.19,0-0.32-0.03-0.39-0.1s-0.1-0.19-0.1-0.38
				c0-0.19,0.04-0.32,0.11-0.39s0.2-0.1,0.4-0.1c0.19,0,0.32,0.03,0.39,0.1S344.48,129.16,344.48,129.35z M344.38,135.23
				c0,0.03-0.01,0.05-0.02,0.07s-0.03,0.03-0.06,0.05s-0.07,0.02-0.12,0.03s-0.12,0.01-0.2,0.01c-0.08,0-0.14,0-0.2-0.01
				s-0.09-0.02-0.12-0.03s-0.05-0.03-0.06-0.05s-0.02-0.04-0.02-0.07v-4.39c0-0.02,0.01-0.04,0.02-0.06s0.03-0.04,0.06-0.05
				s0.07-0.02,0.12-0.03s0.12-0.01,0.2-0.01c0.08,0,0.15,0,0.2,0.01s0.09,0.02,0.12,0.03s0.05,0.03,0.06,0.05s0.02,0.04,0.02,0.06
				V135.23z"/>
			<path d="M349.96,132.98c0,0.36-0.05,0.69-0.14,0.99s-0.24,0.56-0.42,0.78s-0.42,0.39-0.7,0.51s-0.61,0.18-0.98,0.18
				c-0.36,0-0.68-0.05-0.94-0.16s-0.49-0.26-0.67-0.47s-0.31-0.45-0.4-0.75s-0.13-0.63-0.13-1c0-0.36,0.05-0.69,0.14-0.99
				s0.23-0.56,0.42-0.78s0.42-0.39,0.7-0.51s0.61-0.18,0.98-0.18c0.36,0,0.68,0.05,0.94,0.16s0.49,0.26,0.67,0.47
				s0.31,0.45,0.4,0.75S349.96,132.61,349.96,132.98z M349.13,133.04c0-0.24-0.02-0.46-0.07-0.67s-0.12-0.4-0.22-0.56
				c-0.1-0.16-0.24-0.29-0.41-0.38s-0.39-0.14-0.65-0.14c-0.24,0-0.45,0.04-0.62,0.13s-0.31,0.2-0.43,0.36s-0.19,0.34-0.25,0.55
				s-0.08,0.44-0.08,0.69c0,0.24,0.02,0.47,0.07,0.68s0.12,0.4,0.22,0.55s0.24,0.28,0.42,0.38c0.17,0.09,0.39,0.14,0.65,0.14
				c0.24,0,0.44-0.04,0.62-0.13c0.17-0.08,0.32-0.2,0.43-0.36s0.19-0.34,0.25-0.55C349.1,133.52,349.13,133.29,349.13,133.04z"/>
			<path d="M354.93,135.23c0,0.03-0.01,0.05-0.02,0.07s-0.03,0.03-0.06,0.05s-0.07,0.02-0.12,0.03s-0.12,0.01-0.2,0.01
				c-0.08,0-0.15,0-0.2-0.01s-0.09-0.02-0.12-0.03s-0.05-0.03-0.06-0.05s-0.02-0.04-0.02-0.07v-2.57c0-0.25-0.02-0.45-0.06-0.61
				s-0.1-0.28-0.17-0.4s-0.17-0.2-0.29-0.25s-0.26-0.09-0.41-0.09c-0.2,0-0.4,0.07-0.61,0.21s-0.41,0.35-0.63,0.63v3.07
				c0,0.03-0.01,0.05-0.02,0.07s-0.03,0.03-0.06,0.05s-0.07,0.02-0.12,0.03s-0.12,0.01-0.2,0.01c-0.08,0-0.14,0-0.2-0.01
				s-0.09-0.02-0.12-0.03s-0.05-0.03-0.06-0.05s-0.02-0.04-0.02-0.07v-4.39c0-0.03,0-0.05,0.01-0.07s0.03-0.03,0.06-0.05
				s0.07-0.02,0.11-0.03s0.11-0.01,0.18-0.01c0.07,0,0.13,0,0.18,0.01s0.08,0.01,0.11,0.03s0.04,0.03,0.06,0.05s0.02,0.04,0.02,0.07
				v0.58c0.25-0.28,0.49-0.48,0.74-0.61s0.49-0.19,0.74-0.19c0.29,0,0.54,0.05,0.74,0.15s0.36,0.23,0.49,0.4s0.21,0.36,0.27,0.58
				s0.08,0.49,0.08,0.8V135.23z"/>
			<path d="M359.16,134.03c0,0.22-0.04,0.42-0.12,0.6s-0.2,0.32-0.35,0.44s-0.34,0.21-0.55,0.27s-0.44,0.09-0.7,0.09
				c-0.16,0-0.31-0.01-0.45-0.04s-0.27-0.06-0.38-0.09s-0.21-0.08-0.29-0.12s-0.14-0.08-0.17-0.11s-0.06-0.08-0.08-0.14
				s-0.02-0.14-0.02-0.24c0-0.06,0-0.11,0.01-0.16s0.01-0.08,0.02-0.1s0.02-0.04,0.04-0.06s0.04-0.02,0.06-0.02
				c0.04,0,0.09,0.02,0.16,0.07s0.16,0.09,0.26,0.14s0.22,0.1,0.36,0.14s0.3,0.07,0.48,0.07c0.14,0,0.26-0.01,0.37-0.04
				s0.21-0.07,0.29-0.13s0.14-0.13,0.19-0.22s0.07-0.19,0.07-0.31c0-0.12-0.03-0.23-0.1-0.31s-0.15-0.16-0.25-0.22
				s-0.22-0.12-0.35-0.17s-0.26-0.1-0.4-0.16s-0.27-0.12-0.41-0.19s-0.25-0.16-0.35-0.26s-0.19-0.22-0.25-0.36s-0.1-0.31-0.1-0.5
				c0-0.17,0.03-0.34,0.1-0.5s0.17-0.3,0.3-0.42s0.3-0.21,0.5-0.29s0.43-0.11,0.7-0.11c0.12,0,0.23,0.01,0.35,0.03
				s0.22,0.04,0.32,0.07s0.17,0.06,0.24,0.1s0.12,0.06,0.15,0.09s0.06,0.05,0.07,0.07s0.02,0.04,0.02,0.07s0.01,0.05,0.01,0.09
				s0.01,0.08,0.01,0.13c0,0.06,0,0.1-0.01,0.14s-0.01,0.07-0.02,0.1s-0.03,0.04-0.04,0.06s-0.03,0.02-0.05,0.02
				c-0.03,0-0.07-0.02-0.13-0.05s-0.13-0.07-0.21-0.11s-0.19-0.08-0.31-0.11s-0.25-0.05-0.41-0.05c-0.14,0-0.26,0.02-0.36,0.05
				s-0.19,0.07-0.26,0.13s-0.12,0.12-0.15,0.2s-0.05,0.16-0.05,0.25c0,0.13,0.03,0.23,0.1,0.32s0.15,0.16,0.25,0.23
				s0.22,0.12,0.36,0.18s0.27,0.11,0.41,0.16s0.27,0.12,0.41,0.19s0.25,0.15,0.36,0.25s0.19,0.21,0.25,0.35
				S359.16,133.84,359.16,134.03z"/>
		</g>
	</g>
</g>
<g id="图层_4">
	<g>
		<line x1="108.5" y1="131.5" x2="309" y2="132"/>
		<g>
			<line class="st13" x1="108.5" y1="131.5" x2="308.64" y2="132"/>
			<g>
				<path d="M306.59,133.43c-0.04-0.07-0.02-0.16,0.05-0.21l1.94-1.23l-1.93-1.24c-0.07-0.04-0.09-0.14-0.05-0.21
					c0.04-0.07,0.14-0.09,0.21-0.05l2.13,1.36c0.04,0.03,0.07,0.08,0.07,0.13s-0.03,0.1-0.07,0.13l-2.14,1.35
					c-0.02,0.02-0.05,0.02-0.08,0.02C306.66,133.5,306.62,133.48,306.59,133.43z"/>
			</g>
		</g>
	</g>
	<g>
		<line x1="108.5" y1="131.5" x2="108.5" y2="31.5"/>
		<g>
			<line class="st13" x1="108.5" y1="131.5" x2="108.5" y2="31.86"/>
			<g>
				<path d="M109.94,33.91c-0.07,0.04-0.16,0.02-0.21-0.05l-1.23-1.94l-1.23,1.94c-0.04,0.07-0.14,0.09-0.21,0.05
					c-0.07-0.04-0.09-0.14-0.05-0.21l1.36-2.13c0.03-0.04,0.08-0.07,0.13-0.07s0.1,0.03,0.13,0.07l1.36,2.13
					c0.02,0.02,0.02,0.05,0.02,0.08C110.01,33.83,109.98,33.88,109.94,33.91z"/>
			</g>
		</g>
	</g>
	<g>
	</g>
	<g>
	</g>
	<g>
	</g>
	<g>
	</g>
	<g>
	</g>
	<g>
	</g>
	<g>
	</g>
	<g>
	</g>
	<g>
	</g>
	<g>
	</g>
	<g>
	</g>
	<g>
	</g>
</g>
</svg>
