<?xml version="1.0" encoding="utf-8"?>
<!-- Generator: Adobe Illustrator 24.1.1, SVG Export Plug-In . SVG Version: 6.00 Build 0)  -->
<svg version="1.1" id="图层_1" xmlns="http://www.w3.org/2000/svg" xmlns:xlink="http://www.w3.org/1999/xlink" x="0px" y="0px"
	 viewBox="0 0 1147.4 530" style="enable-background:new 0 0 1147.4 530;" xml:space="preserve">
<style type="text/css">
	
		.st0{opacity:0.6;fill:#FFFEE1;stroke:#FFCC00;stroke-width:2;stroke-miterlimit:1.8903;stroke-dasharray:1.692;enable-background:new    ;}
	.st1{fill:#FFFEE1;stroke:#FFCC00;stroke-width:2;stroke-miterlimit:1.8903;stroke-dasharray:2.7433;}
	.st2{opacity:0.62;fill:url(#SVGID_1_);enable-background:new    ;}
	.st3{opacity:0.62;fill:url(#SVGID_2_);enable-background:new    ;}
	
		.st4{opacity:0.4;fill:#FFFEE1;stroke:#FFCC00;stroke-width:2;stroke-miterlimit:1.8903;stroke-dasharray:1.9335;enable-background:new    ;}
	.st5{fill:#FFD4AE;stroke:#FF6600;stroke-width:2.2793;stroke-miterlimit:1.8903;stroke-dasharray:2.2793;}
	.st6{fill:#F7EBF6;stroke:#FFCCFF;stroke-width:1.9999;stroke-miterlimit:1.8902;stroke-dasharray:1.9999;}
	.st7{fill:#F7EBF6;stroke:#FFCCFF;stroke-width:2;stroke-miterlimit:1.8903;stroke-dasharray:2;}
	.st8{fill:#FFD4AE;stroke:#FF6600;stroke-width:2;stroke-miterlimit:1.8903;stroke-dasharray:2;}
	.st9{fill:#FFD4AE;stroke:#FF6600;stroke-width:2;stroke-miterlimit:1.8903;stroke-dasharray:2.2414;}
	.st10{opacity:0.61;}
	.st11{fill:none;stroke:#FF9700;stroke-width:46.1408;stroke-miterlimit:1.8903;stroke-dasharray:1.8737,1.8737;}
	.st12{fill:#FF9700;}
	.st13{fill:none;stroke:#FF9700;stroke-width:40;stroke-miterlimit:1.8903;stroke-dasharray:1.6243,1.6243;}
	.st14{fill:none;stroke:#FF9700;stroke-width:47.1271;stroke-miterlimit:1.8903;stroke-dasharray:1.9137,1.9137;}
	.st15{font-family:'TimesNewRomanPSMT';}
	.st16{font-size:12px;}
	.st17{font-family:'Calibri';}
	.st18{font-family:'SimHei';}
	.st19{font-family:'AdobeSongStd-Light-GBpc-EUC-H';}
	.st20{fill:none;}
	.st21{font-family:'TimesNewRomanPS-ItalicMT';}
	.st22{font-family:'TimesNewRomanPS-BoldMT';}
	.st23{font-size:14px;}
	.st24{fill:#666666;}
	.st25{font-family:'Calibri-Italic';}
	.st26{fill:none;stroke:#FFCCFF;stroke-width:2;stroke-miterlimit:1.8903;stroke-dasharray:2,2;}
	.st27{fill:#FFCCFF;}
	.st28{font-size:18px;}
</style>
<g id="图层_1_2_">
	<g id="图层_1_1_">
		<g id="mermaid-svg-115">
			<rect x="9.9" y="7.7" class="st0" width="1128.3" height="364.6"/>
			<rect x="195.8" y="58.2" class="st1" width="292.9" height="296.7"/>
			
				<linearGradient id="SVGID_1_" gradientUnits="userSpaceOnUse" x1="282.0234" y1="336.2677" x2="282.0234" y2="414.8677" gradientTransform="matrix(1 0 0 1 0 -60)">
				<stop  offset="0" style="stop-color:#FFFFFF"/>
				<stop  offset="0.1622" style="stop-color:#FFECDF"/>
				<stop  offset="0.5198" style="stop-color:#FFBC8C"/>
				<stop  offset="1" style="stop-color:#FF7715"/>
				<stop  offset="1" style="stop-color:#FF9F14"/>
				<stop  offset="1" style="stop-color:#FF9700"/>
				<stop  offset="1" style="stop-color:#ABABAC"/>
			</linearGradient>
			<path class="st2" d="M355.8,354.9H208.2c-6.8,0-12.4-5.5-12.4-12.4v-53.8c0-6.8,5.5-12.4,12.4-12.4h147.6
				c6.8,0,12.4,5.5,12.4,12.4v53.8C368.1,349.4,362.6,354.9,355.8,354.9z"/>
			
				<linearGradient id="SVGID_2_" gradientUnits="userSpaceOnUse" x1="281.0234" y1="217.4677" x2="281.0234" y2="155.4677" gradientTransform="matrix(1 0 0 1 0 -60)">
				<stop  offset="0" style="stop-color:#FFFFFF"/>
				<stop  offset="0.1622" style="stop-color:#FFECDF"/>
				<stop  offset="0.5198" style="stop-color:#FFBC8C"/>
				<stop  offset="1" style="stop-color:#FF7715"/>
				<stop  offset="1" style="stop-color:#FF9F14"/>
				<stop  offset="1" style="stop-color:#FF9700"/>
				<stop  offset="1" style="stop-color:#ABABAC"/>
			</linearGradient>
			<path class="st3" d="M353.3,157.5H208.7c-7.1,0-12.9-5.8-12.9-12.9v-36.2c0-7.1,5.8-12.9,12.9-12.9h144.6
				c7.1,0,12.9,5.8,12.9,12.9v36.2C366.2,151.7,360.4,157.5,353.3,157.5z"/>
			<rect x="512.9" y="58.2" class="st1" width="195.1" height="296.7"/>
			<rect x="727.9" y="58.2" class="st1" width="396" height="296.7"/>
			<rect x="9.9" y="388.8" class="st4" width="1128.3" height="130.1"/>
			<path class="st5" d="M114.8,248h-77c-7.5,0-13.7-6.2-13.7-13.7v-41.6c0-7.5,6.2-13.7,13.7-13.7h77c7.5,0,13.7,6.2,13.7,13.7v41.6
				C128.4,241.8,122.3,248,114.8,248z"/>
			
				<ellipse transform="matrix(6.652051e-02 -0.9978 0.9978 6.652051e-02 -357.9405 533.9488)" class="st6" cx="106.4" cy="458.3" rx="30.1" ry="30.1"/>
			<circle class="st7" cx="372.5" cy="458.3" r="30.1"/>
			<path class="st7" d="M779.2,435.2c16.6,0,30.1,13.5,30.1,30.1s-13.5,30.1-30.1,30.1s-30.1-13.5-30.1-30.1
				c0-14,10.4-25.1,21.1-28.7C774.6,435.1,778.2,435.2,779.2,435.2z"/>
			<circle class="st7" cx="976.3" cy="462" r="30.1"/>
			<path class="st8" d="M312.1,291.9h-67.6c-6.6,0-12-5.4-12-12v-36.5c0-6.6,5.4-12,12-12h67.6c6.6,0,12,5.4,12,12v36.5
				C324.1,286.5,318.7,291.9,312.1,291.9z"/>
			<path class="st8" d="M312.1,195.8h-67.6c-6.6,0-12-5.4-12-12v-36.5c0-6.6,5.4-12,12-12h67.6c6.6,0,12,5.4,12,12v36.5
				C324.1,190.4,318.7,195.8,312.1,195.8z"/>
			<path class="st8" d="M908.6,195.3H798.7c-10.7,0-19.5-7.3-19.5-16.3v-49.6c0-9,8.8-16.3,19.5-16.3h109.9
				c10.7,0,19.5,7.3,19.5,16.3V179C928.1,188,919.4,195.3,908.6,195.3z"/>
			<path class="st8" d="M908.6,295.3H798.7c-10.7,0-19.5-7.3-19.5-16.3v-49.6c0-9,8.8-16.3,19.5-16.3h109.9
				c10.7,0,19.5,7.3,19.5,16.3V279C928.1,288,919.4,295.3,908.6,295.3z"/>
			<path class="st9" d="M1094.8,244.2h-76.6c-7.5,0-13.6-6-13.6-13.3v-40.4c0-7.3,6.1-13.3,13.6-13.3h76.6c7.5,0,13.6,6,13.6,13.3
				v40.4C1108.4,238.2,1102.3,244.2,1094.8,244.2z"/>
			<path class="st8" d="M672,237.8H533.1c-7.2,0-13-5.8-13-13v-24.5c0-7.2,5.8-13,13-13H672c7.2,0,13,5.8,13,13v24.5
				C685,232,679.2,237.8,672,237.8z"/>
		</g>
		<g id="箭头" class="st10">
			<g>
				<g>
					<line class="st11" x1="128.5" y1="213.6" x2="255.3" y2="213.6"/>
					<g>
						<polygon class="st12" points="223.5,233.9 250.5,213.6 223.5,193.2 246.5,193.2 273.5,213.6 246.5,233.9 						"/>
					</g>
				</g>
			</g>
			<g>
				<g>
					<line class="st13" x1="324.1" y1="250.2" x2="508.8" y2="221"/>
					<g>
						<polygon class="st12" points="488.4,244.8 505.3,221.5 482,204.6 499.1,201.9 522.4,218.8 505.4,242.1 						"/>
					</g>
				</g>
			</g>
			<g>
				<g>
					<line class="st13" x1="324.1" y1="160.8" x2="508.8" y2="190.1"/>
					<g>
						<polygon class="st12" points="482,206.4 505.3,189.5 488.4,166.2 505.4,168.9 522.4,192.2 499.1,209.1 						"/>
					</g>
				</g>
			</g>
			<g>
				<g>
					<path class="st13" d="M1005.2,228.3"/>
					<path class="st13" d="M870.8,264.8"/>
				</g>
			</g>
			<g>
				<g>
					<line class="st13" x1="1005.2" y1="225.3" x2="915.8" y2="255.2"/>
					<g>
						<polygon class="st12" points="993.4,207.4 1018.4,221.7 1004.1,246.6 987.4,251.2 1001.7,226.2 976.8,211.9 						"/>
					</g>
				</g>
			</g>
			<g>
				<g>
					<line class="st13" x1="915.8" y1="172.6" x2="1005.2" y2="202.5"/>
					<g>
						<polygon class="st12" points="976.8,215.9 1001.7,201.6 987.4,176.6 1004.1,181.2 1018.4,206.1 993.4,220.4 						"/>
					</g>
				</g>
			</g>
			<g>
				<g>
					<line class="st14" x1="680.3" y1="212.8" x2="807" y2="212.8"/>
					<g>
						<polygon class="st12" points="773.9,233.1 802.2,212.8 773.9,192.5 797.9,192.5 826.2,212.8 797.9,233.1 						"/>
					</g>
				</g>
			</g>
		</g>
		<g id="文字">
			<text transform="matrix(1 0 0 1 36.867 210.0673)" class="st15 st16">Posthumanism</text>
			<text transform="matrix(1 0 0 1 36.867 224.4673)" class="st15 st16">New Materialism</text>
			<text transform="matrix(1 0 0 1 69.8881 449.2019)" class="st17 st16">Jane Jacobs</text>
			<text transform="matrix(1 0 0 1 69.8881 463.6165)" class="st18 st16">《</text>
			<text transform="matrix(1 0 0 1 81.8881 463.6019)" class="st17 st16">The Death and Life of Great American Cities</text>
			<text transform="matrix(1 0 0 1 294.7881 463.6165)" class="st18 st16">》</text>
			<text transform="matrix(1 0 0 1 69.8881 478.0019)" class="st19 st16">（</text>
			<text transform="matrix(1 0 0 1 81.8881 478.0019)" class="st17 st16">Diverse Urban Life</text>
			<text transform="matrix(1 0 0 1 171.3881 478.0019)" class="st19 st16">）</text>
			<text transform="matrix(1 0 0 1 739.4124 449.2161)" class="st18 st16">王澍 </text>
			<text transform="matrix(1 0 0 1 769.4124 449.2014)" class="st17 st16">Wang Shu</text>
			<text transform="matrix(1 0 0 1 739.4124 463.6014)" class="st17 st16">(materials like poetry, </text>
			<text transform="matrix(1 0 0 1 739.4124 478.0014)" class="st17 st16">modern architecture)</text>
			<rect x="334.5" y="445.1" class="st20" width="109.3" height="59.1"/>
			<text transform="matrix(1 0 0 1 344.8995 449.2023)" class="st17 st16">Kengo Kuma</text>
			<text transform="matrix(1 0 0 1 344.8995 463.6022)" class="st17 st16">“Particle-Based”</text>
			<text transform="matrix(1 0 0 1 344.8995 478.0023)" class="st17 st16">Architectural Philosophy</text>
			<text transform="matrix(1 0 0 1 243.5236 160.768)" class="st15 st16">Critical Urban </text>
			<text transform="matrix(1 0 0 1 243.5236 175.168)" class="st15 st16">Theory</text>
			<rect x="538.3" y="188.9" class="st20" width="148.5" height="20.5"/>
			<text transform="matrix(1 0 0 1 545.9605 209.0676)" class="st15 st16">Reimagining Space </text>
			<text transform="matrix(1 0 0 1 545.9605 223.4676)" class="st15 st16">Through Chinese Poetry</text>
			<text transform="matrix(1 0 0 1 784.9168 143.9003)" class="st15 st16">Chinese Classical Aesthetics</text>
			<text transform="matrix(1 0 0 1 789.0186 158.3003)" class="st15 st16"> Wang Guowei&apos;s(</text>
			<text transform="matrix(1 0 0 1 872.5186 158.3149)" class="st18 st16">王国维</text>
			<text transform="matrix(1 0 0 1 908.5186 158.3003)" class="st15 st16">) </text>
			<text transform="matrix(1 0 0 1 784.9168 172.7002)" class="st15 st16">Theory of </text>
			<text transform="matrix(1 0 0 1 837.3424 172.7002)" class="st21 st16">JingJie</text>
			<text transform="matrix(1 0 0 1 871.9424 172.7002)" class="st15 st16">(</text>
			<text transform="matrix(1 0 0 1 875.9424 172.7149)" class="st18 st16">境界</text>
			<text transform="matrix(1 0 0 1 899.9424 172.7002)" class="st15 st16">)</text>
			<text transform="matrix(1 0 0 1 800.0475 250.0828)" class="st15 st16">Creative Art Practice </text>
			<text transform="matrix(1 0 0 1 800.0475 264.4828)" class="st15 st16">as a Research Method</text>
			<text transform="matrix(1 0 0 1 1018.4241 199.1181)" class="st15 st16">Art Experiment:</text>
			<text transform="matrix(1 0 0 1 1018.4241 213.5181)" class="st15 st16">Chinese Poetry </text>
			<text transform="matrix(1 0 0 1 1018.4241 227.9181)" class="st15 st16">as Urban Critique</text>
			<text transform="matrix(1 0 0 1 817.7236 86.6873)" class="st15 st16">Proposed Approach</text>
			<text transform="matrix(1 0 0 1 556.1862 86.6871)" class="st15 st16">Research Questions</text>
			<text transform="matrix(1 0 0 1 256.8234 86.6869)" class="st15 st16">Critical Lens</text>
			<text transform="matrix(1 0 0 1 53.0372 86.6868)" class="st15 st16">Philosophical</text>
			<text transform="matrix(1 0 0 1 53.0372 101.0868)" class="st15 st16">Foundations</text>
			<text transform="matrix(1 0 0 1 512.9233 410.9417)" class="st22 st23">Inspiration &amp; Typical Case Study</text>
			<text transform="matrix(1 0 0 1 134.6236 201.8616)" class="st24 st17 st16">Non-human elements&apos; </text>
			<text transform="matrix(1 0 0 1 134.6236 216.2616)" class="st24 st17 st16">agency provides </text>
			<text transform="matrix(1 0 0 1 134.6236 230.6616)" class="st24 st17 st16">philosophical legitimacy</text>
			<text transform="matrix(1 0 0 1 363.1278 160.7677)" class="st24 st17 st16">Critique Target: </text>
			<text transform="matrix(1 0 0 1 363.1278 175.1678)" class="st24 st17 st16">Capitalist Logic Leads </text>
			<text transform="matrix(1 0 0 1 363.1278 189.5678)" class="st24 st17 st16">to Spatial Alienation</text>
			<text transform="matrix(1 0 0 1 685.0227 208.1763)" class="st24 st17 st16">Guiding Methodology and </text>
			<text transform="matrix(1 0 0 1 685.0227 222.5763)" class="st24 st17 st16">Experimental Exploration</text>
			<text transform="matrix(1 0 0 1 363.1278 220.9675)" class="st24 st17 st16">Critical Tools: </text>
			<text transform="matrix(1 0 0 1 363.1278 235.3675)" class="st24 st17 st16">Transcending Visual Centrism</text>
			<text transform="matrix(1 0 0 1 363.1278 249.7675)" class="st24 st17 st16">Multi-Sensory Experiences </text>
			<text transform="matrix(1 0 0 1 363.1278 264.1675)" class="st24 st17 st16">Human Core Needs</text>
			<text transform="matrix(1 0 0 1 938.0238 193.9231)" class="st24 st17 st16">Co-creation</text>
			<text transform="matrix(1 0 0 1 212.9024 318.8019)" class="st25 st16">The Production of Space</text>
			<text transform="matrix(1 0 0 1 217.1574 305.3866)" class="st17 st16">Triadic Dialectic Theory</text>
			<text transform="matrix(1 0 0 1 223.0298 332.7228)" class="st25 st16">The Eyes of the Skin</text>
			<text transform="matrix(1 0 0 1 211.0299 348.8249)" class="st17 st16">Maslow&apos;s Hierarchy of Needs</text>
			<text transform="matrix(1 0 0 1 244.8152 256.73)" class="st15 st16">Humanistic </text>
			<text transform="matrix(1 0 0 1 244.8152 271.13)" class="st15 st16">Lens</text>
			<text transform="matrix(1 0 0 1 217.9236 111.9634)" class="st25 st16">Social Justice and the City</text>
			<text transform="matrix(1 0 0 1 217.9236 126.3633)" class="st25 st16">The Urbanization of Capital</text>
			<text transform="matrix(1 0 0 1 936.447 449.202)" class="st17 st16">The Summer Palace, Beijing</text>
			<text transform="matrix(1 0 0 1 936.447 463.6019)" class="st17 st16">(spaces like poetry, </text>
			<text transform="matrix(1 0 0 1 936.447 478.002)" class="st17 st16">classical gardens)</text>
			<text transform="matrix(1 0 0 1 938.023 239.6353)" class="st24 st17 st16">Co-creation</text>
		</g>
	</g>
	<g id="箭头2">
		<g>
			<g>
				<path class="st26" d="M766,439.1c-10.4-15.3-39-61.2-27.4-143c7.6-53.5,33.3-90.8,47.8-108.6"/>
				<g>
					<path class="st27" d="M789.2,190.1c1.5-1.8,0.9-4.6-1.2-5.7c-1.2-0.6-2.7-0.5-3.8,0.2c-2.2,1.5-2.2,4.6-0.3,6.1
						C785.6,192,787.9,191.7,789.2,190.1z"/>
				</g>
			</g>
		</g>
		<g>
			<g>
				<path class="st26" d="M987.6,433.3c6-19.4,14.7-83.1-1.5-137.6c-16.8-56.8-53.9-90.9-71.6-105"/>
				<g>
					<path class="st26" d="M917.3,187.9c-2-1.6-5.4-1.1-6.6,1.5c-0.6,1.3-0.5,2.8,0.5,3.9c1.6,1.9,4.8,1.9,6.4,0.1
						C919.3,191.7,919.1,189.2,917.3,187.9z"/>
				</g>
			</g>
		</g>
		<g>
			<g>
				<path class="st26" d="M316.8,255c11.4,16.4,38.9,63.2,47.3,88.7c10.1,30.7,9.2,67.5,8.4,84.5"/>
				<g>
					<path class="st27" d="M314.3,258c-1.9-1.9-1.4-5,1-6.1c1.4-0.6,3-0.3,4.1,0.7c1.9,1.9,1.4,5-1,6.1
						C317,259.3,315.4,259,314.3,258z"/>
				</g>
			</g>
		</g>
		<g>
			<g>
				<path class="st26" d="M392,435.4c53.2-4.9,155.8-21.7,261.3-90.7c79-51.6,128.9-112.4,157.3-153.3"/>
				<g>
					<path class="st27" d="M813,194.3c1.9-1.9,1.4-5-1-6.1c-1.4-0.6-3-0.3-4.1,0.7c-1.9,1.9-1.4,5,1,6.1
						C810.3,195.6,811.9,195.3,813,194.3z"/>
				</g>
			</g>
		</g>
		<g>
			<g>
				<path class="st26" d="M758.6,443.8c-93.5,6.3-272.5,2.8-421.6-112.9c-19.4-15.1-36.9-31-52.7-47.2"/>
				<g>
					<path class="st27" d="M287.2,281.2c-1.5-1.5-3.9-1.5-5.4,0.1c-1.3,1.4-1.3,3.7,0,5.1c1.5,1.6,3.9,1.6,5.4,0.1
						C288.6,285,288.6,282.6,287.2,281.2z"/>
				</g>
			</g>
		</g>
		<g>
			<g>
				<path class="st26" d="M115.4,429.6c32.6-99.4,78.1-177.9,127.4-240.4c1.3-1.6,2.6-3.3,3.9-4.9"/>
				<g>
					<path class="st27" d="M249.5,186.8c1.3-1.6,1-4-0.6-5.3s-4-1-5.3,0.6s-1,4,0.6,5.3S248.2,188.5,249.5,186.8z"/>
				</g>
			</g>
		</g>
	</g>
</g>
<rect x="53" y="17.5" class="st20" width="185.4" height="19.3"/>
<text transform="matrix(1 0 0 1 53.0373 32.4012)" class="st22 st28">Theoretical Framework</text>
</svg>
