<?xml version="1.0" encoding="utf-8"?>
<!-- Generator: Adobe Illustrator 24.1.1, SVG Export Plug-In . SVG Version: 6.00 Build 0)  -->
<svg version="1.1" id="图层_1" xmlns="http://www.w3.org/2000/svg" xmlns:xlink="http://www.w3.org/1999/xlink" x="0px" y="0px"
	 viewBox="0 0 1182.6 781.3" style="enable-background:new 0 0 1182.6 781.3;" xml:space="preserve">
<style type="text/css">
	
		.st0{opacity:0.6;fill:#FFFEE1;stroke:#FFCC00;stroke-width:2;stroke-miterlimit:1.8903;stroke-dasharray:1.692;enable-background:new    ;}
	.st1{fill:#FFFEE1;stroke:#FFCC00;stroke-width:2;stroke-miterlimit:1.8903;stroke-dasharray:2.7433;}
	.st2{opacity:0.62;fill:url(#SVGID_1_);enable-background:new    ;}
	.st3{opacity:0.62;fill:url(#SVGID_2_);enable-background:new    ;}
	
		.st4{opacity:0.4;fill:#FFFEE1;stroke:#FFCC00;stroke-width:2;stroke-miterlimit:1.8903;stroke-dasharray:1.9335;enable-background:new    ;}
	.st5{fill:#FFD4AE;stroke:#FF6600;stroke-width:2.2793;stroke-miterlimit:1.8903;stroke-dasharray:2.2793;}
	.st6{fill:#F7EBF6;stroke:#FFCCFF;stroke-width:2;stroke-miterlimit:1.8903;stroke-dasharray:2;}
	.st7{fill:#FFD4AE;stroke:#FF6600;stroke-width:2;stroke-miterlimit:1.8903;stroke-dasharray:2;}
	.st8{fill:#FFD4AE;stroke:#FF6600;stroke-width:2;stroke-miterlimit:1.8903;stroke-dasharray:2.2414;}
	.st9{opacity:0.61;}
	.st10{fill:none;stroke:#FF9700;stroke-width:46.1408;stroke-miterlimit:1.8903;stroke-dasharray:1.8737,1.8737;}
	.st11{fill:#FF9700;}
	.st12{fill:none;stroke:#FF9700;stroke-width:40;stroke-miterlimit:1.8903;stroke-dasharray:1.6243,1.6243;}
	.st13{fill:none;stroke:#FF9700;stroke-width:47.1271;stroke-miterlimit:1.8903;stroke-dasharray:1.9137,1.9137;}
	.st14{font-family:'TimesNewRomanPSMT';}
	.st15{font-size:12px;}
	.st16{font-family:'Calibri';}
	.st17{font-family:'SimHei';}
	.st18{font-family:'AdobeSongStd-Light-GBpc-EUC-H';}
	.st19{fill:none;}
	.st20{enable-background:new    ;}
	.st21{font-family:'TimesNewRomanPS-ItalicMT';}
	.st22{font-family:'TimesNewRomanPS-BoldMT';}
	.st23{font-size:14px;}
	.st24{fill:#666666;}
	.st25{font-family:'Calibri-Italic';}
	.st26{fill:none;stroke:#FFCCFF;stroke-width:2;stroke-miterlimit:1.8903;stroke-dasharray:2,2;}
	.st27{fill:#FFCCFF;}
	.st28{font-size:18px;}
</style>
<g id="图层_1_2_">
	<g id="图层_1_1_">
		<g id="mermaid-svg-115">
			<rect x="30.2" y="153.6" class="st0" width="1128.3" height="364.6"/>
			<rect x="216.1" y="204.1" class="st1" width="292.9" height="296.7"/>
			
				<linearGradient id="SVGID_1_" gradientUnits="userSpaceOnUse" x1="302.3" y1="359.6898" x2="302.3" y2="281.0898" gradientTransform="matrix(1 0 0 -1 0 781.8898)">
				<stop  offset="0" style="stop-color:#FFFFFF"/>
				<stop  offset="0.1622" style="stop-color:#FFECDF"/>
				<stop  offset="0.5198" style="stop-color:#FFBC8C"/>
				<stop  offset="1" style="stop-color:#FF7715"/>
				<stop  offset="1" style="stop-color:#FF9F14"/>
				<stop  offset="1" style="stop-color:#FF9700"/>
				<stop  offset="1" style="stop-color:#ABABAC"/>
			</linearGradient>
			<path class="st2" d="M376.1,500.8H228.5c-6.8,0-12.4-5.5-12.4-12.4v-53.8c0-6.8,5.5-12.4,12.4-12.4h147.6
				c6.8,0,12.4,5.5,12.4,12.4v53.8C388.4,495.3,382.9,500.8,376.1,500.8z"/>
			
				<linearGradient id="SVGID_2_" gradientUnits="userSpaceOnUse" x1="301.3" y1="478.4898" x2="301.3" y2="540.4897" gradientTransform="matrix(1 0 0 -1 0 781.8898)">
				<stop  offset="0" style="stop-color:#FFFFFF"/>
				<stop  offset="0.1622" style="stop-color:#FFECDF"/>
				<stop  offset="0.5198" style="stop-color:#FFBC8C"/>
				<stop  offset="1" style="stop-color:#FF7715"/>
				<stop  offset="1" style="stop-color:#FF9F14"/>
				<stop  offset="1" style="stop-color:#FF9700"/>
				<stop  offset="1" style="stop-color:#ABABAC"/>
			</linearGradient>
			<path class="st3" d="M373.6,303.4H229c-7.1,0-12.9-5.8-12.9-12.9v-36.2c0-7.1,5.8-12.9,12.9-12.9h144.6c7.1,0,12.9,5.8,12.9,12.9
				v36.2C386.5,297.6,380.7,303.4,373.6,303.4z"/>
			<rect x="533.2" y="204.1" class="st1" width="195.1" height="296.7"/>
			<rect x="748.2" y="204.1" class="st1" width="396" height="296.7"/>
			<rect x="30.2" y="534.7" class="st4" width="1128.3" height="130.1"/>
			<path class="st5" d="M135.1,393.9h-77c-7.5,0-13.7-6.2-13.7-13.7v-41.6c0-7.5,6.2-13.7,13.7-13.7h77c7.5,0,13.7,6.2,13.7,13.7
				v41.6C148.7,387.7,142.6,393.9,135.1,393.9z"/>
			
				<ellipse transform="matrix(3.327792e-02 -0.9994 0.9994 3.327792e-02 -481.3817 710.7233)" class="st6" cx="126.7" cy="604.2" rx="30.1" ry="30.1"/>
			<circle class="st6" cx="392.8" cy="604.2" r="30.1"/>
			<path class="st6" d="M799.5,581.1c16.6,0,30.1,13.5,30.1,30.1s-13.5,30.1-30.1,30.1s-30.1-13.5-30.1-30.1
				c0-14,10.4-25.1,21.1-28.7C794.9,581,798.5,581.1,799.5,581.1z"/>
			<circle class="st6" cx="996.6" cy="607.9" r="30.1"/>
			<path class="st7" d="M332.4,437.8h-67.6c-6.6,0-12-5.4-12-12v-36.5c0-6.6,5.4-12,12-12h67.6c6.6,0,12,5.4,12,12v36.5
				C344.4,432.4,339,437.8,332.4,437.8z"/>
			<path class="st7" d="M332.4,341.7h-67.6c-6.6,0-12-5.4-12-12v-36.5c0-6.6,5.4-12,12-12h67.6c6.6,0,12,5.4,12,12v36.5
				C344.4,336.3,339,341.7,332.4,341.7z"/>
			<path class="st7" d="M928.9,341.2H819c-10.7,0-19.5-7.3-19.5-16.3v-49.6c0-9,8.8-16.3,19.5-16.3h109.9c10.7,0,19.5,7.3,19.5,16.3
				v49.6C948.4,333.9,939.7,341.2,928.9,341.2z"/>
			<path class="st7" d="M928.9,441.2H819c-10.7,0-19.5-7.3-19.5-16.3v-49.6c0-9,8.8-16.3,19.5-16.3h109.9c10.7,0,19.5,7.3,19.5,16.3
				v49.6C948.4,433.9,939.7,441.2,928.9,441.2z"/>
			<path class="st8" d="M1115.1,390.1h-76.6c-7.5,0-13.6-6-13.6-13.3v-40.4c0-7.3,6.1-13.3,13.6-13.3h76.6c7.5,0,13.6,6,13.6,13.3
				v40.4C1128.7,384.1,1122.6,390.1,1115.1,390.1z"/>
			<path class="st7" d="M692.3,383.7H553.4c-7.2,0-13-5.8-13-13v-24.5c0-7.2,5.8-13,13-13h138.9c7.2,0,13,5.8,13,13v24.5
				C705.3,377.9,699.5,383.7,692.3,383.7z"/>
		</g>
		<g id="箭头" class="st9">
			<g>
				<g>
					<line class="st10" x1="148.8" y1="359.5" x2="275.6" y2="359.5"/>
					<g>
						<polygon class="st11" points="243.8,379.8 270.8,359.5 243.8,339.1 266.8,339.1 293.8,359.5 266.8,379.8 						"/>
					</g>
				</g>
			</g>
			<g>
				<g>
					<line class="st12" x1="344.4" y1="396.1" x2="529.1" y2="366.9"/>
					<g>
						<polygon class="st11" points="508.7,390.7 525.6,367.4 502.3,350.5 519.4,347.8 542.7,364.7 525.7,388 						"/>
					</g>
				</g>
			</g>
			<g>
				<g>
					<line class="st12" x1="344.4" y1="306.7" x2="529.1" y2="336"/>
					<g>
						<polygon class="st11" points="502.3,352.3 525.6,335.4 508.7,312.1 525.7,314.8 542.7,338.1 519.4,355 						"/>
					</g>
				</g>
			</g>
			<g>
				<g>
					<path class="st12" d="M1025.5,374.2"/>
					<path class="st12" d="M891.1,410.7"/>
				</g>
			</g>
			<g>
				<g>
					<line class="st12" x1="1025.5" y1="371.2" x2="936.1" y2="401.1"/>
					<g>
						<polygon class="st11" points="1013.7,353.3 1038.7,367.6 1024.4,392.5 1007.7,397.1 1022,372.1 997.1,357.8 						"/>
					</g>
				</g>
			</g>
			<g>
				<g>
					<line class="st12" x1="936.1" y1="318.5" x2="1025.5" y2="348.4"/>
					<g>
						<polygon class="st11" points="997.1,361.8 1022,347.5 1007.7,322.5 1024.4,327.1 1038.7,352 1013.7,366.3 						"/>
					</g>
				</g>
			</g>
			<g>
				<g>
					<line class="st13" x1="700.6" y1="358.7" x2="827.3" y2="358.7"/>
					<g>
						<polygon class="st11" points="794.2,379 822.5,358.7 794.2,338.4 818.2,338.4 846.5,358.7 818.2,379 						"/>
					</g>
				</g>
			</g>
		</g>
		<g id="文字">
			<text transform="matrix(1 0 0 1 57.1436 355.9996)" class="st14 st15">Posthumanism</text>
			<text transform="matrix(1 0 0 1 57.1436 370.3996)" class="st14 st15">New Materialism</text>
			<text transform="matrix(1 0 0 1 90.1647 595.1342)" class="st16 st15">Jane Jacobs</text>
			<text transform="matrix(1 0 0 1 90.1647 609.5488)" class="st17 st15">《</text>
			<text transform="matrix(1 0 0 1 102.1647 609.5342)" class="st16 st15">The Death and Life of Great American Cities</text>
			<text transform="matrix(1 0 0 1 315.0647 609.5488)" class="st17 st15">》</text>
			<text transform="matrix(1 0 0 1 90.1647 623.9342)" class="st18 st15">（</text>
			<text transform="matrix(1 0 0 1 102.1647 623.9342)" class="st16 st15">Diverse Urban Life</text>
			<text transform="matrix(1 0 0 1 191.6647 623.9342)" class="st18 st15">）</text>
			<text transform="matrix(1 0 0 1 759.689 595.1484)" class="st17 st15">王澍 </text>
			<text transform="matrix(1 0 0 1 789.689 595.1337)" class="st16 st15">Wang Shu</text>
			<text transform="matrix(1 0 0 1 759.689 609.5337)" class="st16 st15">(materials like poetry, </text>
			<text transform="matrix(1 0 0 1 759.689 623.9337)" class="st16 st15">modern architecture)</text>
			<rect x="354.8" y="591" class="st19" width="109.3" height="59.1"/>
			<text transform="matrix(1 0 0 1 365.1761 595.1346)" class="st16 st15">Kengo Kuma</text>
			<text transform="matrix(1 0 0 1 365.1761 609.5345)" class="st16 st15">“Particle-Based”</text>
			<text transform="matrix(1 0 0 1 365.1761 623.9346)" class="st16 st15">Architectural Philosophy</text>
			<text transform="matrix(1 0 0 1 263.8002 306.7003)" class="st14 st15">Critical Urban </text>
			<text transform="matrix(1 0 0 1 263.8002 321.1003)" class="st14 st15">Theory</text>
			<rect x="558.6" y="334.8" class="st19" width="148.5" height="20.5"/>
			<text transform="matrix(1 0 0 1 566.2371 354.9999)" class="st14 st15">Reimagining Space </text>
			<text transform="matrix(1 0 0 1 566.2371 369.3999)" class="st14 st15">Through Chinese Poetry</text>
			<text transform="matrix(1 0 0 1 805.1934 289.8326)" class="st14 st15">Chinese Classical Aesthetics</text>
			<text transform="matrix(1 0 0 1 809.2952 304.2326)" class="st20"><tspan x="0" y="0" class="st14 st15"> Wang Guowei&apos;s(</tspan><tspan x="83.5" y="0" class="st17 st15">王国维</tspan><tspan x="119.5" y="0" class="st14 st15">) </tspan></text>
			<text transform="matrix(1 0 0 1 805.1934 318.6326)" class="st14 st15">Theory of </text>
			<text transform="matrix(1 0 0 1 857.619 318.6326)" class="st20"><tspan x="0" y="0" class="st21 st15">JingJie</tspan><tspan x="34.6" y="0" class="st14 st15">(</tspan><tspan x="38.6" y="0" class="st17 st15">境界</tspan><tspan x="62.6" y="0" class="st14 st15">)</tspan></text>
			<text transform="matrix(1 0 0 1 820.3241 396.0151)" class="st14 st15">Creative Art Practice </text>
			<text transform="matrix(1 0 0 1 820.3241 410.4151)" class="st14 st15">as a Research Method</text>
			<text transform="matrix(1 0 0 1 1038.7007 345.0504)" class="st14 st15">Art Experiment:</text>
			<text transform="matrix(1 0 0 1 1038.7007 359.4504)" class="st14 st15">Chinese Poetry </text>
			<text transform="matrix(1 0 0 1 1038.7007 373.8504)" class="st14 st15">as Urban Critique</text>
			<text transform="matrix(1 0 0 1 838.0002 232.6196)" class="st14 st15">Proposed Approach</text>
			<text transform="matrix(1 0 0 1 576.4628 232.6194)" class="st14 st15">Research Questions</text>
			<text transform="matrix(1 0 0 1 277.1 232.6193)" class="st14 st15">Critical Lens</text>
			<text transform="matrix(1 0 0 1 73.3138 232.6191)" class="st14 st15">Philosophical</text>
			<text transform="matrix(1 0 0 1 73.3138 247.0191)" class="st14 st15">Foundations</text>
			<text transform="matrix(1 0 0 1 533.1999 556.874)" class="st22 st23">Inspiration &amp; Typical Case Study</text>
			<text transform="matrix(1 0 0 1 154.9002 347.7939)" class="st24 st16 st15">Non-human elements&apos; </text>
			<text transform="matrix(1 0 0 1 154.9002 362.1939)" class="st24 st16 st15">agency provides </text>
			<text transform="matrix(1 0 0 1 154.9002 376.5939)" class="st24 st16 st15">philosophical legitimacy</text>
			<text transform="matrix(1 0 0 1 383.4044 306.7001)" class="st24 st16 st15">Critique Target: </text>
			<text transform="matrix(1 0 0 1 383.4044 321.1001)" class="st24 st16 st15">Capitalist Logic Leads </text>
			<text transform="matrix(1 0 0 1 383.4044 335.5001)" class="st24 st16 st15">to Spatial Alienation</text>
			<text transform="matrix(1 0 0 1 705.2993 354.1086)" class="st24 st16 st15">Guiding Methodology and </text>
			<text transform="matrix(1 0 0 1 705.2993 368.5086)" class="st24 st16 st15">Experimental Exploration</text>
			<text transform="matrix(1 0 0 1 383.4044 366.8998)" class="st24 st16 st15">Critical Tools: </text>
			<text transform="matrix(1 0 0 1 383.4044 381.2998)" class="st24 st16 st15">Transcending Visual Centrism</text>
			<text transform="matrix(1 0 0 1 383.4044 395.6998)" class="st24 st16 st15">Multi-Sensory Experiences </text>
			<text transform="matrix(1 0 0 1 383.4044 410.0998)" class="st24 st16 st15">Human Core Needs</text>
			<text transform="matrix(1 0 0 1 958.3004 339.8554)" class="st24 st16 st15">Co-creation</text>
			<text transform="matrix(1 0 0 1 233.179 464.7342)" class="st25 st15">The Production of Space</text>
			<text transform="matrix(1 0 0 1 237.434 451.3189)" class="st16 st15">Triadic Dialectic Theory</text>
			<text transform="matrix(1 0 0 1 243.3064 478.6551)" class="st25 st15">The Eyes of the Skin</text>
			<text transform="matrix(1 0 0 1 231.3065 494.7572)" class="st16 st15">Maslow&apos;s Hierarchy of Needs</text>
			<text transform="matrix(1 0 0 1 265.0918 402.6623)" class="st14 st15">Humanistic </text>
			<text transform="matrix(1 0 0 1 265.0918 417.0623)" class="st14 st15">Lens</text>
			<text transform="matrix(1 0 0 1 238.2002 257.8957)" class="st25 st15">Social Justice and the City</text>
			<text transform="matrix(1 0 0 1 238.2002 272.2957)" class="st25 st15">The Urbanization of Capital</text>
			<text transform="matrix(1 0 0 1 956.7236 595.1343)" class="st16 st15">The Summer Palace, Beijing</text>
			<text transform="matrix(1 0 0 1 956.7236 609.5342)" class="st16 st15">(spaces like poetry, </text>
			<text transform="matrix(1 0 0 1 956.7236 623.9343)" class="st16 st15">classical gardens)</text>
			<text transform="matrix(1 0 0 1 958.2996 385.5676)" class="st24 st16 st15">Co-creation</text>
		</g>
	</g>
	<g id="箭头2">
		<g>
			<g>
				<path class="st26" d="M786.3,585c-10.4-15.3-39-61.2-27.4-143c7.6-53.5,33.3-90.8,47.8-108.6"/>
				<g>
					<path class="st27" d="M809.5,336c1.5-1.8,0.9-4.6-1.2-5.7c-1.2-0.6-2.7-0.5-3.8,0.2c-2.2,1.5-2.2,4.6-0.3,6.1
						C805.9,337.9,808.2,337.6,809.5,336z"/>
				</g>
			</g>
		</g>
		<g>
			<g>
				<path class="st26" d="M1007.9,579.2c6-19.4,14.7-83.1-1.5-137.6c-16.8-56.8-53.9-90.9-71.6-105"/>
				<g>
					<path class="st26" d="M937.6,333.8c-2-1.6-5.4-1.1-6.6,1.5c-0.6,1.3-0.5,2.8,0.5,3.9c1.6,1.9,4.8,1.9,6.4,0.1
						C939.6,337.6,939.4,335.1,937.6,333.8z"/>
				</g>
			</g>
		</g>
		<g>
			<g>
				<path class="st26" d="M337.1,400.9c11.4,16.4,38.9,63.2,47.3,88.7c10.1,30.7,9.2,67.5,8.4,84.5"/>
				<g>
					<path class="st27" d="M334.6,403.9c-1.9-1.9-1.4-5,1-6.1c1.4-0.6,3-0.3,4.1,0.7c1.9,1.9,1.4,5-1,6.1
						C337.3,405.2,335.7,404.9,334.6,403.9z"/>
				</g>
			</g>
		</g>
		<g>
			<g>
				<path class="st26" d="M412.3,581.3c53.2-4.9,155.8-21.7,261.3-90.7c79-51.6,128.9-112.4,157.3-153.3"/>
				<g>
					<path class="st27" d="M833.3,340.2c1.9-1.9,1.4-5-1-6.1c-1.4-0.6-3-0.3-4.1,0.7c-1.9,1.9-1.4,5,1,6.1
						C830.6,341.5,832.2,341.2,833.3,340.2z"/>
				</g>
			</g>
		</g>
		<g>
			<g>
				<path class="st26" d="M778.9,589.7c-93.5,6.3-272.5,2.8-421.6-112.9c-19.4-15.1-36.9-31-52.7-47.2"/>
				<g>
					<path class="st27" d="M307.5,427.1c-1.5-1.5-3.9-1.5-5.4,0.1c-1.3,1.4-1.3,3.7,0,5.1c1.5,1.6,3.9,1.6,5.4,0.1
						C308.9,430.9,308.9,428.5,307.5,427.1z"/>
				</g>
			</g>
		</g>
		<g>
			<g>
				<path class="st26" d="M135.7,575.5c32.6-99.4,78.1-177.9,127.4-240.4c1.3-1.6,2.6-3.3,3.9-4.9"/>
				<g>
					<path class="st27" d="M269.8,332.7c1.3-1.6,1-4-0.6-5.3s-4-1-5.3,0.6s-1,4,0.6,5.3S268.5,334.4,269.8,332.7z"/>
				</g>
			</g>
		</g>
	</g>
</g>
<rect x="73.3" y="163.4" class="st19" width="185.4" height="19.3"/>
<text transform="matrix(1 0 0 1 73.3139 178.3335)" class="st22 st28">Theoretical Framework</text>
</svg>
